<svg width="37" height="37" viewBox="0 0 37 37" fill="none" xmlns="http://www.w3.org/2000/svg">
<path fill-rule="evenodd" clip-rule="evenodd" d="M25.4221 11.0989C25.4221 15.0396 22.2806 18.1994 18.3627 18.1994C14.4448 18.1994 11.3033 15.0396 11.3033 11.0989C11.3033 7.15676 14.4448 4 18.3627 4C22.2806 4 25.4221 7.15676 25.4221 11.0989ZM18.3627 30.8341C12.6082 30.8341 7.6947 29.9219 7.6947 26.2727C7.6947 22.622 12.5767 21.6765 18.3627 21.6765C24.1171 21.6765 29.0306 22.5888 29.0306 26.2395C29.0306 29.8886 24.1486 30.8341 18.3627 30.8341ZM28.4388 11.2266C28.4388 13.2355 27.8396 15.1069 26.7885 16.6626C26.6803 16.8227 26.7764 17.0387 26.9672 17.0719C27.23 17.1172 27.5018 17.1429 27.7781 17.1504C30.5337 17.2229 33.0069 15.4392 33.6902 12.7536C34.7023 8.76465 31.7305 5.18346 27.9463 5.18346C27.5348 5.18346 27.1414 5.22726 26.7584 5.30581C26.7059 5.31789 26.6503 5.34206 26.6203 5.38888C26.5842 5.44627 26.6113 5.52331 26.6473 5.57315C27.7841 7.1757 28.4388 9.13017 28.4388 11.2266ZM33.0024 19.9541C34.854 20.3181 36.0718 21.0613 36.5764 22.1412C37.0029 23.0278 37.0029 24.0564 36.5764 24.9415C35.8046 26.6165 33.3163 27.1543 32.3492 27.2932C32.1495 27.3234 31.9888 27.1497 32.0098 26.9488C32.5039 22.3073 28.5739 20.1067 27.5573 19.6007C27.5138 19.578 27.5047 19.5433 27.5093 19.5221C27.5123 19.507 27.5303 19.4829 27.5633 19.4783C29.7633 19.4376 32.1284 19.7396 33.0024 19.9541ZM9.11859 17.1504C9.3949 17.1429 9.6652 17.1187 9.9295 17.0719C10.1202 17.0387 10.2163 16.8227 10.1082 16.6626C9.05702 15.1069 8.45785 13.2355 8.45785 11.2266C8.45785 9.13017 9.11258 7.1757 10.2494 5.57315C10.2854 5.52331 10.3109 5.44627 10.2764 5.38888C10.2464 5.34357 10.1893 5.31789 10.1382 5.30581C9.7538 5.22726 9.36036 5.18346 8.9489 5.18346C5.16466 5.18346 2.19282 8.76465 3.20646 12.7536C3.88973 15.4392 6.363 17.2229 9.11859 17.1504ZM9.38665 19.5206C9.39115 19.5433 9.38214 19.5765 9.34009 19.6007C8.32195 20.1067 4.39205 22.3073 4.8861 26.9473C4.90713 27.1497 4.74795 27.3219 4.54822 27.2932C3.58114 27.1543 1.09285 26.6165 0.320985 24.9415C-0.106995 24.0549 -0.106995 23.0278 0.320985 22.1412C0.82555 21.0613 2.04191 20.3181 3.89349 19.9526C4.76897 19.7396 7.13262 19.4376 9.33409 19.4783C9.36712 19.4829 9.38364 19.507 9.38665 19.5206Z" fill="white"/>
</svg>
