<svg width="36" height="37" viewBox="0 0 36 37" fill="none" xmlns="http://www.w3.org/2000/svg">
<path fill-rule="evenodd" clip-rule="evenodd" d="M28.0027 23.8121C27.9965 23.6671 27.9734 23.2196 27.956 23.005C27.8843 22.124 27.7732 21.1272 27.7582 20.9934C27.7483 20.542 27.3772 20.1771 26.9218 20.1771C26.7029 20.1773 26.4927 20.2631 26.3364 20.4163C26.1801 20.5695 26.0899 20.7779 26.0853 20.9967C26.07 21.1305 25.9592 22.1255 25.8877 23.005C25.8677 23.2511 25.8504 23.4864 25.8436 23.6922C25.8354 23.922 25.8348 24.1521 25.8418 24.3819C25.8429 24.5703 25.8934 24.7552 25.9881 24.9181C26.0828 25.081 26.2185 25.2163 26.3817 25.3105C26.3871 25.3135 26.3925 25.3164 26.3981 25.3193C26.3981 25.3193 26.8414 25.5416 27.3019 25.7357C27.6035 25.8615 27.9085 25.9787 28.2167 26.0872C28.6066 26.2945 29.1012 26.1546 29.327 25.7635C29.4352 25.5758 29.4664 25.3535 29.4141 25.1432C29.3617 24.9329 29.2299 24.7512 29.0463 24.6361L29.0492 24.6379C28.802 24.4261 28.549 24.2213 28.2902 24.0239C28.1953 23.952 28.0995 23.8814 28.0027 23.8121ZM26.606 16.8205L26.7003 17.648C26.7003 17.7067 26.7236 17.7631 26.7652 17.8046C26.8067 17.8461 26.863 17.8695 26.9218 17.8695C26.9805 17.8695 27.0368 17.8461 27.0783 17.8046C27.1199 17.7631 27.1432 17.7067 27.1432 17.648L27.2376 16.8205C27.2358 16.738 27.2018 16.6594 27.1427 16.6017C27.0837 16.5439 27.0044 16.5116 26.9218 16.5116C26.8393 16.5116 26.76 16.5439 26.7009 16.6017C26.6419 16.6594 26.6078 16.738 26.606 16.8205ZM31.6719 18.6572L31.1535 19.3092C31.112 19.3507 31.0887 19.407 31.0887 19.4657C31.0887 19.5244 31.1121 19.5807 31.1536 19.6222C31.1951 19.6638 31.2515 19.6871 31.3102 19.6871C31.3689 19.687 31.4252 19.6637 31.4667 19.6222L32.1185 19.1039C32.1756 19.0443 32.207 18.9646 32.2061 18.8821C32.2052 18.7995 32.1721 18.7206 32.1137 18.6622C32.0553 18.6038 31.9764 18.5706 31.8938 18.5696C31.8113 18.5687 31.7316 18.6002 31.6719 18.6572ZM33.9553 23.5382L33.1278 23.6327C33.0701 23.6342 33.0153 23.6581 32.975 23.6995C32.9347 23.7409 32.9122 23.7963 32.9122 23.854C32.9122 23.9118 32.9347 23.9672 32.975 24.0086C33.0153 24.0499 33.0701 24.0739 33.1278 24.0754L33.9553 24.1698C34.0379 24.168 34.1165 24.134 34.1742 24.0749C34.232 24.0159 34.2643 23.9366 34.2643 23.854C34.2643 23.7715 34.232 23.6922 34.1742 23.6331C34.1165 23.5741 34.0379 23.54 33.9553 23.5382ZM32.1185 28.6041L31.4667 28.0859C31.4461 28.0653 31.4217 28.049 31.3949 28.0379C31.368 28.0268 31.3392 28.021 31.3102 28.021C31.2811 28.021 31.2523 28.0267 31.2254 28.0378C31.1986 28.049 31.1742 28.0653 31.1536 28.0858C31.1331 28.1064 31.1167 28.1308 31.1056 28.1576C31.0945 28.1845 31.0887 28.2133 31.0887 28.2423C31.0887 28.2714 31.0944 28.3002 31.1056 28.3271C31.1167 28.3539 31.133 28.3783 31.1535 28.3989L31.6719 29.0508C31.7316 29.1079 31.8113 29.1393 31.8938 29.1384C31.9764 29.1375 32.0553 29.1043 32.1137 29.0459C32.1721 28.9875 32.2052 28.9086 32.2061 28.826C32.207 28.7434 32.1756 28.6638 32.1185 28.6041ZM27.2376 30.8875L27.1432 30.0601C27.1432 30.0013 27.1199 29.945 27.0783 29.9035C27.0368 29.8619 26.9805 29.8386 26.9218 29.8386C26.863 29.8386 26.8067 29.8619 26.7652 29.9035C26.7236 29.945 26.7003 30.0013 26.7003 30.0601L26.606 30.8875C26.6078 30.9701 26.6419 31.0487 26.7009 31.1064C26.76 31.1642 26.8393 31.1965 26.9218 31.1965C27.0044 31.1965 27.0837 31.1642 27.1427 31.1064C27.2018 31.0487 27.2358 30.9701 27.2376 30.8875ZM22.1716 29.0508L22.69 28.3989C22.7315 28.3574 22.7548 28.3011 22.7548 28.2423C22.7548 28.1836 22.7314 28.1273 22.6899 28.0858C22.6484 28.0443 22.5921 28.021 22.5333 28.021C22.4746 28.021 22.4183 28.0444 22.3768 28.0859L21.725 28.6041C21.6679 28.6638 21.6365 28.7434 21.6374 28.826C21.6383 28.9086 21.6715 28.9875 21.7298 29.0459C21.7882 29.1043 21.8671 29.1375 21.9497 29.1384C22.0323 29.1393 22.1119 29.1079 22.1716 29.0508ZM19.8882 24.1698L20.7157 24.0754C20.7447 24.0754 20.7735 24.0697 20.8004 24.0586C20.8272 24.0474 20.8516 24.0311 20.8722 24.0106C20.8928 23.99 20.9091 23.9656 20.9202 23.9388C20.9313 23.9119 20.937 23.8831 20.937 23.854C20.937 23.825 20.9313 23.7962 20.9202 23.7693C20.9091 23.7425 20.8928 23.7181 20.8722 23.6975C20.8516 23.6769 20.8272 23.6606 20.8004 23.6495C20.7735 23.6384 20.7447 23.6327 20.7157 23.6327L19.8882 23.5382C19.8045 23.5383 19.7242 23.5716 19.665 23.6308C19.6058 23.69 19.5725 23.7702 19.5725 23.854C19.5725 24.0283 19.714 24.1698 19.8882 24.1698ZM21.725 19.1039L22.3768 19.6222C22.4183 19.6637 22.4746 19.687 22.5333 19.6871C22.5921 19.6871 22.6484 19.6638 22.6899 19.6222C22.7314 19.5807 22.7548 19.5244 22.7548 19.4657C22.7548 19.407 22.7315 19.3507 22.69 19.3092L22.1716 18.6572C22.1119 18.6002 22.0323 18.5687 21.9497 18.5696C21.8671 18.5706 21.7882 18.6038 21.7298 18.6622C21.6715 18.7206 21.6383 18.7995 21.6374 18.8821C21.6365 18.9646 21.6679 19.0443 21.725 19.1039ZM18.6442 7.83706C18.6495 7.91699 18.6851 7.9919 18.7436 8.04662C18.8021 8.10133 18.8792 8.13176 18.9593 8.13173H20.0927C20.259 8.13173 20.3967 8.00289 20.4078 7.83706C20.4089 7.82054 20.4096 7.80402 20.4098 7.78735C20.4704 6.79799 20.0927 5.89064 19.4821 5.2002C18.8482 4.48353 17.9251 4.05092 16.8954 3.9906L16.8915 3.99029C15.8306 3.94133 14.8541 4.34938 14.1373 5.02542C13.4103 5.71117 12.9806 6.69704 12.9674 7.77416C12.9674 7.78204 12.9675 7.78992 12.968 7.79765C13.0344 8.86249 13.4656 9.83563 14.2257 10.4695C14.9502 11.0739 15.8883 11.4254 16.8977 11.3106C17.375 11.3005 17.7606 10.9085 17.7606 10.4271C17.7605 10.1962 17.6701 9.97455 17.5087 9.80945C17.3473 9.64436 17.1277 9.54892 16.8969 9.54354C16.444 9.48442 16.0964 9.20036 15.8228 8.87235C15.5811 8.58268 15.4624 8.20358 15.4877 7.79765C15.4881 7.78983 15.4883 7.78199 15.4883 7.77416C15.4836 7.38566 15.6366 7.03415 15.8839 6.77207C16.1428 6.49756 16.4852 6.28641 16.8915 6.26761L16.8954 6.26731C17.3309 6.24185 17.7417 6.36948 18.0448 6.63747C18.3691 6.92425 18.6075 7.31866 18.6419 7.78265L18.6442 7.83706ZM19.7833 7.50025H19.2411C19.1426 6.96609 18.8509 6.50741 18.4632 6.16439C18.04 5.79014 17.4696 5.60188 16.8618 5.63674C16.285 5.66357 15.7921 5.94899 15.4245 6.33855C15.0703 6.71417 14.8521 7.21756 14.8567 7.77355C14.8238 8.33985 14.9983 8.86977 15.3378 9.27691C15.7151 9.72937 16.2091 10.0979 16.8398 10.1727C16.8521 10.1743 16.8645 10.175 16.8769 10.175C16.9427 10.1766 17.0053 10.2039 17.0513 10.251C17.0972 10.2981 17.123 10.3613 17.123 10.4272C17.123 10.493 17.0972 10.5562 17.0513 10.6033C17.0053 10.6504 16.9427 10.6777 16.8769 10.6793C16.8645 10.6793 16.8521 10.6801 16.8398 10.6814C16.0043 10.7806 15.2296 10.4844 14.6302 9.98448C14.0027 9.46108 13.6578 8.65332 13.5995 7.77507C13.613 6.87529 13.9665 6.0548 14.5706 5.48486C15.1668 4.9225 15.9781 4.58084 16.8604 4.62116C17.7145 4.67179 18.4832 5.02406 19.009 5.6187C19.4604 6.12907 19.7621 6.78162 19.7833 7.50025ZM10.2663 7.83706C10.2716 7.91699 10.3071 7.9919 10.3656 8.04662C10.4242 8.10133 10.5013 8.13176 10.5814 8.13173H11.7147C11.881 8.13173 12.0188 8.00289 12.0299 7.83706C12.0309 7.82054 12.0317 7.80402 12.0319 7.78735C12.0925 6.79799 11.7147 5.89064 11.1042 5.2002C10.4703 4.48353 9.54717 4.05092 8.51749 3.9906L8.51355 3.99029C7.45265 3.94133 6.47618 4.34938 5.75936 5.02542C5.03239 5.71117 4.60266 6.69704 4.58948 7.77416C4.58948 7.78204 4.58963 7.78992 4.59008 7.79765C4.65648 8.86249 5.08772 9.83563 5.84773 10.4695C6.57228 11.0739 7.5104 11.4254 8.51977 11.3106C8.99709 11.3005 9.38271 10.9085 9.38271 10.4271C9.38257 10.1962 9.29217 9.9746 9.13082 9.8095C8.96946 9.64441 8.74995 9.54896 8.51916 9.54354C8.06609 9.48442 7.71852 9.20036 7.44492 8.87235C7.20331 8.58268 7.08447 8.20358 7.10978 7.79765C7.11021 7.78983 7.11041 7.78199 7.11039 7.77416C7.10569 7.38566 7.25863 7.03415 7.50601 6.77207C7.7649 6.49756 8.10732 6.28641 8.51355 6.26761L8.51749 6.26731C8.95298 6.24185 9.36376 6.36948 9.66692 6.63747C9.99115 6.92425 10.2296 7.31866 10.264 7.78265L10.2663 7.83706ZM11.4054 7.50025H10.8632C10.7647 6.96609 10.473 6.50741 10.0853 6.16439C9.66207 5.79014 9.09168 5.60188 8.48384 5.63674C7.90709 5.66357 7.41415 5.94899 7.04657 6.33855C6.69233 6.71417 6.47421 7.21756 6.47876 7.77355C6.44602 8.33985 6.62033 8.86977 6.95987 9.27691C7.33715 9.72937 7.83114 10.0979 8.46186 10.1727C8.47414 10.1743 8.48657 10.175 8.499 10.175C8.56481 10.1766 8.62737 10.2039 8.67334 10.251C8.71931 10.2981 8.74505 10.3613 8.74505 10.4272C8.74505 10.493 8.71931 10.5562 8.67334 10.6033C8.62737 10.6504 8.56481 10.6777 8.499 10.6793C8.48657 10.6793 8.47414 10.6801 8.46186 10.6814C7.62636 10.7806 6.85164 10.4844 6.2523 9.98448C5.62476 9.46108 5.28007 8.65332 5.22156 7.77507C5.23505 6.87529 5.58853 6.0548 6.19273 5.48486C6.78889 4.9225 7.60014 4.58084 8.48248 4.62116C9.33663 4.67179 10.1053 5.02406 10.6311 5.6187C11.0825 6.12907 11.3842 6.78162 11.4054 7.50025Z" fill="white"/>
<path fill-rule="evenodd" clip-rule="evenodd" d="M26.9217 14.7754C21.9113 14.7754 17.8435 18.8433 17.8435 23.8536C17.8435 28.864 21.9113 32.932 26.9217 32.932C31.9322 32.932 35.9999 28.864 35.9999 23.8536C35.9999 18.8433 31.9322 14.7754 26.9217 14.7754ZM26.9217 17.1359C30.6293 17.1359 33.6395 20.146 33.6395 23.8536C33.6395 27.5614 30.6293 30.5714 26.9217 30.5714C23.2141 30.5714 20.204 27.5614 20.204 23.8536C20.204 20.146 23.2141 17.1359 26.9217 17.1359Z" fill="white"/>
<path fill-rule="evenodd" clip-rule="evenodd" d="M20.2029 30.8619C18.3602 29.0946 17.2119 26.6077 17.2119 23.8547C17.2119 22.7653 17.3919 21.7174 17.7232 20.7397H4.74109C4.65853 20.7379 4.57996 20.7039 4.5222 20.6448C4.46445 20.5858 4.43212 20.5065 4.43212 20.4239C4.43212 20.3413 4.46445 20.262 4.5222 20.203C4.57996 20.144 4.65853 20.1099 4.74109 20.1081H17.9624C19.191 17.1767 21.8171 14.9737 25.0055 14.3343V11.1786C25.0055 10.2032 24.6181 9.26781 23.9284 8.57812C23.2387 7.88844 22.3033 7.50098 21.3279 7.50098H15.1705C15.0891 7.50094 15.0109 7.5323 14.9522 7.58853C14.8934 7.64476 14.8586 7.72151 14.855 7.80277C14.8305 8.36043 15.0046 8.87807 15.3378 9.27763C15.7151 9.7301 16.2091 10.0986 16.8398 10.1735C16.8521 10.175 16.8645 10.1757 16.877 10.1757C16.9428 10.1774 17.0053 10.2046 17.0513 10.2517C17.0973 10.2988 17.123 10.3621 17.123 10.4279C17.123 10.4937 17.0973 10.5569 17.0513 10.604C17.0053 10.6512 16.9428 10.6784 16.877 10.68C16.8645 10.68 16.8521 10.6808 16.8398 10.6822C16.0043 10.7813 15.2296 10.4851 14.6302 9.9852C14.0071 9.46559 13.6629 8.66541 13.6007 7.79428C13.5951 7.71461 13.5594 7.64004 13.501 7.5856C13.4425 7.53117 13.3656 7.50093 13.2857 7.50098H6.79256C6.71122 7.50094 6.63301 7.5323 6.57424 7.58853C6.51547 7.64476 6.48068 7.72151 6.47712 7.80277C6.45256 8.36043 6.62673 8.87807 6.9599 9.27763C7.33718 9.7301 7.83118 10.0986 8.46189 10.1735C8.47417 10.175 8.4866 10.1757 8.49903 10.1757C8.56484 10.1774 8.6274 10.2046 8.67337 10.2517C8.71934 10.2988 8.74508 10.3621 8.74508 10.4279C8.74508 10.4937 8.71934 10.5569 8.67337 10.604C8.6274 10.6512 8.56484 10.6784 8.49903 10.68C8.4866 10.68 8.47417 10.6808 8.46189 10.6822C7.62639 10.7813 6.85167 10.4851 6.25233 9.9852C5.62919 9.46559 5.28495 8.66541 5.22281 7.79428C5.21717 7.71461 5.18152 7.64004 5.12307 7.5856C5.06462 7.53117 4.9877 7.50093 4.90782 7.50098H3.67776C3.1948 7.50096 2.71656 7.59607 2.27035 7.78087C1.82415 7.96568 1.41871 8.23657 1.0772 8.57807C0.735687 8.91957 0.464782 9.32499 0.279956 9.77119C0.0951291 10.2174 -4.10233e-10 10.6956 0 11.1786V27.1841C0.000160757 28.1595 0.38769 29.0948 1.07737 29.7845C1.76705 30.4742 2.70241 30.8617 3.67776 30.8619H20.2029ZM4.74109 25.7826H16.8512C17.0255 25.7826 17.1671 25.641 17.1671 25.4667C17.167 25.383 17.1337 25.3027 17.0745 25.2435C17.0152 25.1843 16.9349 25.151 16.8512 25.151H4.74109C4.65853 25.1528 4.57996 25.1869 4.5222 25.2459C4.46445 25.3049 4.43212 25.3842 4.43212 25.4668C4.43212 25.5494 4.46445 25.6287 4.5222 25.6877C4.57996 25.7467 4.65853 25.7808 4.74109 25.7826ZM6.57307 15.6969H20.2646C20.3483 15.6968 20.4286 15.6635 20.4878 15.6042C20.547 15.545 20.5803 15.4647 20.5803 15.381C20.5803 15.2972 20.547 15.217 20.4878 15.1578C20.4286 15.0986 20.3483 15.0653 20.2646 15.0652H6.57307C6.49051 15.067 6.41194 15.1011 6.35419 15.1601C6.29644 15.2192 6.2641 15.2985 6.2641 15.381C6.2641 15.4636 6.29644 15.5429 6.35419 15.6019C6.41194 15.661 6.49051 15.695 6.57307 15.6969Z" fill="white"/>
</svg>
