<svg width="605" height="537" viewBox="0 0 605 537" fill="none" xmlns="http://www.w3.org/2000/svg">
<path d="M597.5 536.237H7.45613C3.33807 536.237 0 532.899 0 528.781C0 524.663 3.33807 521.325 7.45613 521.325H597.5C601.618 521.325 604.956 524.663 604.956 528.781C604.956 532.899 601.618 536.237 597.5 536.237Z" fill="#B6B9D1"/>
<path d="M483.026 491.359C486.075 502.47 487.178 515.854 483.468 520.644C479.759 525.434 443.367 527.911 438.113 522.5C432.859 517.087 455.412 515.961 457.429 507.52C459.446 499.078 464.978 484.567 464.978 484.567L483.026 491.359Z" fill="#61648A"/>
<path d="M421.544 491.359C424.592 502.47 425.695 515.854 421.986 520.644C418.276 525.434 381.885 527.911 376.631 522.5C371.378 517.087 393.93 515.961 395.947 507.52C397.964 499.078 403.495 484.567 403.495 484.567L421.544 491.359Z" fill="#61648A"/>
<path d="M487.066 230.033C495.085 267.653 490.93 497.564 490.93 497.564H457.495L435.53 223.334L487.066 230.033Z" fill="#2A2B3D"/>
<path d="M406.133 230.033L393.288 497.564H425.143C425.143 497.564 453.559 320.977 455.278 318.899C456.997 316.821 435.53 223.333 435.53 223.333L406.133 230.033Z" fill="#2A2B3D"/>
<path opacity="0.47" d="M440.718 298.803C427.685 354.78 440.055 406.041 440.055 406.041L447.325 362.588L440.718 298.803Z" fill="#1B1D28"/>
<path d="M437.058 230.029V276.443L441.296 278.846V229.17" stroke="#3B3D4F" stroke-miterlimit="10"/>
<path opacity="0.47" d="M405.919 239.107C437.057 239.181 490.006 260.358 490.006 260.358C490.006 260.358 490.405 238.675 487.066 230.034C483.725 221.392 406.135 230.034 406.135 230.034L405.919 239.107Z" fill="#1B1D28"/>
<path d="M340.294 149.167C337.782 141.142 337.002 134.967 333.501 133.457C330.417 132.126 333.479 139.749 333.479 139.749C333.479 139.749 322.407 130.846 317.884 131.701C313.36 132.557 320.923 135.405 320.923 135.405C320.923 135.405 313.846 132.072 312.567 134.048C311.87 135.123 318.162 138.784 318.162 138.784C318.162 138.784 312.927 136.62 312.032 137.899C311.138 139.179 317.219 144.33 317.219 144.33C317.219 144.33 313.019 141.796 312.667 143.316C312.315 144.836 335.159 158.24 335.159 158.24L340.294 149.167Z" fill="#F4B8AB"/>
<path d="M324.777 143.092C330.393 143.995 333.815 147.358 333.815 147.358" stroke="#E56A85" stroke-miterlimit="10" stroke-linecap="round"/>
<path d="M495.596 169.252L487.069 230.033H406.129L405.798 176.428C405.798 176.428 393.836 195.538 381.979 195.207C374.206 194.982 354.95 180.804 342.564 171.03C342.551 171.016 342.551 171.016 342.538 171.016C342.525 171.002 342.525 171.002 342.525 171.002C335.999 165.843 331.398 161.931 331.398 161.931L339.886 143.457L379.73 157.567C391.156 140.24 413.307 117.343 430.546 119.054L449.034 116.508L495.596 169.252Z" fill="#61648A"/>
<path opacity="0.36" d="M467.566 145.226C477.803 174.157 455.039 173.083 443.461 180.239C431.883 187.395 428.215 216.022 417.133 216.634C406.053 217.245 405.921 196.452 405.921 196.452L406.135 230.033H487.066L495.603 169.249L467.566 145.226Z" fill="#383952"/>
<path d="M444.226 210.401H433.271C432.041 210.401 431.016 209.462 430.905 208.237L428.446 180.754H449.049L446.591 208.237C446.481 209.462 445.454 210.401 444.226 210.401Z" fill="white"/>
<path d="M448.95 180.239C448.95 181.729 444.382 182.935 438.748 182.935C433.113 182.935 428.546 181.729 428.546 180.239C428.546 178.75 433.114 177.543 438.748 177.543C444.383 177.543 448.95 178.75 448.95 180.239Z" fill="#DFE0E5"/>
<path d="M451.834 207.176H441.296V185.73H451.834C454.464 185.73 456.605 187.869 456.605 190.501V202.405C456.605 205.036 454.464 207.176 451.834 207.176ZM443.948 204.522H451.832C453 204.522 453.951 203.571 453.951 202.403V190.499C453.951 189.331 453 188.38 451.832 188.38H443.948V204.522Z" fill="white"/>
<path d="M469.989 182.962C466.579 183.226 461.941 182.111 459.342 180.999C456.744 179.885 451.55 182.854 450.622 184.338C449.694 185.822 455.447 186.194 455.447 186.194C455.447 186.194 447.654 188.792 448.025 191.019C448.396 193.245 451.736 193.245 451.736 193.245C451.736 193.245 453.035 202.337 456.746 204.378C460.457 206.42 470.105 202.151 471.219 200.852C472.332 199.553 474.373 195.657 477.342 194.914C480.31 194.172 469.989 182.962 469.989 182.962Z" fill="#F4B8AB"/>
<path d="M449.03 116.502C460.988 113.668 488.725 117.031 501.662 135.03C514.599 153.029 536.075 182.996 532.138 190.307C528.201 197.618 476.004 199.728 476.004 199.728L469.143 180.604L483.497 169.916L449.03 116.502Z" fill="#61648A"/>
<path d="M435.704 117.255C425.777 119.306 429.418 136.02 429.418 136.02L443.04 128.037L458.155 130.644C458.155 130.644 457.241 118.159 449.03 116.503C440.819 114.845 435.704 117.255 435.704 117.255Z" fill="#7C81A5"/>
<path d="M479.111 85.9892C475.78 104.511 449.978 111.145 449.978 111.145L435.199 91.6686L424.192 77.1677C424.192 77.1677 414.226 79.7217 411.408 74.8788C408.604 70.0208 414.476 66.7035 414.476 66.7035C414.476 66.7035 401.957 60.0549 405.025 51.1175C408.034 42.3416 423.605 48.3289 424.178 48.5498C423.722 47.9769 412.012 33.3448 419.174 26.3443C426.482 19.1822 445.65 28.8982 452.534 45.4975C452.534 45.4975 452.797 36.56 458.155 36.8085C463.527 37.0722 470.116 52.146 468.604 56.9888C468.604 56.9888 482.429 67.4531 479.111 85.9892Z" fill="#6D3744"/>
<path d="M479.111 85.9891C475.78 104.511 449.978 111.145 449.978 111.145L435.199 91.6685C436.168 85.9739 436.02 75.5387 443.138 70.3728C451.239 64.4877 460.47 69.3747 468.601 56.9874C468.601 56.9874 482.429 67.453 479.111 85.9891Z" fill="#542633"/>
<path d="M420.006 79.4014C417.233 95.2676 421.231 113.493 434.713 114.077L435.023 119.574C435.254 123.647 438.741 126.761 442.813 126.532C446.886 126.301 450 122.814 449.77 118.742L449.459 113.245C449.459 113.245 459.928 108.08 461.693 101.256C463.46 94.4324 461.633 100.184 461.633 100.184L461.042 72.7805L424.357 74.8527L420.006 79.4014Z" fill="#F4B8AB"/>
<path d="M460.378 89.9444C463.402 83.6051 467.515 85.9603 468.509 89.4847C469.504 93.0091 462.854 102.104 460.897 99.1483C458.941 96.194 460.378 89.9444 460.378 89.9444Z" fill="#F4B8AB"/>
<path d="M443.979 92.4608C444.795 92.4139 445.151 91.3799 445.038 89.3837C444.924 87.3888 444.455 86.399 443.639 86.4459C442.823 86.4915 442.467 87.5282 442.58 89.5231C442.694 91.5179 443.164 92.5064 443.979 92.4608Z" fill="#191918"/>
<path d="M429.486 93.2783C430.302 93.2328 430.658 92.1974 430.545 90.2012C430.432 88.2063 429.962 87.2165 429.147 87.2634C428.331 87.309 427.974 88.3458 428.088 90.3406C428.2 92.3368 428.67 93.3253 429.486 93.2783Z" fill="#191918"/>
<path d="M435.37 102.715C442.321 102.483 447.42 97.1809 447.42 97.1809C447.42 97.1809 449.008 105.572 443.809 106.992C438.61 108.411 435.37 102.715 435.37 102.715Z" fill="#E56A85"/>
<path opacity="0.53" d="M434.713 114.077C440.682 114.276 447.556 113.67 447.556 113.67L435.022 119.574L434.713 114.077Z" fill="#DD6595"/>
<path opacity="0.53" d="M460.829 91.5733C463.656 88.2477 465.207 89.4611 465.19 92.7509C465.174 96.042 461.355 98.6139 460.022 97.747C458.689 96.88 460.829 91.5733 460.829 91.5733Z" fill="#DD6595"/>
<path d="M464.239 77.2269C454.86 93.3541 428.313 83.0996 423.007 76.2633C417.702 69.4271 428.738 59.5329 440.819 60.8651C452.901 62.196 467.231 72.0859 464.239 77.2269Z" fill="#6D3744"/>
<path opacity="0.36" d="M408.105 165.074L405.797 176.426C405.797 176.426 393.835 195.536 381.977 195.205C374.205 194.98 354.948 180.802 342.562 171.028C343.438 171.558 357.722 180.086 379.723 185.59C401.169 190.948 407.456 167.712 408.105 165.074Z" fill="#383952"/>
<path d="M276.586 520.272H227.317V527.012H276.586V520.272Z" fill="#1F202D"/>
<path d="M257.083 421.536H246.821V521.628H257.083V421.536Z" fill="#2A2B3D"/>
<path d="M284.374 421.536H219.53C212.023 421.536 205.939 415.45 205.939 407.944V383.566H297.966V407.944C297.965 415.45 291.881 421.536 284.374 421.536Z" fill="#2A2B3D"/>
<path d="M267.955 421.536H235.948V428.275H267.955V421.536Z" fill="#1F202D"/>
<path d="M367.482 489.907C369.006 501.327 373.207 514.083 378.49 517.048C383.773 520.013 418.253 508.11 420.981 501.078C423.709 494.046 402.501 501.799 397.354 494.812C392.206 487.825 381.456 476.617 381.456 476.617L367.482 489.907Z" fill="#D35473"/>
<path d="M390.171 488.356L367.293 497.07C367.293 497.07 332.029 454.592 324.191 435.984C316.366 417.378 249.273 331.968 249.273 331.968L291.446 336.942C301.698 343.785 313.395 350.39 324.191 357.313C337.586 365.894 349.562 374.964 355.53 385.548C363.766 400.136 379.626 452.404 386.656 476.288C388.83 483.675 390.171 488.356 390.171 488.356Z" fill="#FFC55A"/>
<path d="M390.171 488.356L367.293 497.07C367.293 497.07 332.029 454.592 324.191 435.984C316.366 417.378 249.273 331.968 249.273 331.968L291.446 336.942C301.698 343.785 313.395 350.39 324.191 357.313C321.14 369.448 347.89 388.532 349.867 417.271C351.764 444.684 350.596 472.827 386.656 476.288C388.83 483.675 390.171 488.356 390.171 488.356Z" fill="#F49947"/>
<path d="M340.59 407.678C344.96 426.6 334.249 453.402 334.249 453.402L326.051 440.993L340.59 407.678Z" fill="#E28437"/>
<path d="M277.089 495.19C273.889 506.257 269.942 523.016 273.587 527.857C277.23 532.698 302.283 535.675 307.611 530.335C312.938 524.995 304.25 522.545 299.804 515.091C294.145 505.609 294.347 497.066 294.347 497.066L277.089 495.19Z" fill="#D35473"/>
<path d="M340.623 409.062C339.416 433.543 298.249 502.587 298.249 502.587L273.754 497.07C276.207 446.011 291.445 416.888 291.445 416.888C291.445 416.888 254.178 413.465 228.927 406.61C203.676 399.753 176.806 370.377 188.053 339.981L249.272 331.971C249.272 331.971 258.847 337.409 271.791 345.617C297.108 361.638 335.33 388.19 340.13 405.218C340.516 406.556 340.689 407.843 340.623 409.062Z" fill="#FFC55A"/>
<path d="M340.623 409.062C339.416 433.543 298.249 502.587 298.249 502.587L273.754 497.07C276.207 446.011 291.445 416.888 291.445 416.888C291.445 416.888 254.178 413.465 228.927 406.61C203.676 399.753 176.806 370.377 188.053 339.981L249.272 331.971C249.272 331.971 258.847 337.409 271.791 345.617L272.122 346.214C272.122 346.214 226.143 360.47 230.85 388.387C235.558 416.29 282.241 414.672 301.008 414.513C316.962 414.394 331.883 410.163 340.131 405.217C340.516 406.556 340.689 407.843 340.623 409.062Z" fill="#F49947"/>
<path d="M261.288 249.836C255.532 268.27 243.238 321.293 184.46 341.279C133.308 358.652 110.085 326.89 105.921 297.088C105.311 292.632 105.112 288.216 105.311 284.025C106.85 251.758 129.899 260.974 158.333 245.485C186.754 229.994 171.396 216.799 183.306 191.083C195.215 165.381 211.341 164.546 229.79 165.832C248.238 167.119 246.977 181.773 246.977 181.773C246.977 181.773 252.839 191.441 246.977 200.725L246.991 200.739C247.523 201.561 266.978 231.641 261.288 249.836Z" fill="#6D3744"/>
<path d="M261.288 249.836C255.532 268.27 243.237 321.293 184.46 341.278C133.308 358.652 110.085 326.889 105.921 297.088C117.644 308.56 147.02 305.722 152.723 281.386C159.526 252.329 173.943 246.771 185.415 234.757C196.899 222.741 185.561 205.925 193.968 195.077L202.708 185.09L246.977 200.726L246.991 200.74C247.523 201.561 266.978 231.641 261.288 249.836Z" fill="#542633"/>
<path d="M240.602 228.052C262.646 230.709 273.406 248.567 276.045 273.534C278.685 298.5 281.15 331.969 281.15 331.969L186.175 340.107C186.175 340.107 187.052 260.074 187.484 258.323C187.916 256.573 213.602 229.533 213.602 229.533L240.602 228.052Z" fill="#D35473"/>
<path opacity="0.38" d="M206.599 255.843C208.308 293.102 238.223 296.595 249.276 296.984C260.328 297.372 276.541 278.346 276.541 278.346L288.279 319.111L279.35 325.325L185.419 326.842C185.419 326.842 182.554 285.794 183.784 284.596C185.016 283.396 206.599 255.843 206.599 255.843Z" fill="#8E253E"/>
<path d="M233.018 308.498C244.412 302.744 260.411 309.745 258.411 322.744H230.852L233.018 308.498Z" fill="#F4B8AB"/>
<path d="M213.602 229.533C189.014 229.273 180.676 240.468 174.42 258.323C168.167 276.18 161.217 309.883 168.861 321.349C176.505 332.816 235.672 323.782 235.672 323.782L236.531 304.082L197.352 299.46L205.937 258.323L213.602 229.533Z" fill="#D35473"/>
<path d="M261.031 312.405L272.025 264.616C274.198 255.169 282.536 248.424 292.228 248.271L373.747 246.975C379.461 246.883 383.729 252.203 382.403 257.762L367.235 316.918C366.427 320.067 363.571 322.255 360.32 322.214L267.806 321.029C263.316 320.973 260.023 316.784 261.031 312.405Z" fill="#4D94CE"/>
<path d="M267.249 311.769L278.042 264.861C280.261 255.214 288.775 248.325 298.672 248.167L379.84 246.878C385.554 246.787 389.823 252.106 388.496 257.665L373.415 316.482C372.557 319.831 369.518 322.157 366.061 322.113L274.454 320.941C269.678 320.88 266.177 316.424 267.249 311.769Z" fill="#58AEDD"/>
<path d="M330.128 273.741L330.676 273.725C336.201 273.556 340.311 278.783 338.843 284.112L335.917 294.74C335 298.071 332.095 300.472 328.651 300.746C323.14 301.185 318.779 296.159 319.987 290.764L322.365 280.152C323.185 276.495 326.38 273.857 330.128 273.741Z" fill="#4D94CE"/>
<path d="M346.857 325.651L236.128 327.411C234.437 327.437 233.044 326.089 233.016 324.398C232.989 322.706 234.339 321.314 236.03 321.286L346.759 319.526C348.45 319.5 349.843 320.848 349.871 322.539C349.898 324.231 348.55 325.623 346.857 325.651Z" fill="#4D94CE"/>
<path d="M372.961 325.235L262.232 326.995C260.541 327.023 259.148 325.673 259.12 323.982C259.093 322.291 260.443 320.898 262.134 320.87L372.863 319.11C374.554 319.084 375.947 320.433 375.975 322.124C376.002 323.816 374.652 325.209 372.961 325.235Z" fill="#7DD0F4"/>
<path d="M240.602 228.052C247.02 233.4 244.091 237.099 244.091 237.099C244.091 237.099 246.025 244.615 240.802 245.776C235.58 246.937 232.098 243.455 232.098 243.455C232.098 243.455 229.849 250.032 224.398 249.064C218.945 248.097 219.968 239.584 219.968 239.584C219.968 239.584 218.319 242.291 213.603 239.584C208.886 236.877 214.497 229.533 214.497 229.533L240.602 228.052Z" fill="#E57797"/>
<path d="M241.343 186.311C247.182 201.331 246.839 219.995 233.727 223.216L234.502 228.669C235.076 232.71 232.267 236.45 228.226 237.024C224.186 237.598 220.445 234.789 219.871 230.748L219.095 225.295C219.095 225.295 207.812 222.286 204.738 215.938C201.665 209.59 204.586 214.874 204.586 214.874L199.783 187.875L236.178 182.701L241.343 186.311Z" fill="#F4B8AB"/>
<path d="M203.809 204.583C199.597 198.959 196.025 202.076 195.741 205.73C195.458 209.383 203.767 216.999 205.106 213.715C206.447 210.431 203.809 204.583 203.809 204.583Z" fill="#F4B8AB"/>
<path d="M220.391 203.831C219.582 203.945 219.029 203.001 218.749 201.02C218.467 199.041 218.735 197.978 219.544 197.863C220.353 197.748 220.905 198.694 221.187 200.674C221.467 202.653 221.2 203.716 220.391 203.831Z" fill="#191918"/>
<path d="M234.769 201.787C233.959 201.901 233.407 200.957 233.125 198.976C232.844 196.996 233.111 195.933 233.92 195.819C234.729 195.704 235.283 196.65 235.565 198.629C235.846 200.61 235.578 201.672 234.769 201.787Z" fill="#191918"/>
<path d="M230.851 212.199C223.988 213.337 217.942 209.137 217.942 209.137" stroke="#E56A85" stroke-miterlimit="10" stroke-linecap="round"/>
<path opacity="0.53" d="M233.727 223.216C227.911 224.582 221.047 225.339 221.047 225.339L234.502 228.669L233.727 223.216Z" fill="#DD6595"/>
<path opacity="0.53" d="M203.686 206.27C200.259 203.564 198.977 205.058 199.638 208.283C200.301 211.508 204.553 213.282 205.69 212.169C206.828 211.055 203.686 206.27 203.686 206.27Z" fill="#DD6595"/>
<path d="M234.503 177.043C239.489 193.872 205.932 204.789 198.026 201.796C190.121 198.804 189.585 187.183 200.61 179.739C211.636 172.294 232.826 171.383 234.503 177.043Z" fill="#6D3744"/>
<path d="M115.054 336.945H101.756V525.065H115.054V336.945Z" fill="#C46C3B"/>
<path d="M471.85 336.945H458.551V525.065H471.85V336.945Z" fill="#C46C3B"/>
<path d="M115.054 336.945H101.756V362.089H115.054V336.945Z" fill="#AA5327"/>
<path d="M471.85 336.945H458.551V362.089H471.85V336.945Z" fill="#AA5327"/>
<path d="M492.509 326.996H81.0952V340.946H492.509V326.996Z" fill="#C46C3B"/>
<path d="M367.761 0H209.223V109.14H367.761V0Z" fill="#D0E6EF"/>
<path d="M248.824 0.66687H208.893V108.474H248.824V0.66687Z" fill="#61648A"/>
<path d="M363.023 5.29285H212.26V13.0375H363.023V5.29285Z" fill="white"/>
<path d="M216.837 10.9925C217.748 10.9925 218.486 10.2543 218.486 9.34374C218.486 8.43317 217.748 7.69501 216.837 7.69501C215.927 7.69501 215.188 8.43317 215.188 9.34374C215.188 10.2543 215.927 10.9925 216.837 10.9925Z" fill="#D35473"/>
<path d="M222.99 10.9925C223.901 10.9925 224.639 10.2543 224.639 9.34374C224.639 8.43317 223.901 7.69501 222.99 7.69501C222.079 7.69501 221.341 8.43317 221.341 9.34374C221.341 10.2543 222.079 10.9925 222.99 10.9925Z" fill="#FFC55A"/>
<path d="M229.143 10.9925C230.053 10.9925 230.792 10.2543 230.792 9.34374C230.792 8.43317 230.053 7.69501 229.143 7.69501C228.232 7.69501 227.494 8.43317 227.494 9.34374C227.494 10.2543 228.232 10.9925 229.143 10.9925Z" fill="#54D15F"/>
<path d="M355.836 7.46167H360.855" stroke="#61648A" stroke-width="0.5" stroke-miterlimit="10" stroke-linecap="round"/>
<path d="M355.836 9.16528H360.855" stroke="#61648A" stroke-width="0.5" stroke-miterlimit="10" stroke-linecap="round"/>
<path d="M355.836 10.8702H360.855" stroke="#61648A" stroke-width="0.5" stroke-miterlimit="10" stroke-linecap="round"/>
<path d="M222.406 29.4103H232.971" stroke="white" stroke-width="2" stroke-miterlimit="10" stroke-linecap="round"/>
<path d="M222.406 38.7454H232.971" stroke="white" stroke-width="2" stroke-miterlimit="10" stroke-linecap="round"/>
<path d="M222.406 48.0817H232.971" stroke="white" stroke-width="2" stroke-miterlimit="10" stroke-linecap="round"/>
<path d="M228.017 57.4167H238.582" stroke="white" stroke-width="2" stroke-miterlimit="10" stroke-linecap="round"/>
<path d="M222.406 66.7532H232.971" stroke="white" stroke-width="2" stroke-miterlimit="10" stroke-linecap="round"/>
<path d="M228.017 76.0895H238.582" stroke="white" stroke-width="2" stroke-miterlimit="10" stroke-linecap="round"/>
<path d="M228.017 85.4247H238.582" stroke="white" stroke-width="2" stroke-miterlimit="10" stroke-linecap="round"/>
<path d="M286.185 20.9686H296.002" stroke="#54D15F" stroke-width="1.5" stroke-miterlimit="10" stroke-linecap="round"/>
<path d="M299.518 20.9686H322.087" stroke="#2D292A" stroke-width="1.5" stroke-miterlimit="10" stroke-linecap="round"/>
<path d="M325.138 20.9686H332.754" stroke="#D35473" stroke-width="1.5" stroke-miterlimit="10" stroke-linecap="round"/>
<path d="M335.022 20.9686H349.629" stroke="#FFC55A" stroke-width="1.5" stroke-miterlimit="10" stroke-linecap="round"/>
<path d="M277.369 29.2419H290.055" stroke="#FFC55A" stroke-width="1.5" stroke-miterlimit="10" stroke-linecap="round"/>
<path d="M293.571 29.2419H323.344" stroke="#2D292A" stroke-width="1.5" stroke-miterlimit="10" stroke-linecap="round"/>
<path d="M326.394 29.2419H337.472" stroke="#54D15F" stroke-width="1.5" stroke-miterlimit="10" stroke-linecap="round"/>
<path d="M340.937 29.2419H352.016" stroke="#D35473" stroke-width="1.5" stroke-miterlimit="10" stroke-linecap="round"/>
<path d="M279.692 37.5153H294.659" stroke="#2D292A" stroke-width="1.5" stroke-miterlimit="10" stroke-linecap="round"/>
<path d="M298.176 37.5153H309.926" stroke="#D35473" stroke-width="1.5" stroke-miterlimit="10" stroke-linecap="round"/>
<path d="M312.975 37.5153H334.249" stroke="#FFC55A" stroke-width="1.5" stroke-miterlimit="10" stroke-linecap="round"/>
<path d="M337.106 37.5153H343.712" stroke="#2D292A" stroke-width="1.5" stroke-miterlimit="10" stroke-linecap="round"/>
<path d="M272.623 54.0605H284.426" stroke="#FFC55A" stroke-width="1.5" stroke-miterlimit="10" stroke-linecap="round"/>
<path d="M287.944 54.0605H290.288" stroke="#2D292A" stroke-width="1.5" stroke-miterlimit="10" stroke-linecap="round"/>
<path d="M293.337 54.0605H312.975" stroke="#D35473" stroke-width="1.5" stroke-miterlimit="10" stroke-linecap="round"/>
<path d="M315.325 54.0605H342.76" stroke="#54D15F" stroke-width="1.5" stroke-miterlimit="10" stroke-linecap="round"/>
<path d="M324.142 70.6077H345.877" stroke="#2D292A" stroke-width="1.5" stroke-miterlimit="10" stroke-linecap="round"/>
<path d="M279.692 62.3342H288.529" stroke="#54D15F" stroke-width="1.5" stroke-miterlimit="10" stroke-linecap="round"/>
<path d="M292.047 62.3342H313.799" stroke="#D35473" stroke-width="1.5" stroke-miterlimit="10" stroke-linecap="round"/>
<path d="M316.849 62.3342H328.528" stroke="#FFC55A" stroke-width="1.5" stroke-miterlimit="10" stroke-linecap="round"/>
<path d="M332.32 62.3342H345.532" stroke="#D35473" stroke-width="1.5" stroke-miterlimit="10" stroke-linecap="round"/>
<path d="M280.402 70.6077H291.813" stroke="#FFC55A" stroke-width="1.5" stroke-miterlimit="10" stroke-linecap="round"/>
<path d="M295.329 70.6077H306.59" stroke="#2D292A" stroke-width="1.5" stroke-miterlimit="10" stroke-linecap="round"/>
<path d="M309.64 70.6077H320.533" stroke="#54D15F" stroke-width="1.5" stroke-miterlimit="10" stroke-linecap="round"/>
<path d="M298.176 86.1492H304.832" stroke="#D35473" stroke-width="1.5" stroke-miterlimit="10" stroke-linecap="round"/>
<path d="M308.348 86.1492H330.31" stroke="#2D292A" stroke-width="1.5" stroke-miterlimit="10" stroke-linecap="round"/>
<path d="M333.36 86.1492H348.91" stroke="#FFC55A" stroke-width="1.5" stroke-miterlimit="10" stroke-linecap="round"/>
<path d="M288.054 94.4227H296.417" stroke="#D35473" stroke-width="1.5" stroke-miterlimit="10" stroke-linecap="round"/>
<path d="M299.934 94.4227H306.933" stroke="#2D292A" stroke-width="1.5" stroke-miterlimit="10" stroke-linecap="round"/>
<path d="M309.982 94.4227H328.38" stroke="#FFC55A" stroke-width="1.5" stroke-miterlimit="10" stroke-linecap="round"/>
<path d="M331.836 94.4227H350.567" stroke="#54D15F" stroke-width="1.5" stroke-miterlimit="10" stroke-linecap="round"/>
<path opacity="0.21" d="M275.489 20.9686H279.249" stroke="#383952" stroke-width="1.5" stroke-miterlimit="10" stroke-linecap="round"/>
<path opacity="0.21" d="M265.626 29.2419H269.387" stroke="#383952" stroke-width="1.5" stroke-miterlimit="10" stroke-linecap="round"/>
<path opacity="0.21" d="M270.184 37.5153H273.944" stroke="#383952" stroke-width="1.5" stroke-miterlimit="10" stroke-linecap="round"/>
<path opacity="0.21" d="M261.225 45.7874H264.986" stroke="#383952" stroke-width="1.5" stroke-miterlimit="10" stroke-linecap="round"/>
<path opacity="0.21" d="M261.225 54.0605H264.986" stroke="#383952" stroke-width="1.5" stroke-miterlimit="10" stroke-linecap="round"/>
<path opacity="0.21" d="M269.72 62.3341H273.48" stroke="#383952" stroke-width="1.5" stroke-miterlimit="10" stroke-linecap="round"/>
<path opacity="0.21" d="M270.743 70.6075H274.503" stroke="#383952" stroke-width="1.5" stroke-miterlimit="10" stroke-linecap="round"/>
<path opacity="0.21" d="M261.225 78.8807H264.986" stroke="#383952" stroke-width="1.5" stroke-miterlimit="10" stroke-linecap="round"/>
<path opacity="0.21" d="M285.296 86.1492H289.056" stroke="#383952" stroke-width="1.5" stroke-miterlimit="10" stroke-linecap="round"/>
<path opacity="0.21" d="M276.455 94.4226H280.215" stroke="#383952" stroke-width="1.5" stroke-miterlimit="10" stroke-linecap="round"/>
<path d="M213.395 94.6216H138.933V146.207H213.395V94.6216Z" fill="#54D15F"/>
<path d="M158.518 112.288C158.302 112.396 158.068 112.491 157.816 112.571C157.573 112.652 157.317 112.729 157.047 112.801C157.586 112.927 158.077 113.098 158.518 113.314L162.931 115.622C163.165 115.73 163.327 115.865 163.417 116.027C163.516 116.189 163.566 116.369 163.566 116.567V119.185L152.755 113.53V112.059L163.566 106.417V109.035C163.566 109.224 163.516 109.4 163.417 109.562C163.327 109.724 163.165 109.859 162.931 109.967L158.518 112.288ZM170.708 121.844C170.537 122.294 170.262 122.631 169.884 122.856C169.515 123.09 169.138 123.207 168.751 123.207H167.172L174.959 103.056C175.112 102.651 175.355 102.336 175.688 102.111C176.021 101.886 176.403 101.774 176.835 101.774H178.428L170.708 121.844ZM192.834 112.059V113.53L182.023 119.185V116.567C182.023 116.369 182.068 116.189 182.158 116.027C182.257 115.865 182.424 115.73 182.657 115.622L187.071 113.314C187.296 113.206 187.53 113.111 187.773 113.03C188.016 112.94 188.277 112.864 188.556 112.801C188.277 112.738 188.016 112.666 187.773 112.585C187.53 112.495 187.296 112.396 187.071 112.288L182.657 109.967C182.424 109.859 182.257 109.724 182.158 109.562C182.068 109.4 182.023 109.224 182.023 109.035V106.417L192.834 112.059Z" fill="white"/>
<path d="M407.065 92.1987H352.016V124.75H407.065V92.1987Z" fill="#D35473"/>
<path d="M369.645 108.474C369.645 110.032 368.382 111.295 366.823 111.295C365.265 111.295 364.002 110.032 364.002 108.474C364.002 106.915 365.265 105.652 366.823 105.652C368.381 105.652 369.645 106.915 369.645 108.474Z" fill="white"/>
<path d="M382.361 108.474C382.361 110.032 381.098 111.295 379.539 111.295C377.981 111.295 376.718 110.032 376.718 108.474C376.718 106.915 377.981 105.652 379.539 105.652C381.099 105.652 382.361 106.915 382.361 108.474Z" fill="white"/>
<path d="M395.078 108.474C395.078 110.032 393.815 111.295 392.257 111.295C390.698 111.295 389.435 110.032 389.435 108.474C389.435 106.915 390.698 105.652 392.257 105.652C393.817 105.652 395.078 106.915 395.078 108.474Z" fill="white"/>
<path d="M107.083 304.96C96.0863 288.3 87.5727 273.402 92.5383 255.663C92.5383 255.663 96.0863 264.887 102.826 271.628C109.566 278.369 119.675 289.765 117.813 302.337C115.953 314.907 107.083 304.96 107.083 304.96Z" fill="#42A547"/>
<path d="M108.502 288.304C99.0833 267.254 109.212 235.991 114.889 230.396C114.889 230.396 121.983 247.427 123.048 259.351C124.112 271.273 128.369 287.592 123.048 298.944C117.726 310.296 112.05 300.363 112.05 300.363L108.502 288.304Z" fill="#54D15F"/>
<path d="M119.855 304.384C118.435 287.236 131.916 272.336 137.238 265.241C137.238 265.241 141.638 280.006 136.61 291.101C131.582 302.196 123.049 304.959 123.049 304.959L119.855 304.384Z" fill="#5FD365"/>
<path d="M136.745 298.786C136.719 309.197 134.583 318.613 133.23 323.547C132.608 325.842 132.142 327.168 132.142 327.168H104.106C104.106 327.168 96.6646 312.619 98.0838 301.253C102.381 300.193 106.916 299.503 111.32 299.078C124.69 297.766 136.745 298.786 136.745 298.786Z" fill="#FFC55A"/>
<path d="M133.23 323.547C132.608 325.842 132.142 327.168 132.142 327.168H104.106C104.106 327.168 96.6646 312.619 98.0838 301.254C102.381 300.193 106.916 299.503 111.32 299.078C107.463 317.063 123.311 322.672 133.23 323.547Z" fill="#F49947"/>
<path d="M339.467 178.935H284.418V223.216H339.467V178.935Z" fill="#FFC55A"/>
<path d="M284.418 200.848L304.891 212.394L326.118 192.838L339.467 201.796V223.216H284.418V200.848Z" fill="#F49947"/>
<path d="M303.61 200.846C306.52 200.846 308.879 198.487 308.879 195.577C308.879 192.667 306.52 190.307 303.61 190.307C300.7 190.307 298.341 192.667 298.341 195.577C298.341 198.487 300.7 200.846 303.61 200.846Z" fill="white"/>
</svg>
