<svg width="221" height="56" viewBox="0 0 221 56" fill="none" xmlns="http://www.w3.org/2000/svg">
<path fill-rule="evenodd" clip-rule="evenodd" d="M14.839 0C13.2123 0 12.0395 0.0965735 11.3207 0.28972C10.2614 0.598756 9.39132 1.04943 8.71036 1.64175C8.0294 2.22763 7.45563 3.01309 6.98904 3.99814C6.52877 4.98319 6.21351 6.28693 6.04327 7.90937C5.94869 8.93305 5.89194 11.0577 5.87303 14.2832C5.85411 17.5088 5.69333 19.7879 5.39068 21.1206C5.08803 22.4533 4.47643 23.5028 3.55588 24.2689C2.64162 25.0286 1.45625 25.4278 -0.000244141 25.4664V30.1889C1.45625 30.2275 2.64162 30.6331 3.55588 31.4057C4.47643 32.1783 5.08803 33.2309 5.39068 34.5636C5.69333 35.8964 5.85411 38.301 5.87303 41.7777C5.89194 45.2543 6.01805 47.7556 6.25134 49.2814C6.49094 50.8073 7.00796 52.066 7.80241 53.0575C8.59686 54.0554 9.59939 54.7765 10.81 55.2207C11.6423 55.5297 12.9853 55.6843 14.839 55.6843H16.4279V51.1357H15.5483C13.7513 51.1357 12.5439 50.8749 11.926 50.3534C11.3144 49.8319 10.9329 48.9145 10.7816 47.6011C10.7059 46.8864 10.6681 44.6459 10.6681 40.8796C10.6681 36.7269 10.1984 33.7396 9.25891 31.9175C8.32574 30.0891 6.81881 28.7306 4.7381 27.8421C6.49724 26.973 7.78665 25.9783 8.60632 24.858C9.4323 23.7378 10.0155 22.1443 10.356 20.0776C10.5641 18.7449 10.6681 15.5483 10.6681 10.4879C10.6681 7.97697 10.9897 6.36097 11.6328 5.63989C12.2759 4.91237 13.5811 4.54861 15.5483 4.54861H16.4279V7.92299e-08L14.839 0Z" fill="#FF0000"/>
<path fill-rule="evenodd" clip-rule="evenodd" d="M14.839 0C13.2123 0 12.0395 0.0965735 11.3207 0.28972C10.2614 0.598756 9.39132 1.04943 8.71036 1.64175C8.0294 2.22763 7.45563 3.01309 6.98904 3.99814C6.52877 4.98319 6.21351 6.28693 6.04327 7.90937C5.94869 8.93305 5.89194 11.0577 5.87303 14.2832C5.85411 17.5088 5.69333 19.7879 5.39068 21.1206C5.08803 22.4533 4.47643 23.5028 3.55588 24.2689C2.64162 25.0286 1.45625 25.4278 -0.000244141 25.4664V30.1889C1.45625 30.2275 2.64162 30.6331 3.55588 31.4057C4.47643 32.1783 5.08803 33.2309 5.39068 34.5636C5.69333 35.8964 5.85411 38.301 5.87303 41.7777C5.89194 45.2543 6.01805 47.7556 6.25134 49.2814C6.49094 50.8073 7.00796 52.066 7.80241 53.0575C8.59686 54.0554 9.59939 54.7765 10.81 55.2207C11.6423 55.5297 12.9853 55.6843 14.839 55.6843H16.4279V51.1357H15.5483C13.7513 51.1357 12.5439 50.8749 11.926 50.3534C11.3144 49.8319 10.9329 48.9145 10.7816 47.6011C10.7059 46.8864 10.6681 44.6459 10.6681 40.8796C10.6681 36.7269 10.1984 33.7396 9.25891 31.9175C8.32574 30.0891 6.81881 28.7306 4.7381 27.8421C6.49724 26.973 7.78665 25.9783 8.60632 24.858C9.4323 23.7378 10.0155 22.1443 10.356 20.0776C10.5641 18.7449 10.6681 15.5483 10.6681 10.4879C10.6681 7.97697 10.9897 6.36097 11.6328 5.63989C12.2759 4.91237 13.5811 4.54861 15.5483 4.54861H16.4279V7.92299e-08L14.839 0Z" stroke="black" stroke-miterlimit="10" stroke-linejoin="round"/>
<path fill-rule="evenodd" clip-rule="evenodd" d="M60.5952 0.000549347V4.54916H61.4747C63.2717 4.54916 64.476 4.80669 65.0876 5.32175C65.7055 5.83037 66.0807 6.73172 66.2131 8.02581C66.3076 8.75976 66.3549 11.0099 66.3549 14.7763C66.3549 18.9289 66.7994 21.8809 67.6885 23.6321C68.5775 25.3768 70.1097 26.7804 72.285 27.8427C70.6204 28.5573 69.3341 29.5585 68.4262 30.8461C67.5182 32.1273 66.9129 33.8399 66.6103 35.9838C66.4401 37.2779 66.3549 40.3393 66.3549 45.168C66.3549 47.6982 66.0334 49.3238 65.3902 50.0449C64.7471 50.7724 63.4419 51.1362 61.4747 51.1362H60.5952V55.6848H62.1841C63.8108 55.6848 64.9836 55.5786 65.7023 55.3661C66.7616 55.0571 67.6317 54.6064 68.3127 54.0141C68.9937 53.4282 69.5643 52.646 70.0245 51.6674C70.4911 50.6952 70.8095 49.3882 70.9798 47.7465C71.0744 46.7228 71.1311 44.5982 71.15 41.3726C71.1689 38.1471 71.3297 35.8744 71.6324 34.5545C71.935 33.2283 72.5435 32.1788 73.4577 31.4062C74.3783 30.6337 75.5668 30.228 77.0233 30.1894V25.467C75.5668 25.4283 74.3783 25.0227 73.4577 24.2501C72.5435 23.4776 71.935 22.4313 71.6324 21.1115C71.3297 19.7852 71.1689 17.3838 71.15 13.9071C71.1311 10.4305 71.0019 7.92923 70.7623 6.40337C70.529 4.87751 70.0151 3.6124 69.2206 2.60803C68.4262 1.60367 67.4237 0.889025 66.2131 0.464102C65.3808 0.155067 64.0378 0.000549316 62.1841 0.000549316L60.5952 0.000549347Z" fill="#0000FF"/>
<path fill-rule="evenodd" clip-rule="evenodd" d="M60.5952 0.000549347V4.54916H61.4747C63.2717 4.54916 64.476 4.80669 65.0876 5.32175C65.7055 5.83037 66.0807 6.73172 66.2131 8.02581C66.3076 8.75976 66.3549 11.0099 66.3549 14.7763C66.3549 18.929 66.7995 21.8809 67.6885 23.6321C68.5775 25.3768 70.1097 26.7804 72.285 27.8427C70.6204 28.5573 69.3341 29.5585 68.4262 30.8461C67.5182 32.1273 66.9129 33.8399 66.6103 35.9838C66.4401 37.2779 66.3549 40.3393 66.3549 45.168C66.3549 47.6982 66.0334 49.3238 65.3902 50.0449C64.7471 50.7724 63.4419 51.1362 61.4747 51.1362H60.5952V55.6848H62.1841C63.8108 55.6848 64.9836 55.5786 65.7023 55.3661C66.7616 55.0571 67.6317 54.6064 68.3127 54.0141C68.9937 53.4282 69.5643 52.646 70.0245 51.6674C70.4911 50.6952 70.8095 49.3882 70.9798 47.7465C71.0744 46.7228 71.1311 44.5982 71.15 41.3726C71.1689 38.1471 71.3297 35.8744 71.6324 34.5545C71.935 33.2283 72.5435 32.1788 73.4577 31.4062C74.3783 30.6337 75.5668 30.228 77.0233 30.1894V25.467C75.5668 25.4283 74.3783 25.0227 73.4577 24.2501C72.5435 23.4776 71.935 22.4313 71.6324 21.1115C71.3297 19.7852 71.1689 17.3838 71.15 13.9071C71.1311 10.4305 71.0019 7.92923 70.7623 6.40337C70.529 4.87751 70.0151 3.6124 69.2206 2.60803C68.4262 1.60367 67.4237 0.889025 66.2131 0.464102C65.3808 0.155067 64.0378 0.000549316 62.1841 0.000549316L60.5952 0.000549347Z" stroke="black" stroke-miterlimit="10" stroke-linejoin="round"/>
<path d="M90.9541 50.6365C89.8506 50.3572 88.9599 49.7731 88.2822 48.8843C87.6076 47.9987 87.0636 46.9353 86.6502 45.6941C86.6222 45.3291 86.6144 44.8228 86.6269 44.1753C86.6424 43.5245 86.6766 42.9182 86.7294 42.3564C86.7854 41.7945 86.8414 41.4708 86.8973 41.3851C86.9813 41.3279 87.0232 41.1581 87.0232 40.8756C86.9952 40.7645 87.0154 40.5756 87.0838 40.309C87.1522 40.0392 87.2284 39.7646 87.3123 39.4853C87.4491 39.1456 87.5175 38.871 87.5175 38.6615C87.5175 38.4489 87.5035 38.2854 87.4755 38.1711C87.4755 38.1711 87.5159 38.0807 87.5968 37.8997C87.6807 37.7156 87.7786 37.568 87.8905 37.4569C88.0553 37.2855 88.1299 37.1157 88.1144 36.9474C88.1019 36.7792 88.0957 36.6951 88.0957 36.6951C88.0677 36.5808 88.0957 36.4253 88.1796 36.2285C88.2636 36.0317 88.346 35.8777 88.4268 35.7666C88.4827 35.7095 88.5589 35.5904 88.6553 35.4095C88.7516 35.2254 88.7998 35.1333 88.7998 35.1333C88.7998 35.0476 88.862 34.8223 88.9863 34.4572C89.1107 34.089 89.2552 33.6875 89.42 33.2526C89.5848 32.8145 89.7433 32.413 89.8956 32.0479C90.048 31.6797 90.1661 31.4401 90.25 31.329V31.2433C90.3588 30.9608 90.5096 30.6655 90.7023 30.3576C90.7303 30.2148 90.7987 29.9815 90.9075 29.6577C91.0194 29.3339 91.1453 29.0181 91.2852 28.7102C91.5868 28.0341 91.9645 27.2659 92.4183 26.4057C92.8753 25.5454 93.3649 24.6868 93.8872 23.8297C94.4125 22.9695 94.9161 22.195 95.398 21.5062C95.8829 20.8142 96.3042 20.3 96.6617 19.9635C97.1311 19.427 97.6067 19.0398 98.0885 18.8017C98.5735 18.5604 99.0227 18.6509 99.4362 19.0731C99.6289 19.2731 99.7937 19.5635 99.9304 19.9444C100.07 20.3222 100.132 20.6729 100.117 20.9967C100.105 21.3205 99.9879 21.4967 99.7672 21.5252C99.5745 21.6395 99.3118 21.9569 98.9792 22.4775C98.6497 22.9981 98.2844 23.6107 97.8834 24.3154C97.4824 25.0201 97.0891 25.7454 96.7036 26.4914C96.3182 27.2373 95.9591 27.9055 95.6265 28.4959C95.269 29.3149 94.9379 30.0275 94.6333 30.6338C94.3317 31.2369 94.1809 31.5385 94.1809 31.5385C94.153 31.6242 94.125 31.6956 94.097 31.7527C94.069 31.8067 94.041 31.8622 94.0131 31.9194C93.5996 32.7923 93.2546 33.5891 92.9779 34.3096C92.7043 35.027 92.4292 35.7793 92.1525 36.5665C91.9878 36.7633 91.8914 36.9617 91.8634 37.1617C91.8354 37.3585 91.8215 37.4569 91.8215 37.4569C91.7655 37.4283 91.7235 37.4918 91.6956 37.6474C91.6676 37.7997 91.6132 37.9743 91.5324 38.1711C91.3925 38.2854 91.3085 38.4631 91.2805 38.7044C91.2557 38.9425 91.2432 39.1742 91.2432 39.3996C91.0505 39.9074 90.8702 40.5201 90.7023 41.2375C90.5376 41.9548 90.421 42.6453 90.3526 43.3087C90.2842 43.9689 90.264 44.4832 90.292 44.8514C90.3448 45.3275 90.4738 45.7291 90.679 46.056C90.8873 46.3798 91.1857 46.6401 91.5743 46.8369C91.8759 46.9766 92.151 47.0956 92.3997 47.194C92.6484 47.2924 92.8691 47.3416 93.0618 47.3416C93.2825 47.3702 93.5654 47.3638 93.9105 47.3225C94.2555 47.2781 94.7312 47.2003 95.3374 47.0892H95.2954C95.656 47.0321 96.0353 46.9543 96.4332 46.8559C96.8342 46.7575 97.2135 46.6655 97.5709 46.5798C97.9036 46.5258 98.2207 46.4639 98.5222 46.3941C98.8269 46.3211 99.0616 46.2576 99.2263 46.2036C99.8356 46.0322 100.325 45.8909 100.695 45.7799C101.068 45.6656 101.325 45.6656 101.465 45.7799C101.601 45.8909 101.752 46.102 101.917 46.4131C102.082 46.7242 102.124 47.0051 102.043 47.2559C101.987 47.3987 101.71 47.6876 101.213 48.1225C100.718 48.5605 100.153 48.997 99.5154 49.4319C98.8813 49.8699 98.303 50.173 97.7808 50.3413C97.2274 50.5952 96.4891 50.7714 95.5659 50.8698C94.6426 50.9682 93.7535 50.9888 92.8986 50.9317C92.0437 50.8777 91.3956 50.7793 90.9541 50.6365ZM112.676 47.2178C111.849 47.6939 110.972 47.9685 110.046 48.0415C109.123 48.1114 108.262 47.9844 107.463 47.6606C106.664 47.3368 106.016 46.8512 105.518 46.2036C105.242 45.8354 104.979 45.2497 104.73 44.4467C104.481 43.6436 104.441 42.5532 104.609 41.1756C104.774 39.8773 105.165 38.5663 105.784 37.2426C106.406 35.919 107.172 34.7508 108.083 33.7382C108.994 32.7225 109.987 32.0321 111.063 31.667C111.448 31.5274 111.841 31.4226 112.242 31.3528C112.643 31.2798 113.175 31.2718 113.837 31.329C114.471 31.4147 115.035 31.5766 115.53 31.8146C116.027 32.0527 116.386 32.313 116.607 32.5955C117.048 33.0463 117.337 33.4827 117.474 33.9049C117.614 34.3271 117.67 34.7366 117.642 35.1333C117.505 36.0348 117.112 37.0062 116.462 38.0473C115.816 39.0885 114.913 39.863 113.753 40.3709C113.284 40.5677 112.732 40.6947 112.098 40.7518C111.464 40.8089 110.595 40.7248 109.491 40.4994C108.829 40.3566 108.394 40.4264 108.185 40.7089C107.98 40.9915 107.892 41.5406 107.92 42.3564C107.973 42.8643 108.089 43.3087 108.269 43.6896C108.45 44.0673 108.787 44.3276 109.281 44.4705C109.919 44.5816 110.374 44.5879 110.648 44.4895C110.924 44.3911 111.269 44.2435 111.683 44.0467C111.903 43.907 112.116 43.7531 112.322 43.5848C112.53 43.4134 112.737 43.2436 112.942 43.0754C113.15 42.9071 113.324 42.7802 113.464 42.6945C113.601 42.5834 113.738 42.5135 113.874 42.485C114.014 42.4564 114.153 42.4421 114.289 42.4421C114.594 42.4707 114.883 42.6405 115.157 42.9516C115.433 43.2595 115.614 43.5547 115.698 43.8372C115.698 44.0626 115.559 44.38 115.283 44.7895C115.006 45.1958 114.641 45.618 114.187 46.056C113.733 46.4909 113.229 46.8781 112.676 47.2178ZM112.14 37.795C112.332 37.7093 112.614 37.5125 112.984 37.2045C113.357 36.8935 113.696 36.5618 114 36.2094C114.305 35.8571 114.457 35.5825 114.457 35.3857C114.457 35.0746 114.257 34.8064 113.856 34.581C113.455 34.3556 112.937 34.3144 112.303 34.4572C112.082 34.5112 111.82 34.6651 111.515 34.9191C111.213 35.173 110.91 35.4619 110.606 35.7857C110.304 36.1094 110.043 36.4205 109.822 36.7189C109.601 37.0141 109.449 37.2458 109.365 37.4141C109.477 37.5537 109.698 37.6664 110.027 37.7521C110.36 37.8346 110.725 37.8759 111.123 37.8759C111.524 37.8759 111.863 37.8489 112.14 37.795ZM121.447 48.1034C121.145 48.0463 120.814 47.8558 120.453 47.532C120.096 47.2083 119.773 46.8432 119.484 46.4369C119.194 46.0274 119.008 45.6814 118.924 45.3989C118.924 45.3418 118.89 45.272 118.821 45.1894C118.753 45.1037 118.719 45.0609 118.719 45.0609C118.607 44.9752 118.543 44.6022 118.528 43.9419C118.515 43.2785 118.551 42.5389 118.635 41.7231C118.719 40.9073 118.815 40.2598 118.924 39.7805C119.064 39.3297 119.271 38.7171 119.544 37.9426C119.821 37.168 120.056 36.4697 120.248 35.8475L121.367 33.4002L119.712 32.9336C119.519 32.8764 119.361 32.7637 119.236 32.5955C119.112 32.4273 119.05 32.286 119.05 32.1717C119.05 31.9464 119.173 31.6226 119.418 31.2004C119.667 30.7782 119.847 30.5671 119.959 30.5671C120.096 30.5957 120.351 30.61 120.724 30.61C121.097 30.61 121.462 30.5957 121.82 30.5671C122.18 30.5386 122.401 30.51 122.482 30.4814C122.594 30.4275 122.704 30.3513 122.813 30.2529C122.925 30.1545 123.009 30.0053 123.065 29.8053C123.202 29.4974 123.324 29.2593 123.433 29.0911C123.545 28.9197 123.697 28.6658 123.89 28.3293C124.083 27.9611 124.241 27.6516 124.366 27.4008C124.49 27.1469 124.691 26.7945 124.967 26.3438C125.104 26.147 125.255 25.9073 125.42 25.6248C125.587 25.3423 125.794 25.1026 126.04 24.9058C126.288 24.6804 126.696 24.5186 127.261 24.4202C127.827 24.3218 128.317 24.4551 128.73 24.8201C128.951 25.1026 129.075 25.3709 129.103 25.6248C129.131 25.8787 129.021 26.2025 128.772 26.5961C128.552 27.0754 128.297 27.5056 128.008 27.8865C127.718 28.2642 127.45 28.6927 127.201 29.172C126.759 29.7942 126.675 30.1481 126.949 30.2338C127.226 30.3164 128 30.2592 129.271 30.0624C130.07 29.9196 130.648 30.0037 131.006 30.3148C131.366 30.6259 131.573 31.0195 131.626 31.4956C131.71 32.1717 131.642 32.5812 131.421 32.7241C131.2 32.8637 130.566 32.9336 129.518 32.9336C128.856 33.0478 128.29 33.1113 127.821 33.124C127.352 33.1367 127.007 33.1431 126.786 33.1431C126.428 33.1716 126.194 33.1859 126.082 33.1859C125.973 33.1859 125.808 33.2145 125.587 33.2716C125.367 33.3288 125.208 33.4208 125.112 33.5478C125.015 33.6748 124.911 33.8509 124.799 34.0763C124.691 34.1874 124.526 34.4826 124.305 34.9619C124.084 35.4412 123.808 35.9618 123.475 36.5237C123.09 37.7077 122.765 38.8425 122.501 39.9281C122.239 41.0105 122.012 42.0882 121.82 43.1611C121.739 43.6944 121.761 44.0816 121.885 44.3229C122.009 44.5609 122.361 44.7085 122.939 44.7657C123.243 44.7942 123.685 44.7879 124.263 44.7466C124.841 44.7022 125.323 44.6244 125.709 44.5133C126.013 44.3705 126.33 44.2229 126.66 44.0705C126.993 43.915 127.297 43.7515 127.574 43.5801C127.823 43.4404 128.07 43.2928 128.315 43.1373C128.564 42.9817 128.688 42.904 128.688 42.904C128.828 42.6786 129.029 42.7151 129.29 43.0135C129.551 43.3087 129.737 43.6245 129.849 43.961C129.849 44.3006 129.779 44.7038 129.64 45.1704C129.503 45.6338 128.993 46.1179 128.11 46.6226C126.87 47.413 125.628 47.8923 124.384 48.0606C123.144 48.2288 122.165 48.2431 121.447 48.1034ZM137.092 29.7244C136.816 29.7529 136.477 29.7529 136.076 29.7244C135.675 29.6958 135.434 29.4276 135.353 28.9197C135.325 28.7229 135.352 28.5404 135.432 28.3721C135.516 28.2007 135.628 28.0166 135.768 27.8198C136.098 27.258 136.475 26.639 136.901 25.9629C137.33 25.2867 137.615 24.7376 137.755 24.3154C137.755 24.2011 137.767 24.1027 137.792 24.0202C137.326 24.1027 136.844 23.9329 136.346 23.5107C135.821 23.0028 135.675 22.3347 135.908 21.5062C136.144 20.6745 136.621 20.0047 137.34 19.4969C137.837 19.189 138.305 19.0207 138.743 18.9921C139.185 18.9636 139.654 19.062 140.151 19.2874C140.621 19.5699 141.006 20 141.308 20.5777C141.612 21.1522 141.696 21.6236 141.56 21.9918C141.476 22.6394 141.33 23.2457 141.121 23.8107C140.916 24.3725 140.731 24.9201 140.566 25.4534C140.402 26.0755 140.063 26.731 139.55 27.4198C139.04 28.1087 138.552 28.7356 138.086 29.3006C138.111 29.4117 138.027 29.4815 137.834 29.5101C137.641 29.5387 137.394 29.6101 137.092 29.7244ZM139.243 48.3129C138.304 47.9193 137.621 47.5051 137.192 47.0702C136.766 46.6321 136.595 46.2433 136.679 45.9036C136.731 45.7354 136.826 45.5815 136.963 45.4418C137.103 45.2989 137.414 45.2355 137.896 45.2513C138.381 45.264 139.133 45.3974 140.153 45.6513C140.457 45.6513 140.76 45.637 141.062 45.6084C141.366 45.5799 141.649 45.5386 141.911 45.4846C142.172 45.4275 142.386 45.3561 142.554 45.2704C142.691 45.2164 142.731 45.1402 142.675 45.0418C142.622 44.9403 142.526 44.8339 142.386 44.7228C142.277 44.5831 142.153 44.4927 142.013 44.4514C141.876 44.407 141.752 44.3848 141.64 44.3848C141.587 44.2451 141.471 44.1054 141.29 43.9658C141.11 43.8229 140.896 43.6674 140.647 43.4991C140.041 42.9912 139.489 42.5405 138.991 42.1469C138.497 41.7501 138.304 41.4533 138.413 41.2565C138.413 41.1454 138.413 41.0835 138.413 41.0708C138.413 41.0549 138.413 41.047 138.413 41.047C138.221 41.047 138.042 40.7724 137.877 40.2233C137.712 39.6741 137.63 39.1742 137.63 38.7234C137.63 38.1584 137.746 37.595 137.98 37.0331C138.213 36.4681 138.516 35.9333 138.889 35.4285C139.262 34.9207 139.641 34.4699 140.027 34.0763C140.552 33.5684 141.112 33.0685 141.705 32.5765C142.299 32.0813 142.947 31.6369 143.65 31.2433C144.352 30.8497 145.131 30.5402 145.986 30.3148C146.371 30.2291 146.813 30.1862 147.31 30.1862C147.808 30.1862 148.167 30.2577 148.387 30.4005C148.608 30.2577 148.883 30.2926 149.213 30.5052C149.545 30.7147 149.876 31.0036 150.206 31.3718C150.539 31.7369 150.787 32.1019 150.952 32.4669C150.952 32.8066 150.944 33.224 150.929 33.7192C150.916 34.2112 150.882 34.6397 150.826 35.0048C150.773 35.3698 150.651 35.5523 150.458 35.5523C150.458 35.5523 150.422 35.5603 150.351 35.5761C150.282 35.5888 150.248 35.6666 150.248 35.8095C150.248 36.0888 150.041 36.4126 149.628 36.7808C149.102 37.1458 148.605 37.441 148.136 37.6664C147.669 37.8918 147.312 37.9061 147.063 37.7093C146.898 37.595 146.746 37.4823 146.606 37.3712C146.469 37.2569 146.345 37.1157 146.233 36.9474C146.233 36.9474 146.199 36.8839 146.131 36.757C146.062 36.63 146.028 36.511 146.028 36.3999C146.028 36.2856 146.068 36.1793 146.149 36.0809C146.233 35.9825 146.275 35.9333 146.275 35.9333C146.664 35.5682 146.961 35.2317 147.166 34.9238C147.374 34.6128 147.519 34.3382 147.599 34.1001C147.683 33.8589 147.725 33.6668 147.725 33.524C147.725 33.3557 147.691 33.251 147.623 33.2097C147.554 33.1653 147.41 33.1431 147.189 33.1431C147.049 33.1431 146.751 33.2558 146.294 33.4811C145.84 33.7065 145.364 33.9827 144.867 34.3096C144.373 34.6334 143.987 34.9207 143.71 35.1714C143.602 35.3714 143.525 35.5 143.482 35.5571C143.442 35.6111 143.365 35.638 143.253 35.638C143.253 35.5269 143.185 35.5412 143.048 35.6809C142.912 35.8206 142.747 36.0174 142.554 36.2713C142.361 36.5253 142.167 36.7935 141.971 37.076C141.778 37.3585 141.628 37.5839 141.519 37.7521C141.491 38.0061 141.429 38.2394 141.332 38.452C141.236 38.6615 141.202 38.879 141.23 39.1043C141.258 39.3837 141.394 39.6503 141.64 39.9043C141.889 40.1582 142.248 40.482 142.717 40.8756C143.684 41.6089 144.408 42.1866 144.89 42.6087C145.372 43.0309 145.709 43.369 145.902 43.6229C146.098 43.8769 146.222 44.1308 146.275 44.3848C146.745 45.2577 146.799 46.0116 146.438 46.6464C146.081 47.2781 145.531 47.7638 144.788 48.1034C144.511 48.2431 144.028 48.3764 143.337 48.5034C142.647 48.6303 141.923 48.6859 141.164 48.67C140.406 48.6573 139.766 48.5383 139.243 48.3129ZM162.169 50.4698C161.836 50.4698 161.559 50.2857 161.339 49.9175C161.174 49.7493 160.995 49.4811 160.802 49.1128C160.61 48.7478 160.547 48.151 160.616 47.3225C160.684 46.4909 160.981 45.272 161.506 43.6658C161.78 42.5961 161.999 41.8152 162.164 41.3232C162.332 40.828 162.416 40.4677 162.416 40.2423C162.416 39.9344 162.45 39.6757 162.518 39.4662C162.587 39.2535 162.621 39.0472 162.621 38.8472C162.786 38.8472 162.95 38.6933 163.115 38.3854C163.283 38.0743 163.421 37.6521 163.53 37.1188C163.642 36.6395 163.746 36.2523 163.843 35.9571C163.939 35.6587 163.987 35.4539 163.987 35.3428C164.124 35.1175 164.268 34.7651 164.421 34.2858C164.573 33.8065 164.814 33.2288 165.144 32.5527C165.364 31.7083 165.613 30.829 165.89 29.9148C166.166 28.9975 166.449 28.1372 166.738 27.3341C167.027 26.5311 167.268 25.9041 167.461 25.4534C167.766 24.5805 168 23.9678 168.165 23.6155C168.33 23.2631 168.33 23.0314 168.165 22.9203C167.972 22.7806 167.882 22.422 167.895 21.8442C167.91 21.2665 168.167 20.7666 168.664 20.3444C168.966 19.9762 169.351 19.7159 169.821 19.5635C170.29 19.408 170.828 19.3302 171.434 19.3302C172.043 19.3302 172.677 19.3572 173.336 19.4112C173.834 19.4397 174.365 19.454 174.931 19.454C175.497 19.454 175.848 19.454 175.985 19.454C176.234 19.5683 176.537 19.6968 176.894 19.8397C177.255 19.9793 177.58 20.1127 177.869 20.2396C178.158 20.3634 178.303 20.4682 178.303 20.5539C178.303 20.7221 178.365 20.8285 178.489 20.8729C178.613 20.9142 178.746 20.9491 178.885 20.9777C179.078 20.9777 179.395 21.1538 179.837 21.5062C180.278 21.8585 180.726 22.2807 181.18 22.7727C181.637 23.2647 181.961 23.7504 182.154 24.2297C182.375 24.709 182.56 25.1598 182.709 25.5819C182.861 26.0041 182.869 26.6104 182.732 27.4008C182.704 27.823 182.642 28.2452 182.546 28.6673C182.45 29.0895 182.345 29.3704 182.233 29.5101C182.069 29.6244 181.916 29.7656 181.776 29.9339C181.64 30.1021 181.571 30.2577 181.571 30.4005C181.571 30.5116 181.461 30.7862 181.24 31.2242C181.02 31.6591 180.743 32.1511 180.41 32.7003C180.081 33.2494 179.723 33.7922 179.338 34.3287C178.952 34.8651 178.593 35.2873 178.261 35.5952C177.903 36.0459 177.483 36.4697 177.002 36.8665C176.52 37.2601 176.084 37.5823 175.696 37.8331C174.981 38.1727 174.16 38.4981 173.234 38.8091C172.311 39.117 171.421 39.3631 170.567 39.5472C169.712 39.7313 169.022 39.809 168.496 39.7805C167.697 39.8916 167.173 39.9963 166.925 40.0947C166.676 40.1931 166.497 40.4407 166.389 40.8375C166.249 41.2025 166.117 41.5819 165.992 41.9755C165.868 42.3691 165.806 42.6516 165.806 42.823C165.753 42.9341 165.636 43.2436 165.456 43.7515C165.276 44.2594 165.067 44.8514 164.831 45.5275C164.598 46.2036 164.385 46.8797 164.192 47.5559C164 48.2288 163.849 48.8049 163.74 49.2842C163.628 49.681 163.4 49.9778 163.054 50.1746C162.709 50.3714 162.414 50.4698 162.169 50.4698ZM168.044 36.357C168.153 36.4681 168.51 36.4824 169.116 36.3999C169.726 36.3142 170.458 36.1031 171.313 35.7666C171.863 35.5698 172.421 35.3301 172.987 35.0476C173.552 34.7651 174.098 34.4556 174.623 34.1192C174.897 33.9192 175.186 33.6716 175.491 33.3764C175.795 33.0812 176.223 32.5812 176.773 31.8765C176.857 31.7369 177.002 31.4639 177.207 31.0576C177.415 30.6481 177.602 30.2592 177.766 29.891C178.015 29.4974 178.264 28.9133 178.512 28.1388C178.761 27.3643 178.815 26.7231 178.676 26.2152C178.539 25.482 178.264 24.8693 177.85 24.3773C177.437 23.8853 176.913 23.5266 176.279 23.3012C175.669 23.187 175.164 23.1171 174.763 23.0917C174.365 23.0632 173.932 23.0901 173.462 23.1727C173.021 23.3155 172.71 23.5139 172.53 23.7678C172.353 24.0186 172.098 24.5535 171.765 25.3724C171.572 25.7661 171.296 26.3089 170.935 27.0008C170.577 27.6897 170.276 28.3864 170.03 29.0911C169.533 30.9481 169.098 32.3701 168.725 33.3573C168.352 34.3414 168.111 34.9889 168.002 35.3C168.03 35.6111 168.016 35.8301 167.96 35.9571C167.904 36.084 167.932 36.2174 168.044 36.357ZM180.247 47.1749C180.138 46.9496 179.897 46.7242 179.524 46.4988C179.151 46.2734 178.965 46.1036 178.965 45.9894C178.965 45.8783 178.903 45.7037 178.778 45.4656C178.654 45.2244 178.537 45.0466 178.429 44.9323C178.292 44.7641 178.334 44.3498 178.555 43.6896C178.775 43.0262 179.106 42.2167 179.548 41.2613C179.989 40.3026 180.471 39.3297 180.993 38.3425C181.214 38.1172 181.435 37.8219 181.655 37.4569C181.876 37.0887 182.042 36.849 182.154 36.7379C182.154 36.6237 182.195 36.5173 182.276 36.4189C182.36 36.3205 182.456 36.2713 182.565 36.2713L182.896 35.5952C182.952 35.4841 183.124 35.2603 183.413 34.9238C183.702 34.5842 184.054 34.2096 184.467 33.8001C184.884 33.3907 185.305 33.0034 185.731 32.6384C186.16 32.2733 186.511 32.0051 186.785 31.8337C187.366 31.4401 187.966 31.2575 188.585 31.2861C189.206 31.3147 189.738 31.5115 190.179 31.8765C190.263 31.9622 190.45 32.1321 190.739 32.386C191.028 32.6399 191.359 32.9225 191.732 33.2335C192.105 33.5414 192.429 33.8224 192.702 34.0763L194.236 35.4714L193.532 37.5807C193.175 38.7076 193.084 39.6948 193.262 40.5423C193.442 41.3867 193.697 42.1183 194.026 42.7373C194.166 43.0452 194.353 43.2849 194.586 43.4563C194.822 43.6245 195.133 43.7372 195.519 43.7943C195.739 43.8229 195.946 43.907 196.139 44.0467C196.331 44.1864 196.428 44.4117 196.428 44.7228C196.428 45.3989 196.31 45.8846 196.073 46.1798C195.84 46.475 195.587 46.6512 195.313 46.7083C194.403 46.8226 193.532 46.7242 192.702 46.4131C191.875 46.102 191.131 45.2989 190.469 44.0038C190.36 43.8356 190.215 43.5198 190.035 43.0563C189.855 42.5897 189.752 42.2866 189.727 42.1469C189.615 42.2866 189.469 42.4627 189.289 42.6754C189.112 42.8849 188.939 43.0738 188.771 43.242C186.813 45.2704 185.137 46.5877 183.744 47.194C182.352 47.8003 181.186 47.7939 180.247 47.1749ZM182.523 43.6658C182.719 43.6944 183.023 43.5896 183.437 43.3515C183.85 43.1103 184.402 42.7087 185.092 42.1469C186.028 41.3279 186.799 40.6518 187.405 40.1185C188.014 39.5821 188.608 38.8917 189.186 38.0473L190.095 36.5237C189.822 35.8761 189.575 35.4539 189.354 35.2571C189.133 35.0603 188.913 34.9619 188.692 34.9619C188.331 34.9619 187.902 35.1952 187.405 35.6619C186.911 36.1253 186.353 36.8014 185.731 37.6902C185.112 38.5758 184.416 39.6805 183.642 41.0042C183.284 41.6231 183.008 42.2215 182.812 42.7992C182.619 43.3769 182.523 43.6658 182.523 43.6658ZM200.647 48.0177C199.985 48.0177 199.413 47.659 198.931 46.9416C198.449 46.2242 198.152 45.3577 198.04 44.3419C198.068 44.1165 198.103 43.7928 198.143 43.3706C198.186 42.9484 198.236 42.5119 198.292 42.0612C198.401 41.5247 198.552 40.8343 198.744 39.99C198.937 39.1456 199.144 38.2949 199.365 37.4379C199.585 36.5776 199.778 35.8301 199.943 35.1952C200.111 34.5604 200.209 34.1874 200.237 34.0763C200.401 33.6795 200.773 33.5811 201.351 33.7811C201.932 33.9779 202.43 34.4001 202.843 35.0476C203.008 35.273 203.111 35.5412 203.151 35.8523C203.195 36.1602 203.154 36.611 203.03 37.2045C202.905 37.795 202.677 38.6679 202.344 39.8233C202.043 40.9502 201.816 41.858 201.663 42.5469C201.511 43.2357 201.449 43.961 201.477 44.7228C201.365 46.0179 201.253 46.8988 201.141 47.3654C201.032 47.8288 200.868 48.0463 200.647 48.0177ZM204.457 30.4814C204.345 30.5671 204.241 30.6036 204.144 30.5909C204.048 30.5751 203.889 30.4973 203.669 30.3576C203.476 30.3291 203.235 30.1958 202.946 29.9577C202.657 29.7164 202.408 29.4688 202.2 29.2149C201.995 28.961 201.892 28.807 201.892 28.753C201.864 28.4705 201.884 28.0198 201.953 27.4008C202.021 26.7786 202.172 26.193 202.405 25.6438C202.641 25.0947 202.966 24.8058 203.379 24.7773C203.491 24.7773 203.732 24.8344 204.102 24.9487C204.475 25.0598 204.869 25.201 205.282 25.3724C205.503 25.7946 205.709 26.3438 205.902 27.0199C206.098 27.696 206.12 28.3515 205.967 28.9864C205.815 29.618 205.312 30.1164 204.457 30.4814ZM209.13 47.1749C209.05 47.2035 208.877 47.1892 208.613 47.1321C208.352 47.075 208.089 47.0051 207.825 46.9226C207.564 46.8369 207.407 46.7655 207.354 46.7083C207.242 46.5972 207.09 46.3941 206.897 46.0989C206.704 45.8005 206.6 45.3989 206.584 44.8942C206.572 44.3863 206.8 43.7801 207.27 43.0754C207.407 42.7929 207.571 42.3707 207.764 41.8088C207.96 41.2438 208.16 40.6455 208.366 40.0138C208.574 39.3789 208.767 38.8076 208.944 38.2997C209.124 37.7918 209.256 37.4394 209.34 37.2426C209.393 36.7633 209.371 36.4189 209.275 36.2094C209.179 35.9967 208.938 35.8761 208.552 35.8475C208.275 35.8475 208.061 35.7491 207.909 35.5523C207.759 35.3555 207.685 35.0032 207.685 34.4953C207.738 34.1017 207.84 33.7573 207.993 33.4621C208.145 33.1669 208.359 32.9209 208.636 32.7241C208.913 32.5812 209.264 32.4828 209.69 32.4289C210.119 32.3717 210.54 32.3574 210.954 32.386C211.367 32.4146 211.656 32.513 211.821 32.6812C212.014 32.7923 212.172 33.0383 212.297 33.4192C212.421 33.8001 212.523 34.1874 212.604 34.581C212.688 34.9746 212.744 35.2714 212.772 35.4714C213.049 35.246 213.36 34.9286 213.705 34.5191C214.05 34.1096 214.401 33.7224 214.759 33.3573C215.2 33.0463 215.724 32.7288 216.33 32.405C216.939 32.0813 217.381 31.9194 217.654 31.9194C217.959 31.9194 218.332 32.067 218.773 32.3622C219.215 32.6574 219.49 32.9177 219.599 33.1431C219.876 33.6224 220.076 34.1239 220.2 34.6477C220.325 35.1683 220.235 35.6253 219.93 36.019C219.656 36.384 219.271 36.7427 218.773 37.095C218.276 37.4474 217.656 37.5537 216.913 37.4141C216.745 37.3569 216.571 37.1458 216.391 36.7808C216.213 36.4126 216.111 36.1443 216.083 35.9761C216.083 35.8904 215.965 35.9682 215.729 36.2094C215.495 36.4475 215.22 36.7363 214.903 37.076C214.586 37.4125 214.289 37.722 214.013 38.0045C213.546 38.5949 213.05 39.398 212.525 40.4137C212 41.4263 211.379 42.6516 210.664 44.0895C210.332 44.7942 210.055 45.464 209.834 46.0989C209.614 46.7305 209.379 47.0892 209.13 47.1749Z" fill="#434343"/>
<path fill-rule="evenodd" clip-rule="evenodd" d="M56.8394 25.4726L56.905 25.477L57.0276 25.4994L57.1371 25.5485L57.2378 25.6202L57.3253 25.7051L57.3909 25.8079L57.4392 25.9241L57.4655 26.0491V26.1119V45.5089V45.5714L57.4392 45.6966L57.3909 45.8129L57.3253 45.9157L57.2378 46.0006L57.1371 46.072L57.0276 46.1213L56.905 46.1482H20.0861L19.9634 46.1213L19.854 46.072L19.7533 46.0006L19.6657 45.9157L19.6002 45.8129L19.5519 45.6966L19.5256 45.5714V45.5089V26.1119V26.0491L19.5519 25.9241L19.6002 25.8079L19.6657 25.7051L19.7533 25.6202L19.854 25.5485L19.9634 25.4994L20.0861 25.477L20.1517 25.4726H56.8394ZM20.0161 6.28564L19.9022 6.29012L19.6877 6.33492L19.4907 6.41982L19.3154 6.54055L19.1667 6.69243L19.0528 6.87118L18.9697 7.07255L18.9258 7.29141L18.9214 7.40318L18.9258 7.51944L18.9697 7.73851L19.0528 7.93966L19.1667 8.11841L19.3154 8.27051L19.4907 8.38676L19.6877 8.47166L19.9022 8.51645L20.0161 8.52093H52.7679L52.873 8.52541L53.0656 8.56552L53.245 8.64145L53.4025 8.75323L53.5339 8.89188L53.6434 9.05293L53.7178 9.23169L53.7572 9.43284L53.7616 9.53566V12.352L53.7572 12.4548L53.7178 12.656L53.6434 12.8347L53.5339 12.9958L53.4025 13.1342L53.245 13.246L53.0656 13.3221L52.873 13.3622L52.7679 13.3667H40.4175L40.0979 13.4026L39.7871 13.4651L39.4894 13.5634L39.2049 13.6841L38.9333 13.8362L38.6795 14.0105L38.443 14.2072L38.2284 14.4307L38.0314 14.6722L37.8608 14.9314L37.7162 15.204L37.5936 15.4992L37.5017 15.8032L37.4361 16.1206L37.4054 16.4469L37.401 16.6123V18.6731H36.9151L36.8275 18.6775L36.6525 18.7134L36.4948 18.7804L36.3546 18.8787L36.2322 18.9994L36.1402 19.147L36.0701 19.3079L36.0352 19.4821V19.5762V22.4909H20.1517L19.9678 22.4954L19.6133 22.531L19.2674 22.6069L18.9346 22.7098L18.615 22.8484L18.3129 23.0139L18.0284 23.2106L17.7658 23.4339L17.5249 23.6799L17.3104 23.9482L17.1178 24.2343L16.9559 24.5427L16.8201 24.8691L16.715 25.2087L16.645 25.5619L16.6099 25.9286L16.6055 26.1119V45.5089L16.6099 45.6966L16.645 46.0586L16.715 46.4118L16.8201 46.7516L16.9559 47.078L17.1178 47.3865L17.3104 47.6725L17.5249 47.9406L17.7658 48.1866L18.0284 48.4101L18.3129 48.6068L18.615 48.7721L18.9346 48.9108L19.2674 49.0136L19.6133 49.0895L19.9678 49.1254L20.1517 49.1298H56.8394L57.0232 49.1254L57.3777 49.0895L57.7237 49.0136L58.0608 48.9108L58.3761 48.7721L58.6782 48.6068L58.9627 48.4101L59.2253 48.1866L59.4661 47.9406L59.6807 47.6725L59.8733 47.3865L60.0352 47.078L60.171 46.7516L60.2761 46.4118L60.346 46.0586L60.3811 45.6966L60.3855 45.5089V26.1119L60.3811 25.9286L60.346 25.5619L60.2761 25.2087L60.171 24.8691L60.0352 24.5427L59.8733 24.2343L59.6807 23.9482L59.4661 23.6799L59.2253 23.4339L58.9627 23.2106L58.6782 23.0139L58.3761 22.8484L58.0565 22.7098L57.7237 22.6069L57.3777 22.531L57.0232 22.4954L56.8394 22.4909H40.9603V19.5762L40.9559 19.4821L40.921 19.3079L40.8508 19.147L40.7589 18.9994L40.6365 18.8787L40.4963 18.7804L40.3386 18.7134L40.1635 18.6775L40.076 18.6731H39.5901V16.6123L39.5945 16.5094L39.6337 16.3128L39.7083 16.1295L39.8178 15.9685L39.949 15.8298L40.1067 15.7227L40.2861 15.6466L40.4787 15.602H52.7679L52.9342 15.5975L53.2538 15.5662L53.5646 15.4992L53.8623 15.4053L54.1468 15.2801L54.4182 15.1325L54.6722 14.9538L54.9087 14.7571L55.1233 14.538L55.3202 14.2965L55.4909 14.0374L55.6355 13.7601L55.7579 13.4695L55.8498 13.1656L55.9156 12.8482L55.9461 12.5173L55.9505 12.352V9.53566L55.9461 9.36586L55.9156 9.03949L55.8498 8.72209L55.7579 8.41812L55.6355 8.12737L55.4909 7.85028L55.3202 7.59111L55.1233 7.34964L54.9087 7.13057L54.6722 6.9339L54.4182 6.75514L54.1468 6.60753L53.8623 6.48232L53.5646 6.38846L53.2538 6.32148L52.9342 6.29012L52.7679 6.28564H20.0161Z" fill="black"/>
<path fill-rule="evenodd" clip-rule="evenodd" d="M22.2006 27.4636L22.0823 27.4905L21.9773 27.5353L21.881 27.6023L21.8022 27.6827L21.7366 27.781L21.6927 27.8883L21.6708 28.0091L21.6664 28.0673V31.4201L21.6708 31.4826L21.6927 31.6034L21.7366 31.7106L21.8022 31.809L21.881 31.8894L21.9773 31.9564L22.0823 32.0012L22.2006 32.0236L22.262 32.0281H25.5453L25.6067 32.0236L25.7206 32.0012L25.8257 31.9564L25.922 31.8894L26.0007 31.809L26.0663 31.7106L26.1102 31.6034L26.1365 31.4826V31.4201V28.0673V28.0091L26.1102 27.8883L26.0663 27.781L26.0007 27.6827L25.922 27.6023L25.8257 27.5353L25.7206 27.4905L25.6067 27.4636H22.2006Z" fill="black"/>
<path fill-rule="evenodd" clip-rule="evenodd" d="M29.4944 27.4636L29.3806 27.4905L29.2755 27.5353L29.1792 27.6023L29.1004 27.6827L29.0346 27.781L28.991 27.8883L28.9647 28.0091V28.0673V31.4201V31.4826L28.991 31.6034L29.0346 31.7106L29.1004 31.809L29.1792 31.8894L29.2755 31.9564L29.3806 32.0012L29.4944 32.0236L29.5556 32.0281H32.8392L32.9004 32.0236L33.0186 32.0012L33.1237 31.9564L33.22 31.8894L33.2988 31.809L33.3646 31.7106L33.4082 31.6034L33.4302 31.4826L33.4346 31.4201V28.0673L33.4302 28.0091L33.4082 27.8883L33.3646 27.781L33.2988 27.6827L33.22 27.6023L33.1237 27.5353L33.0186 27.4905L32.9004 27.4636H29.4944Z" fill="black"/>
<path fill-rule="evenodd" clip-rule="evenodd" d="M36.7924 27.4636L36.6786 27.4905L36.5691 27.5353L36.4772 27.6023L36.3941 27.6827L36.3329 27.781L36.2846 27.8883L36.2627 28.0091V28.0673V31.4201V31.4826L36.2846 31.6034L36.3329 31.7106L36.3941 31.809L36.4772 31.8894L36.5691 31.9564L36.6786 32.0012L36.7924 32.0236L36.8539 32.0281H40.1372L40.1986 32.0236L40.3125 32.0012L40.4219 31.9564L40.5138 31.8894L40.597 31.809L40.6582 31.7106L40.7064 31.6034L40.7284 31.4826V31.4201V28.0673V28.0091L40.7064 27.8883L40.6582 27.781L40.597 27.6827L40.5138 27.6023L40.4219 27.5353L40.3125 27.4905L40.1986 27.4636H36.7924Z" fill="black"/>
<path fill-rule="evenodd" clip-rule="evenodd" d="M44.0907 27.4636L43.9724 27.4905L43.8674 27.5353L43.7711 27.6023L43.6923 27.6827L43.6265 27.781L43.5828 27.8883L43.5609 28.0091L43.5565 28.0673V31.4201L43.5609 31.4826L43.5828 31.6034L43.6265 31.7106L43.6923 31.809L43.7711 31.8894L43.8674 31.9564L43.9724 32.0012L44.0907 32.0236L44.1519 32.0281H47.4354L47.4966 32.0236L47.6105 32.0012L47.7156 31.9564L47.8119 31.8894L47.8906 31.809L47.9564 31.7106L48.0001 31.6034L48.0264 31.4826V31.4201V28.0673V28.0091L48.0001 27.8883L47.9564 27.781L47.8906 27.6827L47.8119 27.6023L47.7156 27.5353L47.6105 27.4905L47.4966 27.4636H44.0907Z" fill="black"/>
<path fill-rule="evenodd" clip-rule="evenodd" d="M51.3843 27.4636L51.2705 27.4905L51.1654 27.5353L51.0691 27.6023L50.9903 27.6827L50.9247 27.781L50.8809 27.8883L50.8546 28.0091V28.0673V31.4201V31.4826L50.8809 31.6034L50.9247 31.7106L50.9903 31.809L51.0691 31.8894L51.1654 31.9564L51.2705 32.0012L51.3843 32.0236L51.4457 32.0281H54.7291L54.7905 32.0236L54.9087 32.0012L55.0138 31.9564L55.1101 31.8894L55.1889 31.809L55.2545 31.7106L55.2983 31.6034L55.3203 31.4826L55.3247 31.4201V28.0673L55.3203 28.0091L55.2983 27.8883L55.2545 27.781L55.1889 27.6827L55.1101 27.6023L55.0138 27.5353L54.9087 27.4905L54.7905 27.4636H51.3843Z" fill="black"/>
<path fill-rule="evenodd" clip-rule="evenodd" d="M22.262 33.4227L22.2006 33.4271L22.0823 33.4495L21.9773 33.4988L21.881 33.5613L21.8022 33.6417L21.7366 33.7401L21.6927 33.8474L21.6708 33.9681L21.6664 34.0306V37.3834L21.6708 37.4461L21.6927 37.5624L21.7366 37.6697L21.8022 37.768L21.881 37.8484L21.9773 37.9154L22.0823 37.9602L22.2006 37.9869H25.6067L25.7206 37.9602L25.8257 37.9154L25.922 37.8484L26.0007 37.768L26.0663 37.6697L26.1102 37.5624L26.1365 37.4461V37.3834V34.0306V33.9681L26.1102 33.8474L26.0663 33.7401L26.0007 33.6417L25.922 33.5613L25.8257 33.4988L25.7206 33.4495L25.6067 33.4271L25.5453 33.4227H22.262Z" fill="black"/>
<path fill-rule="evenodd" clip-rule="evenodd" d="M29.5556 33.4227L29.4944 33.4271L29.3806 33.4495L29.2755 33.4988L29.1792 33.5613L29.1004 33.6417L29.0346 33.7401L28.991 33.8474L28.9647 33.9681V34.0306V37.3834V37.4461L28.991 37.5624L29.0346 37.6697L29.1004 37.768L29.1792 37.8484L29.2755 37.9154L29.3806 37.9602L29.4944 37.9869H32.9004L33.0186 37.9602L33.1237 37.9154L33.22 37.8484L33.2988 37.768L33.3646 37.6697L33.4082 37.5624L33.4302 37.4461L33.4346 37.3834V34.0306L33.4302 33.9681L33.4082 33.8474L33.3646 33.7401L33.2988 33.6417L33.22 33.5613L33.1237 33.4988L33.0186 33.4495L32.9004 33.4271L32.8392 33.4227H29.5556Z" fill="black"/>
<path fill-rule="evenodd" clip-rule="evenodd" d="M36.8539 33.4227L36.7924 33.4271L36.6786 33.4495L36.5691 33.4988L36.4772 33.5613L36.3941 33.6417L36.3329 33.7401L36.2846 33.8474L36.2627 33.9681V34.0306V37.3834V37.4461L36.2846 37.5624L36.3329 37.6697L36.3941 37.768L36.4772 37.8484L36.5691 37.9154L36.6786 37.9602L36.7924 37.9869H40.1986L40.3125 37.9602L40.4219 37.9154L40.5138 37.8484L40.597 37.768L40.6582 37.6697L40.7064 37.5624L40.7284 37.4461V37.3834V34.0306V33.9681L40.7064 33.8474L40.6582 33.7401L40.597 33.6417L40.5138 33.5613L40.4219 33.4988L40.3125 33.4495L40.1986 33.4271L40.1372 33.4227H36.8539Z" fill="black"/>
<path fill-rule="evenodd" clip-rule="evenodd" d="M44.1519 33.4227L44.0907 33.4271L43.9724 33.4495L43.8674 33.4988L43.7711 33.5613L43.6923 33.6417L43.6265 33.7401L43.5828 33.8474L43.5609 33.9681L43.5565 34.0306V37.3834L43.5609 37.4461L43.5828 37.5624L43.6265 37.6697L43.6923 37.768L43.7711 37.8484L43.8674 37.9154L43.9724 37.9602L44.0907 37.9869H47.4966L47.6105 37.9602L47.7156 37.9154L47.8119 37.8484L47.8906 37.768L47.9564 37.6697L48.0001 37.5624L48.0264 37.4461V37.3834V34.0306V33.9681L48.0001 33.8474L47.9564 33.7401L47.8906 33.6417L47.8119 33.5613L47.7156 33.4988L47.6105 33.4495L47.4966 33.4271L47.4354 33.4227H44.1519Z" fill="black"/>
<path fill-rule="evenodd" clip-rule="evenodd" d="M51.4457 33.4227L51.3843 33.4271L51.2705 33.4495L51.1654 33.4988L51.0691 33.5613L50.9903 33.6417L50.9247 33.7401L50.8809 33.8474L50.8546 33.9681V34.0306V37.3834V37.4461L50.8809 37.5624L50.9247 37.6697L50.9903 37.768L51.0691 37.8484L51.1654 37.9154L51.2705 37.9602L51.3843 37.9869H54.7905L54.9087 37.9602L55.0138 37.9154L55.1101 37.8484L55.1889 37.768L55.2545 37.6697L55.2983 37.5624L55.3203 37.4461L55.3247 37.3834V34.0306L55.3203 33.9681L55.2983 33.8474L55.2545 33.7401L55.1889 33.6417L55.1101 33.5613L55.0138 33.4988L54.9087 33.4495L54.7905 33.4271L54.7291 33.4227H51.4457Z" fill="black"/>
<path fill-rule="evenodd" clip-rule="evenodd" d="M22.2006 39.3862L22.0823 39.4131L21.9773 39.4577L21.881 39.5204L21.8022 39.6053L21.7366 39.6992L21.6927 39.8109L21.6708 39.9272L21.6664 39.9897V43.3425L21.6708 43.405L21.6927 43.5257L21.7366 43.633L21.8022 43.7269L21.881 43.812L21.9773 43.8745L22.0823 43.9238L22.2006 43.946L22.262 43.9505H25.5453L25.6067 43.946L25.7206 43.9238L25.8257 43.8745L25.922 43.812L26.0007 43.7269L26.0663 43.633L26.1102 43.5257L26.1365 43.405V43.3425V39.9897V39.9272L26.1102 39.8109L26.0663 39.6992L26.0007 39.6053L25.922 39.5204L25.8257 39.4577L25.7206 39.4131L25.6067 39.3862H22.2006Z" fill="black"/>
<path fill-rule="evenodd" clip-rule="evenodd" d="M29.4944 39.3862L29.3806 39.4131L29.2755 39.4577L29.1792 39.5204L29.1004 39.6053L29.0346 39.6992L28.991 39.8109L28.9647 39.9272V39.9897V43.3425V43.405L28.991 43.5257L29.0346 43.633L29.1004 43.7269L29.1792 43.812L29.2755 43.8745L29.3806 43.9238L29.4944 43.946L29.5556 43.9505H47.4354L47.4966 43.946L47.6105 43.9238L47.7156 43.8745L47.8119 43.812L47.8906 43.7269L47.9564 43.633L48.0001 43.5257L48.0264 43.405V43.3425V39.9897V39.9272L48.0001 39.8109L47.9564 39.6992L47.8906 39.6053L47.8119 39.5204L47.7156 39.4577L47.6105 39.4131L47.4966 39.3862H29.4944Z" fill="black"/>
<path fill-rule="evenodd" clip-rule="evenodd" d="M51.3843 39.3862L51.2705 39.4131L51.1654 39.4577L51.0691 39.5204L50.9903 39.6053L50.9247 39.6992L50.8809 39.8109L50.8546 39.9272V39.9897V43.3425V43.405L50.8809 43.5257L50.9247 43.633L50.9903 43.7269L51.0691 43.812L51.1654 43.8745L51.2705 43.9238L51.3843 43.946L51.4457 43.9505H54.7291L54.7905 43.946L54.9087 43.9238L55.0138 43.8745L55.1101 43.812L55.1889 43.7269L55.2545 43.633L55.2983 43.5257L55.3203 43.405L55.3247 43.3425V39.9897L55.3203 39.9272L55.2983 39.8109L55.2545 39.6992L55.1889 39.6053L55.1101 39.5204L55.0138 39.4577L54.9087 39.4131L54.7905 39.3862H51.3843Z" fill="black"/>
</svg>
