<svg width="24" height="24" viewBox="0 0 24 24" fill="none" xmlns="http://www.w3.org/2000/svg">
<path fill-rule="evenodd" clip-rule="evenodd" d="M22 12C22 6.47712 17.5225 2 12 2C6.47745 2 2 6.47712 2 12C2 17.5222 6.47779 22 12 22C17.5222 22 22 17.5222 22 12ZM20.5 12C20.5 16.6938 16.6938 20.5 12 20.5C7.30621 20.5 3.5 16.6938 3.5 12C3.5 7.30557 7.30586 3.5 12 3.5C16.6941 3.5 20.5 7.30557 20.5 12ZM14.0443 8.97631C14.2628 8.68317 14.2395 8.26645 13.9738 7.99961C13.6815 7.70609 13.2066 7.70507 12.9131 7.99733L9.42711 11.4683L9.35412 11.5526C9.13513 11.8466 9.15946 12.2648 9.42711 12.5313L12.9131 16.0023L12.9974 16.0747C13.2915 16.2919 13.7081 16.2668 13.9738 16L14.0462 15.9157C14.2634 15.6216 14.2383 15.205 13.9715 14.9393L11.02 11.9988L13.9715 9.06027L14.0443 8.97631Z" fill="#0D92F4"/>
</svg>
