<svg width="127" height="50" viewBox="0 0 127 50" fill="none" xmlns="http://www.w3.org/2000/svg">
<path d="M5.72 30.192C4.78133 30.192 3.98133 30.0213 3.32 29.68C2.66933 29.3387 2.10933 28.88 1.64 28.304L2.888 27.136C3.28267 27.616 3.71467 27.9787 4.184 28.224C4.664 28.4693 5.208 28.592 5.816 28.592C6.53067 28.592 7.06933 28.432 7.432 28.112C7.79467 27.792 7.976 27.36 7.976 26.816C7.976 26.3787 7.848 26.032 7.592 25.776C7.336 25.52 6.88267 25.328 6.232 25.2L5.24 25.024C4.152 24.8213 3.336 24.464 2.792 23.952C2.248 23.44 1.976 22.736 1.976 21.84C1.976 21.3493 2.06667 20.9067 2.248 20.512C2.44 20.1067 2.70133 19.7707 3.032 19.504C3.37333 19.2267 3.784 19.0133 4.264 18.864C4.744 18.7147 5.28267 18.64 5.88 18.64C6.72267 18.64 7.45333 18.7893 8.072 19.088C8.69067 19.376 9.21867 19.7973 9.656 20.352L8.392 21.472C8.104 21.0987 7.752 20.8 7.336 20.576C6.92 20.352 6.40267 20.24 5.784 20.24C5.144 20.24 4.648 20.368 4.296 20.624C3.944 20.88 3.768 21.2533 3.768 21.744C3.768 22.2133 3.912 22.5653 4.2 22.8C4.488 23.024 4.936 23.1947 5.544 23.312L6.536 23.52C7.656 23.7333 8.472 24.096 8.984 24.608C9.50667 25.12 9.768 25.824 9.768 26.72C9.768 27.2427 9.67733 27.7173 9.496 28.144C9.31467 28.5707 9.048 28.9387 8.696 29.248C8.35467 29.5467 7.93333 29.7813 7.432 29.952C6.93067 30.112 6.36 30.192 5.72 30.192ZM16.1305 30.192C14.6692 30.192 13.5225 29.7013 12.6905 28.72C11.8585 27.728 11.4425 26.2933 11.4425 24.416C11.4425 23.4773 11.5492 22.6507 11.7625 21.936C11.9758 21.2213 12.2852 20.6187 12.6905 20.128C13.0958 19.6373 13.5865 19.2693 14.1625 19.024C14.7492 18.768 15.4052 18.64 16.1305 18.64C17.1012 18.64 17.9118 18.8533 18.5625 19.28C19.2238 19.7067 19.7412 20.336 20.1145 21.168L18.5945 22C18.4025 21.4667 18.1038 21.0453 17.6985 20.736C17.3038 20.416 16.7812 20.256 16.1305 20.256C15.2665 20.256 14.5892 20.5493 14.0985 21.136C13.6078 21.7227 13.3625 22.5333 13.3625 23.568V25.264C13.3625 26.2987 13.6078 27.1093 14.0985 27.696C14.5892 28.2827 15.2665 28.576 16.1305 28.576C16.8025 28.576 17.3465 28.4053 17.7625 28.064C18.1892 27.712 18.5038 27.264 18.7065 26.72L20.1625 27.6C19.7892 28.4107 19.2665 29.0453 18.5945 29.504C17.9225 29.9627 17.1012 30.192 16.1305 30.192ZM23.8871 30H22.0791V18.832H26.8951C27.8978 18.832 28.6871 19.136 29.2631 19.744C29.8391 20.3413 30.1271 21.1573 30.1271 22.192C30.1271 22.992 29.9405 23.6587 29.5671 24.192C29.2045 24.7147 28.6658 25.0827 27.9511 25.296L30.3671 30H28.3511L26.1111 25.488H23.8871V30ZM26.7671 23.968C27.2258 23.968 27.5831 23.8507 27.8391 23.616C28.0951 23.3707 28.2231 23.024 28.2231 22.576V21.808C28.2231 21.36 28.0951 21.0187 27.8391 20.784C27.5831 20.5387 27.2258 20.416 26.7671 20.416H23.8871V23.968H26.7671ZM32.5635 30V18.832H39.7155V20.432H34.3715V23.536H39.2195V25.136H34.3715V28.4H39.7155V30H32.5635ZM42.0479 30V18.832H49.1999V20.432H43.8559V23.536H48.7039V25.136H43.8559V28.4H49.1999V30H42.0479ZM54.5403 23.824L53.3083 21.456H53.2603V30H51.5323V18.832H53.5483L57.1963 25.008L58.4283 27.376H58.4763V18.832H60.2043V30H58.1883L54.5403 23.824ZM66.2981 30.192C65.3595 30.192 64.5595 30.0213 63.8981 29.68C63.2475 29.3387 62.6875 28.88 62.2181 28.304L63.4661 27.136C63.8608 27.616 64.2928 27.9787 64.7621 28.224C65.2421 28.4693 65.7861 28.592 66.3941 28.592C67.1088 28.592 67.6475 28.432 68.0101 28.112C68.3728 27.792 68.5541 27.36 68.5541 26.816C68.5541 26.3787 68.4261 26.032 68.1701 25.776C67.9141 25.52 67.4608 25.328 66.8101 25.2L65.8181 25.024C64.7301 24.8213 63.9141 24.464 63.3701 23.952C62.8261 23.44 62.5541 22.736 62.5541 21.84C62.5541 21.3493 62.6448 20.9067 62.8261 20.512C63.0181 20.1067 63.2795 19.7707 63.6101 19.504C63.9515 19.2267 64.3621 19.0133 64.8421 18.864C65.3221 18.7147 65.8608 18.64 66.4581 18.64C67.3008 18.64 68.0315 18.7893 68.6501 19.088C69.2688 19.376 69.7968 19.7973 70.2341 20.352L68.9701 21.472C68.6821 21.0987 68.3301 20.8 67.9141 20.576C67.4981 20.352 66.9808 20.24 66.3621 20.24C65.7221 20.24 65.2261 20.368 64.8741 20.624C64.5221 20.88 64.3461 21.2533 64.3461 21.744C64.3461 22.2133 64.4901 22.5653 64.7781 22.8C65.0661 23.024 65.5141 23.1947 66.1221 23.312L67.1141 23.52C68.2341 23.7333 69.0501 24.096 69.5621 24.608C70.0848 25.12 70.3461 25.824 70.3461 26.72C70.3461 27.2427 70.2555 27.7173 70.0741 28.144C69.8928 28.5707 69.6261 28.9387 69.2741 29.248C68.9328 29.5467 68.5115 29.7813 68.0101 29.952C67.5088 30.112 66.9381 30.192 66.2981 30.192Z" fill="#000A51"/>
<path d="M102.779 9.39927C103.033 9.39927 103.391 9.39299 103.705 9.38985H103.768C103.89 9.38985 104.003 9.38985 104.094 9.38985H104.1C104.239 9.38985 104.389 9.39613 104.543 9.39927C108.06 9.47462 111.13 9.9173 113.745 10.7085C116.361 11.4997 118.53 12.6393 120.276 14.1212C121.868 15.4744 123.12 17.0788 124.05 18.9594C124.976 20.8337 125.575 22.9844 125.833 25.4144C125.836 25.4333 125.842 25.4521 125.849 25.4709C125.927 26.2998 125.977 27.1601 125.984 28.0486L125.999 30.0956C126.021 33.1913 125.569 35.907 124.659 38.2397C123.748 40.5756 122.386 42.5379 120.555 44.1516C118.734 45.7623 116.423 46.9867 113.588 47.8187C110.753 48.6538 107.397 49.0871 103.52 49.1122C99.6171 49.1373 96.2326 48.748 93.3598 47.9506C90.4902 47.1562 88.1387 45.9632 86.2706 44.3777C84.3962 42.7859 82.9897 40.8425 82.0353 38.516C81.175 36.4156 80.6884 34.0013 80.5879 31.2698C80.7637 31.7156 80.9521 32.1552 81.1593 32.5759C82.1451 34.6009 83.4983 36.356 85.2063 37.8222C87.1591 39.505 89.5954 40.764 92.487 41.6054C95.3786 42.4468 98.7254 42.8738 102.524 42.8989C102.763 42.8989 103.014 42.9021 103.265 42.8989C103.52 42.8989 103.765 42.8927 104.006 42.8864H104.009C105.981 42.8393 107.764 42.6509 109.353 42.3307C109.978 42.2114 110.571 42.0764 111.136 41.9162C112.882 41.4202 114.336 40.7138 115.485 39.7907C116.756 38.7672 117.701 37.4266 118.31 35.8097C118.593 35.0593 118.806 34.2493 118.951 33.3828C118.96 33.32 118.973 33.254 118.985 33.1912C118.992 33.1536 118.995 33.1159 119.001 33.0782C119.136 32.174 119.199 31.2196 119.196 30.1961L119.18 28.149C119.18 27.901 119.174 27.6498 119.161 27.4081C119.136 26.664 119.064 25.9544 118.951 25.2794C118.722 23.8383 118.307 22.5605 117.698 21.4397C117.089 20.3188 116.285 19.3613 115.296 18.5826C114.003 17.5623 112.333 16.8244 110.317 16.3441C108.298 15.8637 105.931 15.6408 103.203 15.6565C100.48 15.6753 98.1132 15.9265 96.0976 16.4289C94.0851 16.9281 92.4211 17.6784 91.1244 18.6988C90.1386 19.4837 89.3411 20.4476 88.7415 21.581C88.7195 21.6218 88.7038 21.6689 88.6787 21.7097L88.6724 20.7992C88.6661 19.7977 88.7321 18.8715 88.8576 18.0112C88.8608 17.9892 88.8639 17.9641 88.8671 17.939C88.8765 17.8825 88.889 17.8228 88.9016 17.7663C88.9236 17.625 88.9518 17.4869 88.9769 17.3488C88.9926 17.2671 89.0115 17.1886 89.0272 17.1102C89.0335 17.0882 89.0397 17.0662 89.0429 17.0442L89.0523 16.9971C89.0617 16.9563 89.0711 16.9155 89.0837 16.8778C89.0994 16.8025 89.1214 16.724 89.1402 16.6486C89.1936 16.4477 89.2564 16.2436 89.316 16.0521C89.3286 16.0144 89.3411 15.9799 89.3537 15.9391C89.3976 15.8072 89.4447 15.6785 89.4918 15.5529C90.0507 14.1244 90.8733 12.9941 91.9721 12.1244C93.0208 11.2987 94.4242 10.6269 96.1824 10.1528C96.5779 10.046 96.9955 9.9487 97.4256 9.86393C98.6438 9.63473 100.006 9.48717 101.517 9.42124C101.674 9.4181 101.818 9.40869 101.953 9.40555H101.959C102.05 9.40241 102.157 9.4024 102.279 9.39927C102.408 9.39927 102.54 9.39927 102.766 9.39927H102.779Z" fill="#000A51"/>
<path d="M102.474 0.887777C106.37 0.86266 109.758 1.25197 112.628 2.04943C115.497 2.84375 117.849 4.03681 119.717 5.62231C121.591 7.2141 122.998 9.15752 123.952 11.484C124.825 13.6095 125.309 16.0615 125.403 18.8338C125.224 18.3723 125.026 17.9139 124.806 17.4743C123.808 15.4493 122.439 13.6974 120.712 12.2312C118.806 10.608 116.452 9.38043 113.673 8.54529C110.898 7.70702 107.695 7.25491 104.075 7.17328H104.069C103.934 7.17328 103.783 7.167 103.62 7.16386H103.617C103.485 7.16386 103.366 7.16386 103.265 7.16386H103.19C102.867 7.16386 102.502 7.17328 102.264 7.17328C102.053 7.17328 101.934 7.17328 101.787 7.17328H101.768C101.667 7.17328 101.554 7.17328 101.422 7.17956H101.419C101.419 7.17956 101.419 7.17956 101.416 7.17956C101.256 7.1827 101.112 7.19212 100.977 7.19526H100.967C98.6344 7.29259 96.5968 7.58457 94.8511 8.08377C93.1055 8.57669 91.6519 9.27996 90.5028 10.2093C89.2312 11.2328 88.2893 12.5734 87.6771 14.1903C87.0649 15.8072 86.7792 17.6973 86.7918 19.8636L86.8074 21.9106C86.8137 22.909 86.8891 23.8478 87.0366 24.7237C87.2658 26.1617 87.6803 27.4426 88.2893 28.5635C88.8984 29.6812 89.7022 30.6419 90.6912 31.4205C91.9847 32.4377 93.6549 33.1787 95.6706 33.659C97.6893 34.1394 100.057 34.3623 102.785 34.3466C105.507 34.3278 107.874 34.0766 109.89 33.5743C111.902 33.0751 113.566 32.3247 114.863 31.3043C115.849 30.5194 116.646 29.5556 117.246 28.4222C117.268 28.3814 117.284 28.3343 117.309 28.2935L117.315 29.2636C117.331 31.2949 117.048 33.028 116.492 34.4534C115.934 35.8788 115.111 37.0122 114.012 37.8787C112.964 38.7076 111.56 39.3794 109.802 39.8535C108.044 40.3276 105.931 40.607 103.482 40.6698C103.24 40.6761 102.998 40.6792 102.76 40.6824C102.521 40.6855 102.273 40.6824 102.035 40.6824C98.3424 40.6572 95.1306 40.2397 92.4054 39.4454C89.6771 38.651 87.4354 37.4831 85.6521 35.9478C84.0791 34.5947 82.839 32.9872 81.9254 31.1097C81.0054 29.2322 80.4152 27.0847 80.1609 24.6515C80.073 23.7881 80.0228 22.8902 80.0165 21.9609L80.0008 19.9138C79.9788 16.8182 80.4278 14.1024 81.3382 11.7697C82.2487 9.43066 83.6113 7.47154 85.4417 5.85464C86.3522 5.0509 87.382 4.34135 88.5437 3.73227C89.7053 3.12004 90.9894 2.60201 92.4054 2.18758C95.2404 1.35558 98.5967 0.922312 102.477 0.897195L102.474 0.887777Z" fill="#000A51"/>
</svg>
