<svg width="116" height="41" viewBox="0 0 116 41" fill="none" xmlns="http://www.w3.org/2000/svg">
<path d="M19.4432 7.172C19.6575 7.172 19.9591 7.16671 20.2236 7.16406H20.2765C20.3796 7.16406 20.4749 7.16406 20.5516 7.16406H20.5569C20.6733 7.16406 20.8002 7.16935 20.9298 7.172C23.8924 7.23548 26.4794 7.60845 28.6829 8.27504C30.8863 8.94163 32.7141 9.90183 34.1849 11.1504C35.526 12.2904 36.5814 13.6421 37.3644 15.2266C38.1447 16.8058 38.6499 18.6177 38.8668 20.6651C38.8695 20.681 38.8748 20.6968 38.8801 20.7127C38.9462 21.411 38.9885 22.1358 38.9938 22.8844L39.007 24.6091C39.0256 27.2172 38.6446 29.5053 37.8775 31.4707C37.1104 33.4387 35.9624 35.0919 34.4203 36.4516C32.8861 37.8085 30.9392 38.8402 28.5506 39.5411C26.162 40.2447 23.3343 40.6098 20.0675 40.6309C16.7795 40.6521 13.928 40.3241 11.5077 39.6522C9.08999 38.983 7.10874 37.9778 5.53486 36.642C3.95568 35.3009 2.77064 33.6635 1.96651 31.7034C1.24172 29.9338 0.831716 27.8997 0.74707 25.5984C0.895201 25.974 1.05391 26.3443 1.2285 26.6988C2.05908 28.4049 3.19916 29.8836 4.63814 31.1189C6.28345 32.5367 8.33611 33.5974 10.7723 34.3063C13.2085 35.0152 16.0283 35.375 19.229 35.3961C19.43 35.3961 19.6416 35.3988 19.8532 35.3961C20.0675 35.3961 20.2738 35.3908 20.4775 35.3855H20.4802C22.1413 35.3459 23.6438 35.1872 24.9823 34.9173C25.5087 34.8168 26.0086 34.7031 26.4847 34.5682C27.9555 34.1502 29.1802 33.5551 30.1483 32.7774C31.2196 31.9151 32.0158 30.7856 32.529 29.4233C32.767 28.7911 32.9469 28.1086 33.0686 27.3786C33.0765 27.3257 33.0871 27.2701 33.0977 27.2172C33.103 27.1855 33.1056 27.1537 33.1109 27.122C33.2247 26.3602 33.2776 25.556 33.2749 24.6937L33.2617 22.969C33.2617 22.7601 33.2564 22.5485 33.2458 22.3448C33.2247 21.7179 33.1638 21.1201 33.0686 20.5513C32.8755 19.3372 32.5263 18.2606 32.0132 17.3163C31.5 16.372 30.8228 15.5652 29.9896 14.9092C28.8998 14.0495 27.4925 13.4279 25.7943 13.0231C24.0935 12.6184 22.099 12.4306 19.8003 12.4439C17.507 12.4597 15.5125 12.6713 13.8143 13.0946C12.1187 13.5152 10.7168 14.1473 9.62431 15.007C8.79372 15.6683 8.12185 16.4804 7.61662 17.4353C7.5981 17.4697 7.58488 17.5094 7.56372 17.5438L7.55842 16.7767C7.55313 15.9329 7.60869 15.1525 7.7145 14.4277C7.71714 14.4092 7.71979 14.3881 7.72243 14.3669C7.73037 14.3193 7.74094 14.269 7.75152 14.2214C7.77004 14.1024 7.79385 13.986 7.81501 13.8696C7.82823 13.8008 7.8441 13.7347 7.85733 13.6686C7.86262 13.6501 7.86792 13.6315 7.87056 13.613L7.8785 13.5733C7.88643 13.539 7.89436 13.5046 7.90494 13.4728C7.91817 13.4093 7.93669 13.3432 7.95256 13.2797C7.99753 13.1104 8.05043 12.9385 8.10069 12.7771C8.11127 12.7454 8.12185 12.7163 8.13243 12.6819C8.16946 12.5708 8.20914 12.4624 8.24882 12.3566C8.71966 11.153 9.4127 10.2007 10.3385 9.46802C11.222 8.77233 12.4044 8.20626 13.8857 7.80684C14.219 7.7169 14.5708 7.6349 14.9332 7.56348C15.9595 7.37039 17.1075 7.24606 18.3799 7.19051C18.5121 7.18787 18.6338 7.17993 18.7476 7.17729H18.7529C18.8296 7.17464 18.9195 7.17464 19.0227 7.172C19.1311 7.172 19.2422 7.172 19.4327 7.172H19.4432Z" fill="#000A51"/>
<path d="M19.1868 0.000962035C22.4695 -0.0201994 25.3237 0.307803 27.7414 0.97968C30.1591 1.64891 32.1403 2.65408 33.7142 3.9899C35.2934 5.33101 36.4784 6.96838 37.2826 8.92846C38.0179 10.7193 38.4253 12.7851 38.5046 15.1208C38.3538 14.732 38.1872 14.3458 38.002 13.9755C37.1609 12.2693 36.0076 10.7933 34.5527 9.55802C32.9471 8.19046 30.9632 7.15619 28.6222 6.45257C26.2839 5.7463 23.5858 5.3654 20.5359 5.29662H20.5306C20.4168 5.29662 20.2899 5.29133 20.1523 5.28869H20.1497C20.0386 5.28869 19.9381 5.28869 19.8534 5.28869H19.7899C19.5175 5.28869 19.2106 5.29662 19.0096 5.29662C18.8324 5.29662 18.7319 5.29662 18.6075 5.29662H18.5917C18.507 5.29662 18.4118 5.29662 18.3007 5.30191H18.2981C18.2981 5.30191 18.2981 5.30191 18.2954 5.30191C18.1605 5.30456 18.0388 5.31249 17.9251 5.31514H17.9171C15.9518 5.39714 14.2351 5.64314 12.7643 6.06373C11.2936 6.47902 10.0689 7.07154 9.10075 7.85452C8.02945 8.71685 7.23589 9.84634 6.72008 11.2086C6.20427 12.5709 5.96356 14.1633 5.97414 15.9885L5.98736 17.7131C5.99265 18.5543 6.05614 19.3452 6.18046 20.0832C6.37356 21.2947 6.72272 22.3739 7.23589 23.3183C7.74905 24.26 8.42623 25.0694 9.25946 25.7254C10.3493 26.5824 11.7565 27.2067 13.4547 27.6114C15.1556 28.0161 17.15 28.2039 19.4487 28.1907C21.7421 28.1748 23.7366 27.9632 25.4348 27.54C27.1303 27.1194 28.5323 26.4872 29.6247 25.6275C30.4553 24.9662 31.1272 24.1542 31.6324 23.1992C31.651 23.1649 31.6642 23.1252 31.6853 23.0908L31.6906 23.9081C31.7039 25.6196 31.4658 27.0797 30.9976 28.2806C30.5267 29.4816 29.8337 30.4365 28.9079 31.1665C28.0244 31.8649 26.842 32.4309 25.3607 32.8304C23.8794 33.2298 22.0992 33.4652 20.0359 33.5181C19.8323 33.5234 19.6286 33.526 19.4276 33.5287C19.2265 33.5313 19.0175 33.5287 18.8165 33.5287C15.7058 33.5075 12.9998 33.1557 10.7037 32.4865C8.40506 31.8173 6.5164 30.8332 5.01394 29.5397C3.6887 28.3997 2.64385 27.0453 1.8741 25.4635C1.09906 23.8817 0.601768 22.0724 0.387508 20.0224C0.313443 19.2949 0.271122 18.5384 0.265832 17.7554L0.252601 16.0308C0.234085 13.4226 0.612349 11.1345 1.37945 9.16918C2.14656 7.19851 3.29457 5.54791 4.83671 4.18564C5.60382 3.50848 6.47144 2.91067 7.45016 2.3975C8.42887 1.88169 9.51075 1.44523 10.7037 1.09607C13.0923 0.395094 15.92 0.0300588 19.1895 0.00889727L19.1868 0.000962035Z" fill="#000A51"/>
<path d="M50.468 25.5079C49.5294 25.5079 48.7294 25.3373 48.068 24.9959C47.4174 24.6546 46.8574 24.1959 46.388 23.6199L47.636 22.4519C48.0307 22.9319 48.4627 23.2946 48.932 23.5399C49.412 23.7853 49.956 23.9079 50.564 23.9079C51.2787 23.9079 51.8174 23.7479 52.18 23.4279C52.5427 23.1079 52.724 22.6759 52.724 22.1319C52.724 21.6946 52.596 21.3479 52.34 21.0919C52.084 20.8359 51.6307 20.6439 50.98 20.5159L49.988 20.3399C48.9 20.1373 48.084 19.7799 47.54 19.2679C46.996 18.7559 46.724 18.0519 46.724 17.1559C46.724 16.6653 46.8147 16.2226 46.996 15.8279C47.188 15.4226 47.4494 15.0866 47.78 14.8199C48.1214 14.5426 48.532 14.3293 49.012 14.1799C49.492 14.0306 50.0307 13.9559 50.628 13.9559C51.4707 13.9559 52.2014 14.1053 52.82 14.4039C53.4387 14.6919 53.9667 15.1133 54.404 15.6679L53.14 16.7879C52.852 16.4146 52.5 16.1159 52.084 15.8919C51.668 15.6679 51.1507 15.5559 50.532 15.5559C49.892 15.5559 49.396 15.6839 49.044 15.9399C48.692 16.1959 48.516 16.5693 48.516 17.0599C48.516 17.5293 48.66 17.8813 48.948 18.1159C49.236 18.3399 49.684 18.5106 50.292 18.6279L51.284 18.8359C52.404 19.0493 53.22 19.4119 53.732 19.9239C54.2547 20.4359 54.516 21.1399 54.516 22.0359C54.516 22.5586 54.4254 23.0333 54.244 23.4599C54.0627 23.8866 53.796 24.2546 53.444 24.5639C53.1027 24.8626 52.6814 25.0973 52.18 25.2679C51.6787 25.4279 51.108 25.5079 50.468 25.5079ZM60.8785 25.5079C59.4172 25.5079 58.2705 25.0173 57.4385 24.0359C56.6065 23.0439 56.1905 21.6093 56.1905 19.7319C56.1905 18.7933 56.2972 17.9666 56.5105 17.2519C56.7239 16.5373 57.0332 15.9346 57.4385 15.4439C57.8439 14.9533 58.3345 14.5853 58.9105 14.3399C59.4972 14.0839 60.1532 13.9559 60.8785 13.9559C61.8492 13.9559 62.6599 14.1693 63.3105 14.5959C63.9719 15.0226 64.4892 15.6519 64.8625 16.4839L63.3425 17.3159C63.1505 16.7826 62.8519 16.3613 62.4465 16.0519C62.0519 15.7319 61.5292 15.5719 60.8785 15.5719C60.0145 15.5719 59.3372 15.8653 58.8465 16.4519C58.3559 17.0386 58.1105 17.8493 58.1105 18.8839V20.5799C58.1105 21.6146 58.3559 22.4253 58.8465 23.0119C59.3372 23.5986 60.0145 23.8919 60.8785 23.8919C61.5505 23.8919 62.0945 23.7213 62.5105 23.3799C62.9372 23.0279 63.2519 22.5799 63.4545 22.0359L64.9105 22.9159C64.5372 23.7266 64.0145 24.3613 63.3425 24.8199C62.6705 25.2786 61.8492 25.5079 60.8785 25.5079ZM68.6352 25.3159H66.8272V14.1479H71.6432C72.6458 14.1479 73.4352 14.4519 74.0112 15.0599C74.5872 15.6573 74.8752 16.4733 74.8752 17.5079C74.8752 18.3079 74.6885 18.9746 74.3152 19.5079C73.9525 20.0306 73.4138 20.3986 72.6992 20.6119L75.1152 25.3159H73.0992L70.8592 20.8039H68.6352V25.3159ZM71.5152 19.2839C71.9738 19.2839 72.3312 19.1666 72.5872 18.9319C72.8432 18.6866 72.9712 18.3399 72.9712 17.8919V17.1239C72.9712 16.6759 72.8432 16.3346 72.5872 16.0999C72.3312 15.8546 71.9738 15.7319 71.5152 15.7319H68.6352V19.2839H71.5152ZM77.3115 25.3159V14.1479H84.4635V15.7479H79.1195V18.8519H83.9675V20.4519H79.1195V23.7159H84.4635V25.3159H77.3115ZM86.7959 25.3159V14.1479H93.9479V15.7479H88.6039V18.8519H93.4519V20.4519H88.6039V23.7159H93.9479V25.3159H86.7959ZM99.2883 19.1399L98.0563 16.7719H98.0083V25.3159H96.2803V14.1479H98.2963L101.944 20.3239L103.176 22.6919H103.224V14.1479H104.952V25.3159H102.936L99.2883 19.1399ZM111.046 25.5079C110.108 25.5079 109.308 25.3373 108.646 24.9959C107.996 24.6546 107.436 24.1959 106.966 23.6199L108.214 22.4519C108.609 22.9319 109.041 23.2946 109.51 23.5399C109.99 23.7853 110.534 23.9079 111.142 23.9079C111.857 23.9079 112.396 23.7479 112.758 23.4279C113.121 23.1079 113.302 22.6759 113.302 22.1319C113.302 21.6946 113.174 21.3479 112.918 21.0919C112.662 20.8359 112.209 20.6439 111.558 20.5159L110.566 20.3399C109.478 20.1373 108.662 19.7799 108.118 19.2679C107.574 18.7559 107.302 18.0519 107.302 17.1559C107.302 16.6653 107.393 16.2226 107.574 15.8279C107.766 15.4226 108.028 15.0866 108.358 14.8199C108.7 14.5426 109.11 14.3293 109.59 14.1799C110.07 14.0306 110.609 13.9559 111.206 13.9559C112.049 13.9559 112.78 14.1053 113.398 14.4039C114.017 14.6919 114.545 15.1133 114.982 15.6679L113.718 16.7879C113.43 16.4146 113.078 16.1159 112.662 15.8919C112.246 15.6679 111.729 15.5559 111.11 15.5559C110.47 15.5559 109.974 15.6839 109.622 15.9399C109.27 16.1959 109.094 16.5693 109.094 17.0599C109.094 17.5293 109.238 17.8813 109.526 18.1159C109.814 18.3399 110.262 18.5106 110.87 18.6279L111.862 18.8359C112.982 19.0493 113.798 19.4119 114.31 19.9239C114.833 20.4359 115.094 21.1399 115.094 22.0359C115.094 22.5586 115.004 23.0333 114.822 23.4599C114.641 23.8866 114.374 24.2546 114.022 24.5639C113.681 24.8626 113.26 25.0973 112.758 25.2679C112.257 25.4279 111.686 25.5079 111.046 25.5079Z" fill="#000A51"/>
</svg>
