<svg width="24" height="24" viewBox="0 0 24 24" fill="none" xmlns="http://www.w3.org/2000/svg">
<path d="M21.0524 4.7515V9.95411C21.0524 10.4186 20.8679 10.8641 20.5394 11.1926C20.211 11.5211 19.7655 11.7056 19.3009 11.7056H18.3433V13.9127C18.3433 14.3478 17.8239 14.5729 17.5064 14.2754L14.7644 11.7056H11.0259C10.5614 11.7056 10.1159 11.5211 9.78742 11.1926C9.45895 10.8641 9.27441 10.4186 9.27441 9.95411V4.7515C9.27441 4.28698 9.45895 3.84147 9.78742 3.513C10.1159 3.18453 10.5614 3 11.0259 3H19.3009C19.7655 3 20.211 3.18453 20.5394 3.513C20.8679 3.84147 21.0524 4.28698 21.0524 4.7515Z" fill="#ABABAB"/>
<path d="M14.7778 11.7147V16.4563C14.7783 16.6864 14.7334 16.9142 14.6455 17.1268C14.5577 17.3394 14.4288 17.5325 14.2661 17.6951C14.1034 17.8577 13.9103 17.9866 13.6976 18.0744C13.485 18.1621 13.2572 18.207 13.0272 18.2064H9.2911L6.54732 20.7842C6.22812 21.0798 5.70788 20.855 5.70788 20.4178V18.2064H4.75007C4.52011 18.2069 4.2923 18.162 4.07974 18.0742C3.86718 17.9865 3.67405 17.8576 3.51144 17.695C3.34883 17.5324 3.21994 17.3392 3.13217 17.1267C3.04441 16.9141 2.99949 16.6863 3 16.4563V11.2537C2.99949 11.0238 3.04441 10.796 3.13217 10.5834C3.21994 10.3708 3.34883 10.1777 3.51144 10.0151C3.67405 9.85249 3.86718 9.7236 4.07974 9.63584C4.2923 9.54807 4.52011 9.50315 4.75007 9.50367H9.279V9.95293C9.27848 10.1829 9.3234 10.4107 9.41117 10.6233C9.49893 10.8358 9.62782 11.0289 9.79043 11.1916C9.95304 11.3542 10.1462 11.4831 10.3587 11.5708C10.5713 11.6586 10.7991 11.7035 11.0291 11.703H14.7657L14.7778 11.7147Z" fill="#ABABAB"/>
<path d="M17.5283 6.72492H12.7985C12.4719 6.72492 12.2073 6.46049 12.2073 6.1337C12.2073 5.80691 12.4719 5.54248 12.7985 5.54248H17.5283C17.8548 5.54248 18.1195 5.80691 18.1195 6.1337C18.1195 6.46049 17.8548 6.72492 17.5283 6.72492ZM17.5283 9.0898H12.7985C12.4719 9.0898 12.2073 8.82537 12.2073 8.49858C12.2073 8.17179 12.4719 7.90736 12.7985 7.90736H17.5283C17.8548 7.90736 18.1195 8.17179 18.1195 8.49858C18.1195 8.82537 17.8548 9.0898 17.5283 9.0898Z" fill="#2C2C2C"/>
<path d="M6.76041 14.4167C6.67753 14.4167 6.60655 14.3936 6.53578 14.3694C6.46679 14.3356 6.40302 14.2921 6.34643 14.2401C6.28735 14.18 6.24017 14.1211 6.21658 14.0508C6.18109 13.9792 6.16919 13.8971 6.16919 13.814C6.16919 13.6604 6.22827 13.5069 6.34643 13.3994C6.55957 13.1754 6.94955 13.1754 7.17418 13.3994C7.23326 13.4596 7.28065 13.5184 7.30445 13.5888C7.33994 13.6604 7.35183 13.7424 7.35183 13.814C7.35183 13.8971 7.33994 13.9792 7.30445 14.0508C7.28085 14.1211 7.23347 14.18 7.17418 14.2401C7.06792 14.3462 6.91406 14.4167 6.76041 14.4167ZM9.12529 14.4167C9.04241 14.4167 8.97143 14.3936 8.90066 14.3694C8.83167 14.3356 8.7679 14.2921 8.71131 14.2401C8.59315 14.1328 8.53407 13.9792 8.53407 13.814C8.53407 13.7424 8.54597 13.6604 8.58146 13.5888C8.60505 13.5184 8.65223 13.4596 8.71131 13.3994C8.7587 13.3406 8.82968 13.3059 8.90066 13.2702C9.11339 13.1871 9.38541 13.2345 9.53885 13.3994C9.65722 13.5067 9.7163 13.6604 9.7163 13.814C9.7163 13.9792 9.65722 14.1328 9.53885 14.2401C9.49188 14.2863 9.42069 14.3337 9.34971 14.3694C9.27894 14.3936 9.20817 14.4167 9.12529 14.4167ZM11.4902 14.4167C11.3363 14.4167 11.1827 14.3464 11.0762 14.2401C10.958 14.1328 10.8989 13.9792 10.8989 13.814C10.8989 13.6604 10.958 13.5069 11.0762 13.3994C11.2893 13.1754 11.691 13.1754 11.9039 13.3994C11.963 13.4596 12.0104 13.5184 12.0342 13.5888C12.0697 13.6604 12.0816 13.7424 12.0816 13.814C12.0816 13.9792 12.0225 14.1328 11.9041 14.2401C11.7977 14.3462 11.6438 14.4167 11.4902 14.4167Z" fill="#2C2C2C"/>
</svg>
