<svg width="19" height="18" viewBox="0 0 19 18" fill="none" xmlns="http://www.w3.org/2000/svg">
<path d="M15.3516 2.10938H12.7148V1.58203C12.7148 0.709699 12.0051 0 11.1328 0H6.91406C6.04173 0 5.33203 0.709699 5.33203 1.58203V2.10938H2.69531C1.82298 2.10938 1.11328 2.81907 1.11328 3.69141C1.11328 4.392 1.57119 4.9873 2.2033 5.19472L3.14391 16.5493C3.21165 17.3628 3.90416 18 4.72045 18H13.3264C14.1427 18 14.8353 17.3628 14.903 16.5491L15.8436 5.19469C16.4757 4.9873 16.9336 4.392 16.9336 3.69141C16.9336 2.81907 16.2239 2.10938 15.3516 2.10938ZM6.38672 1.58203C6.38672 1.29125 6.62329 1.05469 6.91406 1.05469H11.1328C11.4236 1.05469 11.6602 1.29125 11.6602 1.58203V2.10938H6.38672V1.58203ZM13.8519 16.4618C13.8293 16.7329 13.5985 16.9453 13.3264 16.9453H4.72045C4.44838 16.9453 4.21754 16.7329 4.19501 16.462L3.26815 5.27344H14.7787L13.8519 16.4618ZM15.3516 4.21875H2.69531C2.40454 4.21875 2.16797 3.98218 2.16797 3.69141C2.16797 3.40063 2.40454 3.16406 2.69531 3.16406H15.3516C15.6423 3.16406 15.8789 3.40063 15.8789 3.69141C15.8789 3.98218 15.6423 4.21875 15.3516 4.21875Z" fill="#1D1D1D"/>
<path d="M6.91308 15.3307L6.38574 6.82286C6.36771 6.53215 6.11609 6.31106 5.82679 6.32916C5.53608 6.3472 5.31506 6.59744 5.33306 6.88811L5.8604 15.396C5.87773 15.6756 6.1099 15.8907 6.38623 15.8907C6.69164 15.8907 6.93182 15.6335 6.91308 15.3307ZM9.02348 6.32818C8.73224 6.32818 8.49614 6.56429 8.49614 6.85552V15.3633C8.49614 15.6546 8.73224 15.8907 9.02348 15.8907C9.31471 15.8907 9.55082 15.6546 9.55082 15.3633V6.85552C9.55082 6.56429 9.31471 6.32818 9.02348 6.32818ZM12.2201 6.3292C11.9301 6.31116 11.6792 6.53219 11.6612 6.8229L11.1338 15.3307C11.1159 15.6214 11.3369 15.8716 11.6276 15.8897C11.9184 15.9077 12.1685 15.6865 12.1865 15.396L12.7139 6.88815C12.7319 6.59744 12.5108 6.3472 12.2201 6.3292Z" fill="#1D1D1D"/>
</svg>
