<svg width="19" height="18" viewBox="0 0 19 18" fill="none" xmlns="http://www.w3.org/2000/svg">
<g clip-path="url(#clip0_542_5048)">
<path d="M16.635 11.2651C16.387 11.2651 16.1861 11.466 16.1861 11.714V15.6995C16.1852 16.4429 15.5829 17.0454 14.8394 17.0461H2.24439C1.50091 17.0454 0.898653 16.4429 0.897756 15.6995V4.0022C0.898653 3.2589 1.50096 2.65647 2.24439 2.65557H6.22997C6.47789 2.65557 6.67885 2.45461 6.67885 2.20669C6.67885 1.95891 6.47789 1.75781 6.22997 1.75781H2.24439C1.0054 1.7592 0.00139152 2.76321 0 4.0022V15.6997C0.00139152 16.9386 1.0054 17.9426 2.24439 17.9441H14.8394C16.0784 17.9426 17.0824 16.9386 17.0838 15.6997V11.714C17.0838 11.466 16.8829 11.2651 16.635 11.2651Z" fill="#1D1D1D"/>
<path d="M16.9061 0.603362C16.1172 -0.185496 14.8383 -0.185496 14.0494 0.603362L6.0411 8.61166C5.98628 8.66647 5.9466 8.73454 5.92591 8.80925L4.8728 12.6112C4.85155 12.6878 4.851 12.7686 4.87121 12.8455C4.89142 12.9223 4.93166 12.9924 4.98783 13.0486C5.044 13.1047 5.11407 13.145 5.1909 13.1652C5.26772 13.1855 5.34855 13.185 5.4251 13.1637L9.2271 12.1104C9.30181 12.0898 9.36988 12.0501 9.42469 11.9953L17.4328 3.98682C18.2204 3.19738 18.2204 1.91952 17.4328 1.13012L16.9061 0.603362ZM7.01916 8.90343L13.5734 2.34909L15.6871 4.46286L9.13279 11.0172L7.01916 8.90343ZM6.59694 9.75068L8.28562 11.4396L5.94975 12.0868L6.59694 9.75068ZM16.7981 3.35207L16.322 3.82806L14.2081 1.71411L14.6843 1.23808C15.1225 0.799881 15.833 0.799881 16.2712 1.23808L16.7981 1.76479C17.2356 2.20352 17.2356 2.91351 16.7981 3.35207Z" fill="#1D1D1D"/>
</g>
<defs>
<clipPath id="clip0_542_5048">
<rect width="18.0235" height="18" fill="white"/>
</clipPath>
</defs>
</svg>
