<svg width="511" height="304" viewBox="0 0 511 304" fill="none" xmlns="http://www.w3.org/2000/svg">
<path d="M0.162369 257.013C0.162369 257.013 -2.10875 262.338 10.3432 266.058C22.7952 269.778 29.7417 270.757 29.7417 270.757C29.7417 270.757 32.4044 271.853 31.1435 273.772C29.8827 275.691 25.873 278.745 27.1808 281.384C28.4887 284.023 31.9267 284.517 36.5786 283.068C41.2304 281.619 51.4583 278.925 52.3981 278.682C53.3378 278.44 54.7475 278.721 54.121 280.17C53.4945 281.619 46.5871 290.516 50.9884 293.531C55.3897 296.546 67.6694 290.484 69.0007 289.842C70.3321 289.2 71.0134 289.372 71.4911 289.991C71.9688 290.61 69.3688 293.374 67.5127 295.982C65.6567 298.59 63.9651 301.942 66.6591 303.469C69.3531 304.996 79.1894 303.845 93.2468 291.722L99.4024 285.684L97.3818 277.257C91.9468 259.503 84.2563 253.285 81.1629 253.136C78.0695 252.987 77.7171 256.731 77.8894 259.926C78.0617 263.121 78.7743 266.857 78.046 267.115C77.3177 267.374 76.6755 267.17 75.8689 265.909C75.0622 264.648 67.9435 252.979 62.5946 253.167C57.2457 253.355 58.3186 264.554 58.0993 266.121C57.8801 267.687 56.4861 267.154 55.8439 266.465C55.2017 265.776 47.9655 257.976 44.8094 254.303C41.6533 250.63 38.5834 249.126 35.9755 250.724C33.3677 252.322 35.2315 256.989 35.2707 259.268C35.3099 261.547 32.467 261.069 32.467 261.069C32.467 261.069 26.0531 258.203 13.5541 254.702C1.05516 251.202 0.138875 257.052 0.138875 257.052" fill="#EBEBEB"/>
<path d="M101.172 286.796C92.0016 284.196 75.7827 279.294 61.8349 275.167C47.8871 271.04 35.2707 267.335 26.1157 264.649L15.2692 261.516L12.3167 260.671L11.5336 260.444L11.2751 260.35L11.5336 260.412L12.3167 260.616L15.277 261.399C17.8536 262.096 21.5422 263.138 26.147 264.438C35.3177 267.045 47.9576 270.742 61.8976 274.877C75.8375 279.012 92.0799 283.985 101.227 286.616" fill="#E0E0E0"/>
<path d="M32.937 277.366C33.1047 277.239 33.286 277.131 33.4774 277.044C33.8298 276.857 34.3467 276.59 34.9888 276.261C36.2732 275.627 38.0744 274.805 40.0714 273.912L45.201 271.68L46.7673 270.999C46.9513 270.901 47.1457 270.825 47.3469 270.771C47.1804 270.896 47.002 271.003 46.8143 271.093C46.4619 271.281 45.945 271.547 45.295 271.876C44.0028 272.494 42.1624 273.301 40.1968 274.178L35.0828 276.441L33.5165 277.131C33.3337 277.232 33.139 277.311 32.937 277.366Z" fill="#E0E0E0"/>
<path d="M47.3391 269.997C47.2764 269.997 45.4047 266.394 43.1649 261.884C40.9252 257.373 39.1709 253.684 39.2492 253.645C39.3275 253.606 41.1836 257.247 43.4234 261.758C45.6632 266.269 47.4409 269.958 47.3391 269.997Z" fill="#E0E0E0"/>
<path d="M68.4682 277.304C68.4025 277.102 68.3554 276.895 68.3272 276.685C68.2489 276.231 68.1392 275.659 68.0218 274.986C67.7633 273.545 67.3953 271.563 66.9097 269.386C66.4242 267.209 65.9308 265.259 65.5549 263.849C65.3747 263.184 65.2259 262.62 65.1085 262.173C65.0428 261.97 64.9982 261.76 64.9753 261.547C65.0723 261.737 65.151 261.937 65.2103 262.142C65.3434 262.534 65.5235 263.09 65.735 263.794C66.1579 265.196 66.6904 267.146 67.176 269.331C67.6615 271.516 67.9983 273.505 68.2097 274.954C68.3115 275.675 68.3899 276.262 68.429 276.669C68.4715 276.878 68.4847 277.091 68.4682 277.304Z" fill="#E0E0E0"/>
<path d="M56.9089 286.842C57.0294 286.687 57.1688 286.547 57.324 286.427C57.6451 286.129 58.0445 285.777 58.5144 285.354C59.5325 284.469 60.9421 283.247 62.5162 281.916C64.0904 280.584 65.5235 279.394 66.5729 278.54L67.8181 277.538C67.9666 277.405 68.1295 277.29 68.3037 277.193C68.1799 277.348 68.0409 277.49 67.8886 277.616L66.6982 278.681C65.6801 279.574 64.2627 280.788 62.6885 282.119C61.1144 283.451 59.6891 284.649 58.6397 285.503L57.3867 286.505C57.2414 286.636 57.081 286.749 56.9089 286.842Z" fill="#E0E0E0"/>
<path d="M74.7412 295.669C74.9005 295.474 75.0789 295.296 75.2737 295.136L76.84 293.766C78.1322 292.615 79.9334 291.041 81.9305 289.318C83.9275 287.595 85.7522 286.036 87.0836 284.924L88.6498 283.616C88.8369 283.45 89.0387 283.3 89.2529 283.17C89.092 283.361 88.9138 283.537 88.7203 283.695L87.1932 285.073C85.901 286.216 84.0998 287.79 82.1028 289.521C80.1057 291.252 78.281 292.795 76.9575 293.907L75.3912 295.215C75.1914 295.389 74.9735 295.541 74.7412 295.669Z" fill="#E0E0E0"/>
<path d="M88.7908 283.366C88.704 283.111 88.6385 282.849 88.595 282.583C88.4697 282.027 88.3209 281.307 88.1251 280.437C87.7335 278.621 87.1775 276.122 86.4883 273.389C85.7992 270.656 85.1178 268.181 84.6088 266.396C84.366 265.542 84.1624 264.829 84.0136 264.281C83.9271 264.026 83.8616 263.764 83.8178 263.498C83.9332 263.752 84.03 264.013 84.1076 264.281C84.2799 264.767 84.5148 265.479 84.7967 266.364C85.3449 268.134 86.0654 270.601 86.7546 273.35C87.4438 276.099 87.9685 278.605 88.3209 280.398C88.4932 281.307 88.6263 282.051 88.7046 282.56C88.7603 282.825 88.7892 283.095 88.7908 283.366Z" fill="#E0E0E0"/>
<path d="M396.448 100.153C385.484 92.7992 382.822 78.8436 383.025 66.2428C383.025 64.144 382.79 61.9277 383.754 60.0716C384.717 58.2156 387.035 56.9391 388.93 57.7614C390.496 58.4662 391.217 60.2674 392.118 61.7554C393.317 63.7394 395.055 65.3418 397.13 66.376C398.477 67.0495 400.137 67.441 401.445 66.6892C403.246 65.6555 403.411 63.1494 403.364 61.0584L403.082 49.3739C402.921 47.2864 403.098 45.1867 403.606 43.1557C404.217 41.1587 405.619 39.2948 407.6 38.6997C409.582 38.1045 412.056 39.2087 412.511 41.2527C412.602 42.1162 412.639 42.9846 412.62 43.8527C412.613 44.2863 412.735 44.7122 412.971 45.0762C413.207 45.4402 413.545 45.7258 413.944 45.8967C414.782 46.1317 415.604 45.5208 416.223 44.9022C418.337 42.7485 419.755 40.0075 421.078 37.2822C422.402 34.5568 423.67 31.8002 425.589 29.4507C427.508 27.1013 430.178 25.2374 433.17 25.0181C436.162 24.7989 439.38 26.5844 440.218 29.5134C441.056 32.4423 439.357 35.4653 437.532 37.8773C434.822 41.4673 431.607 44.6459 427.986 47.3142C427.292 47.7264 426.744 48.3452 426.419 49.0841C425.989 50.486 427.336 51.8486 428.722 52.2794C430.288 52.7727 431.972 52.5848 433.609 52.7414C435.245 52.8981 437.015 53.595 437.665 55.0909C438.558 57.2132 436.812 59.4843 435.073 60.9801C431.608 63.986 427.65 66.3705 423.373 68.0284C421.795 68.4938 420.317 69.2451 419.011 70.2447C417.789 71.3411 417.076 73.2363 417.852 74.6929C418.627 76.1496 420.561 76.5882 422.167 76.2592C423.772 75.9303 425.198 75.0297 426.717 74.4267C429.575 73.2911 433.287 73.4243 435.167 75.8677C435.74 76.715 436.108 77.6833 436.244 78.6969C436.38 79.7105 436.279 80.7417 435.95 81.7099C435.286 83.638 434.239 85.412 432.872 86.9256C428.405 92.4757 422.543 96.738 415.886 99.2758C409.261 101.704 403.097 102.408 396.433 100.129" fill="#EBEBEB"/>
<path d="M399.581 92.2269C401.542 85.3344 403.895 78.5596 406.629 71.9356C407.35 70.1736 408.055 68.4271 408.759 66.7121C409.464 64.997 410.153 63.2976 410.937 61.6843C412.45 58.576 414.133 55.5537 415.98 52.6311C417.719 49.8353 419.473 47.2353 421.133 44.7997C422.793 42.3641 424.391 40.1713 425.934 38.2135C428.345 35.1065 431 32.197 433.875 29.5127C434.885 28.5651 435.7 27.8525 436.224 27.3826L436.859 26.8422C436.929 26.7782 437.005 26.7206 437.086 26.6699C437.026 26.7452 436.957 26.8135 436.882 26.8735L436.271 27.4374C435.731 27.9308 434.94 28.6591 433.922 29.6224C431.094 32.3418 428.476 35.2712 426.09 38.3858C424.571 40.3514 422.958 42.5677 421.337 44.9876C419.716 47.4076 417.953 49.9998 416.223 52.8191C414.394 55.7328 412.726 58.7446 411.226 61.8409C410.443 63.4542 409.762 65.138 409.057 66.853L406.927 72.0766C404.188 78.6871 401.822 85.4458 399.839 92.3209" fill="#E0E0E0"/>
<path d="M411.038 61.6395C410.934 61.3532 410.86 61.0565 410.819 60.7545C410.702 60.175 410.553 59.337 410.388 58.3033C410.059 56.2279 409.699 53.346 409.308 50.1664C408.916 46.9868 408.524 44.1127 408.164 42.053C407.984 41.0193 407.827 40.1813 407.718 39.6096C407.642 39.3122 407.598 39.0078 407.585 38.7012C407.709 38.9823 407.801 39.2765 407.859 39.5783C408.023 40.1422 408.211 40.9723 408.43 41.9982C408.861 44.0579 409.308 46.932 409.691 50.1194C410.075 53.3068 410.404 56.0948 410.662 58.2641C410.78 59.243 410.889 60.0653 410.968 60.731C411.028 61.0299 411.052 61.3349 411.038 61.6395Z" fill="#E0E0E0"/>
<path d="M437.822 56.1402C437.473 56.226 437.116 56.2759 436.757 56.289C436.068 56.3673 435.065 56.4691 433.843 56.6336C431.384 56.939 428.009 57.4872 424.305 58.2468C420.6 59.0065 417.256 59.8601 414.907 60.5415C413.709 60.8704 412.753 61.168 412.088 61.3638C411.749 61.4942 411.397 61.5862 411.038 61.6379C411.36 61.4704 411.695 61.3315 412.041 61.2228C412.691 60.98 413.607 60.6433 414.829 60.2752C417.178 59.5312 420.514 58.6463 424.226 57.8709C427.393 57.2011 430.593 56.6966 433.812 56.3595C435.049 56.2263 436.052 56.1637 436.741 56.1402C437.101 56.1095 437.462 56.1095 437.822 56.1402Z" fill="#E0E0E0"/>
<path d="M399.863 91.7113C399.793 91.6062 399.73 91.4963 399.675 91.3824C399.55 91.124 399.393 90.8029 399.197 90.4191C398.79 89.5812 398.226 88.3516 397.553 86.8245C396.206 83.7702 394.467 79.4864 392.619 74.7406C390.771 69.9947 389.079 65.7031 387.795 62.6254C387.168 61.1296 386.643 59.8922 386.228 58.9837L385.821 57.9891C385.765 57.8746 385.723 57.7536 385.696 57.6289C385.696 57.6289 385.774 57.7385 385.892 57.9578L386.369 58.9211C386.776 59.7591 387.34 60.9886 388.014 62.5157C389.361 65.57 391.099 69.8459 392.948 74.5996C394.796 79.3533 396.519 83.6136 397.803 86.7462C398.43 88.242 398.947 89.4715 399.369 90.3878L399.777 91.3824C399.823 91.4865 399.853 91.5976 399.863 91.7113Z" fill="#E0E0E0"/>
<path d="M435.371 79.5645C435.262 79.6345 435.143 79.6874 435.018 79.7211L433.984 80.0892L430.186 81.3892C426.975 82.4934 422.558 84.0754 417.656 85.8218C412.753 87.5682 408.344 89.1031 405.126 90.1447C403.512 90.6616 402.197 91.0688 401.288 91.3351L400.231 91.6327C400.109 91.6721 399.983 91.6983 399.855 91.711C399.964 91.6409 400.082 91.5881 400.207 91.5544L401.241 91.1863C402.197 90.8652 403.481 90.4032 405.039 89.8785C408.25 88.7821 412.667 87.2001 417.57 85.4537C422.472 83.7073 426.881 82.1723 430.1 81.1307C431.713 80.6139 433.029 80.2066 433.937 79.9404L434.995 79.6428C435.117 79.6034 435.243 79.5771 435.371 79.5645Z" fill="#E0E0E0"/>
<path d="M510.124 148.083C510.03 149.146 509.723 150.179 509.221 151.121C508.719 152.062 508.033 152.894 507.203 153.565C505.528 154.898 503.569 155.83 501.478 156.29C497.477 157.292 492.778 156.564 488.831 155.358C490.444 151.074 495.096 148.482 497.524 147.323C501.377 145.483 509.466 144.496 510.124 148.106" fill="#EBEBEB"/>
<path d="M483.905 161.499C484.92 160.87 486.083 160.519 487.276 160.484C488.47 160.448 489.652 160.728 490.702 161.295C491.743 161.88 492.657 162.666 493.391 163.607C494.125 164.548 494.665 165.626 494.978 166.777C495.178 167.291 495.264 167.843 495.229 168.394C495.194 168.944 495.039 169.48 494.775 169.965C494.454 170.371 494.032 170.684 493.55 170.873C493.068 171.061 492.545 171.118 492.034 171.038C491.016 170.859 490.063 170.416 489.269 169.753C486.458 167.607 484.14 165.015 483.905 161.491" fill="#EBEBEB"/>
<path d="M473.591 160.996C474.464 160.737 475.361 160.569 476.269 160.495C477.26 160.377 478.262 160.377 479.253 160.495C480.462 160.601 481.663 160.786 482.847 161.051C485.024 161.54 487.046 162.556 488.737 164.011C489.233 164.466 489.681 164.97 490.076 165.515C490.236 165.706 490.36 165.923 490.444 166.157C490.373 166.204 489.802 165.319 488.525 164.262C486.824 162.925 484.847 161.981 482.738 161.497C481.571 161.243 480.392 161.049 479.206 160.918C478.243 160.789 477.27 160.757 476.3 160.824C475.403 160.95 474.497 161.008 473.591 160.996Z" fill="#E0E0E0"/>
<path d="M504.039 149.373C503.642 149.611 503.226 149.816 502.794 149.984C502.011 150.344 500.813 150.861 499.348 151.48C496.435 152.717 492.378 154.385 487.86 156.124C483.341 157.862 479.198 159.303 476.183 160.29C474.671 160.783 473.45 161.167 472.596 161.418C472.161 161.573 471.713 161.688 471.257 161.762C471.669 161.553 472.099 161.38 472.541 161.246L476.073 159.985C479.057 158.92 483.176 157.416 487.695 155.685L499.231 151.174L502.731 149.819C503.153 149.632 503.591 149.483 504.039 149.373Z" fill="#E0E0E0"/>
<path d="M480.6 157.175C482.588 155.626 484.178 153.627 485.239 151.342C486.3 149.056 486.801 146.551 486.701 144.034C486.638 142.749 486.238 141.253 485.032 140.83C483.826 140.408 482.566 141.324 481.743 142.303C480.047 144.371 479.002 146.896 478.74 149.559C478.477 152.221 479.01 154.901 480.271 157.261" fill="#EBEBEB"/>
<path d="M483.865 146.484C483.907 146.725 483.907 146.972 483.865 147.213C483.865 147.683 483.787 148.348 483.685 149.178C483.425 151.354 482.769 153.464 481.751 155.404C481.153 156.464 480.389 157.421 479.488 158.239C478.242 159.338 476.764 160.141 475.165 160.589C474.936 160.673 474.696 160.721 474.452 160.73C474.452 160.636 475.423 160.362 476.872 159.602C477.721 159.148 478.51 158.59 479.221 157.942C480.074 157.144 480.797 156.219 481.367 155.201C482.358 153.304 483.037 151.26 483.38 149.147C483.493 148.251 483.656 147.362 483.865 146.484Z" fill="#E0E0E0"/>
<path d="M40.7355 0.124997C41.9989 0.0520585 43.264 0.235048 44.455 0.662991C45.646 1.09093 46.7382 1.75501 47.6663 2.61539C49.516 4.35761 50.9413 6.50098 51.8326 8.88054C53.6887 13.3915 53.6338 19.0144 52.8977 23.8386C47.6036 22.6874 43.7819 17.6909 42.0042 15.0282C39.1927 10.8306 36.6631 1.53466 40.7355 0.148497" fill="#EBEBEB"/>
<path d="M60.8858 28.5459C59.9752 27.4636 59.3661 26.1603 59.12 24.7674C58.8739 23.3746 58.9994 21.9415 59.484 20.6126C59.993 19.2944 60.7592 18.0907 61.738 17.0715C62.7168 16.0524 63.8887 15.2382 65.1853 14.6764C66.3756 14.136 67.7853 13.7914 68.9522 14.371C69.484 14.6741 69.9245 15.1147 70.2276 15.6465C70.5307 16.1783 70.6853 16.7819 70.6751 17.3939C70.6422 18.6188 70.2855 19.8131 69.6413 20.8554C67.613 24.5048 64.9425 27.6688 60.8858 28.5459Z" fill="#EBEBEB"/>
<path d="M62.0918 40.7081C61.6411 39.7275 61.2896 38.7044 61.0424 37.6539C60.7329 36.5141 60.5594 35.3416 60.5255 34.1611C60.4454 32.7286 60.4585 31.2924 60.5647 29.8616C60.7657 27.2293 61.613 24.6873 63.0316 22.4609C63.4769 21.8019 63.9858 21.1881 64.5509 20.6283C64.9738 20.2524 65.2165 20.0723 65.2479 20.0958C65.2792 20.1193 64.3786 20.9886 63.3605 22.6645C62.0797 24.8816 61.3092 27.3563 61.105 29.9086C61.0046 31.3185 60.9811 32.7329 61.0346 34.1454C61.0418 35.2939 61.1705 36.4384 61.4183 37.5599C61.7185 38.5917 61.9436 39.6438 62.0918 40.7081Z" fill="#E0E0E0"/>
<path d="M43.2886 7.03906C43.6377 7.45569 43.947 7.90403 44.2127 8.37824C44.7844 9.26319 45.5832 10.5554 46.5621 12.1608C48.5121 15.3717 51.1592 19.8278 53.955 24.8321C56.7508 29.8364 59.1629 34.4256 60.831 37.7931C61.669 39.469 62.3268 40.8396 62.7654 41.795C63.0216 42.2751 63.2314 42.7786 63.3919 43.2986C63.0802 42.8517 62.8052 42.3803 62.5696 41.889L60.4864 37.9732C58.7322 34.6605 56.2731 30.0948 53.4773 25.1062L46.2254 12.3879C45.3326 10.8216 44.5964 9.52163 44.0326 8.5192C43.7433 8.04768 43.4944 7.55253 43.2886 7.03906Z" fill="#E0E0E0"/>
<path d="M56.4141 33.149C54.261 31.082 51.6452 29.5594 48.7845 28.708C45.9238 27.8566 42.9011 27.7011 39.9681 28.2544C38.4801 28.5442 36.8355 29.2647 36.5066 30.7526C36.1777 32.2406 37.5012 33.5485 38.7855 34.3551C41.5003 35.9929 44.6397 36.7889 47.8068 36.6426C50.9739 36.4962 54.0265 35.414 56.5786 33.5328" fill="#EBEBEB"/>
<path d="M43.3512 31.1844C43.6229 31.089 43.909 31.0413 44.197 31.0434C44.7452 30.9808 45.544 30.9416 46.5464 30.9259C49.1384 30.8548 51.7214 31.2609 54.1664 32.1241C55.51 32.6379 56.7591 33.3709 57.8628 34.2935C58.7616 35.0512 59.5521 35.9287 60.2123 36.9013C60.6518 37.5483 61.0294 38.2353 61.34 38.9532C61.476 39.1979 61.5737 39.462 61.6298 39.7363C61.528 39.7833 61.0424 38.6556 59.899 37.0893C59.2177 36.1827 58.4288 35.3622 57.5496 34.6459C56.4693 33.7881 55.2652 33.099 53.9785 32.6019C51.5874 31.7677 49.0784 31.3209 46.5464 31.2784C45.4804 31.3066 44.4137 31.2752 43.3512 31.1844Z" fill="#E0E0E0"/>
<path d="M263.718 302.397C263.282 301.357 263.061 300.24 263.068 299.112C263.075 297.984 263.309 296.869 263.757 295.834C264.663 293.762 266.035 291.926 267.766 290.47C271.009 287.572 275.747 285.951 280.03 285.129C280.626 289.93 277.564 294.628 275.856 296.876C273.162 300.494 266.098 305.381 263.718 302.358" fill="#EBEBEB"/>
<path d="M281.62 276.985C280.983 278.077 280.067 278.979 278.966 279.6C277.865 280.22 276.619 280.537 275.355 280.517C274.095 280.482 272.854 280.196 271.706 279.675C270.557 279.155 269.524 278.411 268.667 277.486C268.228 277.105 267.877 276.631 267.641 276.1C267.404 275.568 267.286 274.991 267.296 274.409C267.394 273.872 267.633 273.37 267.99 272.957C268.347 272.544 268.808 272.234 269.325 272.059C270.363 271.725 271.47 271.671 272.536 271.903C276.216 272.521 279.654 273.798 281.604 276.977" fill="#EBEBEB"/>
<path d="M291.511 272.387C290.825 273.061 290.069 273.659 289.256 274.172C288.391 274.772 287.457 275.266 286.476 275.645C285.295 276.137 284.084 276.553 282.85 276.89C280.575 277.504 278.183 277.547 275.888 277.015C275.202 276.836 274.536 276.589 273.898 276.279C273.46 276.036 273.233 275.887 273.248 275.856C273.264 275.825 274.251 276.318 275.966 276.678C278.212 277.098 280.524 277.009 282.732 276.42C283.944 276.083 285.139 275.686 286.311 275.23C287.275 274.88 288.2 274.429 289.068 273.883C289.849 273.331 290.665 272.832 291.511 272.387Z" fill="#E0E0E0"/>
<path d="M268.8 298.2C269.054 297.782 269.342 297.387 269.662 297.017C270.233 296.281 271.087 295.224 272.144 293.932C274.259 291.339 277.227 287.792 280.602 283.947C283.977 280.101 287.126 276.726 289.459 274.322C290.618 273.116 291.574 272.152 292.247 271.502C292.58 271.146 292.941 270.819 293.328 270.523C293.049 270.921 292.734 271.293 292.388 271.635C291.691 272.419 290.822 273.374 289.71 274.557C287.439 277.016 284.338 280.438 280.962 284.275L272.41 294.151L269.803 297.142C269.499 297.523 269.164 297.876 268.8 298.2Z" fill="#E0E0E0"/>
<path d="M286.812 279.405C285.722 281.828 285.224 284.477 285.36 287.131C285.496 289.786 286.262 292.369 287.596 294.668C288.277 295.835 289.389 297.018 290.728 296.838C292.067 296.658 292.788 295.17 293.078 293.846C293.642 291.081 293.377 288.21 292.313 285.596C291.25 282.981 289.437 280.74 287.102 279.154" fill="#EBEBEB"/>
<path d="M289.029 290.979C289.029 290.979 288.864 290.752 288.653 290.306C288.441 289.859 288.175 289.209 287.87 288.387C287.044 286.226 286.619 283.933 286.617 281.62C286.653 280.337 286.897 279.068 287.337 277.861C287.711 276.886 288.216 275.966 288.841 275.128C289.253 274.562 289.72 274.037 290.235 273.562C290.595 273.225 290.806 273.053 290.83 273.076C290.853 273.1 290.102 273.859 289.123 275.316C288.563 276.157 288.105 277.061 287.76 278.01C287.362 279.174 287.14 280.391 287.102 281.62C287.113 283.881 287.483 286.125 288.199 288.269C288.527 289.156 288.804 290.061 289.029 290.979Z" fill="#E0E0E0"/>
<path d="M274.064 24.4292C274.54 25.0027 274.896 25.6664 275.109 26.3804C275.323 27.0945 275.39 27.8443 275.306 28.5849C275.133 30.0699 274.62 31.495 273.807 32.7497C272.317 35.207 269.635 37.1462 267.086 38.4929C265.784 35.5733 266.812 32.0122 267.457 30.262C268.462 27.4551 271.984 23.0028 274.072 24.454" fill="#EBEBEB"/>
<path d="M267.654 43.9475C267.846 43.1347 268.251 42.3876 268.827 41.7827C269.403 41.1779 270.13 40.7372 270.932 40.5057C271.735 40.2848 272.575 40.2262 273.401 40.3335C274.227 40.4408 275.024 40.7117 275.744 41.1305C276.096 41.2871 276.409 41.5187 276.661 41.8091C276.913 42.0995 277.099 42.4416 277.205 42.8114C277.247 43.1697 277.192 43.5327 277.047 43.8627C276.901 44.1928 276.669 44.4777 276.376 44.6879C275.785 45.0993 275.095 45.3472 274.377 45.4067C271.931 45.7261 269.511 45.5828 267.665 43.9495" fill="#EBEBEB"/>
<path d="M262.289 48.7635C262.593 48.2052 262.955 47.6809 263.37 47.1995C263.801 46.6538 264.296 46.1612 264.843 45.7323C265.494 45.1929 266.18 44.6962 266.895 44.2454C268.214 43.4181 269.718 42.9293 271.271 42.8223C271.739 42.8034 272.208 42.8307 272.671 42.9037C272.995 42.9725 273.167 43.0227 273.163 43.0455C273.159 43.0684 272.44 42.947 271.287 43.0503C269.786 43.2188 268.342 43.7209 267.06 44.5197C266.359 44.9665 265.68 45.4481 265.027 45.9629C264.485 46.3698 263.988 46.8336 263.545 47.3464C263.158 47.8456 262.738 48.319 262.289 48.7635Z" fill="#E0E0E0"/>
<path d="M271.662 28.063C271.582 28.3759 271.477 28.6816 271.346 28.9768C271.127 29.5524 270.791 30.3854 270.372 31.4063C269.536 33.4529 268.345 36.2682 266.953 39.3502C265.562 42.4322 264.224 45.1733 263.213 47.1435C262.713 48.1295 262.295 48.9228 261.995 49.4636C261.853 49.7528 261.688 50.0295 261.5 50.291C261.6 49.9855 261.727 49.6896 261.88 49.4067C262.169 48.7772 262.534 48.0055 263.009 47.0434C263.97 45.0507 265.269 42.2889 266.662 39.2118L270.162 31.3191L271.233 28.9248C271.351 28.6259 271.495 28.3376 271.662 28.063Z" fill="#E0E0E0"/>
<path d="M263.904 43.4192C264.126 41.6767 263.93 39.9065 263.331 38.2551C262.733 36.6037 261.75 35.1186 260.463 33.9226C259.807 33.3166 258.876 32.7837 258.064 33.1561C257.253 33.5284 257.085 34.608 257.157 35.5005C257.333 37.3574 258.056 39.1205 259.232 40.5678C260.409 42.015 261.988 43.0817 263.77 43.6335" fill="#EBEBEB"/>
<path d="M260.269 36.5311C260.269 36.5311 260.417 36.6429 260.637 36.8843C260.857 37.1256 261.15 37.4851 261.502 37.9459C262.441 39.1521 263.152 40.5195 263.6 41.9809C263.825 42.7994 263.916 43.6486 263.87 44.496C263.823 45.1849 263.68 45.8638 263.447 46.5138C263.296 46.9514 263.102 47.3731 262.869 47.7729C262.706 48.0553 262.606 48.205 262.586 48.1947C262.567 48.1844 262.895 47.5591 263.233 46.4495C263.425 45.8101 263.539 45.1502 263.574 44.4836C263.601 43.6711 263.507 42.8591 263.293 42.0747C262.85 40.6479 262.183 39.3008 261.317 38.0836C260.938 37.5868 260.588 37.0684 260.269 36.5311Z" fill="#E0E0E0"/>
</svg>
