<svg width="349" height="233" viewBox="0 0 349 233" fill="none" xmlns="http://www.w3.org/2000/svg">
<path d="M49.3895 231.721C6.76695 203.083 -20.0255 141.141 18.8089 110.701C57.6434 80.261 -17.5713 38.8538 105.301 6.02947C192.465 -17.264 210.425 47.132 256.474 41.3519C313.243 34.2265 350.393 83.861 348.136 143.657C346.267 193.207 324.73 232.109 324.73 232.109L49.3895 231.721Z" fill="#FADDC6"/>
<path d="M248.024 95.018C248.024 95.018 246.366 89.6814 245.425 89.108C244.484 88.5347 240.562 86.6025 240.328 87.1251C240.095 87.6477 242.446 90.1816 242.969 91.0268C243.493 91.8719 243.753 92.7081 243.387 92.3423C243.02 91.9764 241.036 90.755 240.826 91.0268C240.617 91.2985 241.819 92.3423 242.394 93.1784C242.968 94.0146 243.59 95.4182 245.634 95.7347C247.679 96.0513 248.024 95.018 248.024 95.018Z" fill="#FFB27D"/>
<path d="M311.218 144.641C311.218 144.641 310.721 149.463 310.171 150.374C309.621 151.285 307.305 154.201 306.317 154.773C305.328 155.345 306.915 150.933 306.719 150.074C306.523 149.216 305.906 151.641 305.47 151.699C305.035 151.757 305.147 149.572 305.131 148.778C305.115 147.984 307.25 146.023 308.004 144.331C308.758 142.64 311.218 144.641 311.218 144.641Z" fill="#FFB27D"/>
<path d="M296.074 95.1733C296.074 95.1733 291.465 114.414 265.266 117.259C258.124 118.035 244.9 97.4519 244.9 97.4519C244.9 97.4519 244.574 93.0306 248.026 93.5099C248.026 93.5099 262.642 106.535 264.562 107.631C266.267 108.603 281.491 97.6878 286.601 95.5152C291.712 93.3426 296.074 95.1733 296.074 95.1733Z" fill="#DE7F33"/>
<path d="M322.454 218.866C322.454 218.866 325.195 221.364 324.661 223.138C324.127 224.912 321.652 226.096 321.317 228.266C320.982 230.435 319.647 231.618 318.443 231.618H312.706C312.706 231.618 311.819 230.09 313.959 229.63C316.099 229.171 316.905 226.622 316.772 224.255C316.639 221.888 316.973 218.73 316.973 218.73L321.519 217.685L322.454 218.866Z" fill="#233862"/>
<path d="M288.824 225.326C288.824 225.326 289.316 231.01 288.112 231.597L272.708 231.566C272.708 231.566 272.708 229.79 275.181 229.396C277.655 229.002 282.001 227.556 282.737 224.336C283.473 221.115 288.824 225.326 288.824 225.326Z" fill="#233862"/>
<path d="M275.823 145.033C275.823 145.033 276.635 154.996 277.589 166.974C278.887 183.249 280.447 203.227 280.601 207.013C280.869 213.583 281.94 224.103 281.94 224.103C281.94 224.103 284.482 226.601 289.567 225.548C289.567 225.548 294.097 210.537 295.391 194.654C295.41 194.393 295.43 194.132 295.45 193.869C296.654 177.699 298.525 143.652 298.525 143.652L275.823 145.033Z" fill="#2A4E96"/>
<path d="M275.823 145.033C275.823 145.033 276.635 154.996 277.589 166.974L295.386 194.654C295.406 194.393 295.425 194.132 295.446 193.869C296.65 177.699 298.521 143.652 298.521 143.652L275.823 145.033Z" fill="#233862"/>
<path d="M279.532 146.216C279.532 146.216 294.173 182.3 303.802 199.258C313.43 216.216 316.437 220.948 316.437 220.948C316.437 220.948 321.953 218.78 322.454 217.3C322.454 217.3 318.773 184.562 312.326 176.582C308.683 172.073 304.4 158.541 304.202 153.807C304.005 149.074 302.898 139.709 302.898 139.709L279.532 146.216Z" fill="#2A4E96"/>
<path d="M298.796 90.6072C298.796 90.6072 288.89 95.3853 283.178 93.6085C284.264 92.3494 285.575 91.3024 287.044 90.5206C286.847 89.3768 286.693 88.3824 286.604 87.5342C286.468 86.5246 286.388 85.5082 286.364 84.4897L290.186 81.4884L293.81 78.6155C293.524 86.6981 298.796 90.6072 298.796 90.6072Z" fill="#FFB27D"/>
<path d="M304.017 141.557C304.039 142.162 302.744 142.853 302.171 143.112C297.933 144.969 293.979 146.264 289.497 146.695C284.204 147.236 277.942 146.047 275.79 146.098C275.568 146.095 275.355 146.011 275.192 145.86C275.042 145.751 274.929 139.382 275.042 131.377C275.042 131.054 275.042 130.73 275.063 130.406V130.299C275.108 127.163 275.213 123.878 275.372 120.602C275.678 113.388 276.251 106.435 277.217 102.591C278.38 98.0566 281.017 95.0553 283.411 92.8723L285.384 91.1328C287.361 91.521 289.449 91.4135 291.537 90.3981C293.82 89.2976 296.28 88.1091 296.675 88.4122C299.666 90.5922 301.684 95.4943 302.761 101.758C302.761 101.79 302.773 101.819 302.777 101.851C303.406 105.746 303.702 109.688 303.661 113.633C303.661 115.191 303.618 116.787 303.529 118.364C303.09 125.506 303.38 131.863 303.679 136.268C303.734 137.139 303.793 137.933 303.843 138.641C303.929 139.901 303.994 140.866 304.017 141.557Z" fill="#F99746"/>
<path d="M303.677 136.268C287.255 117.338 297.442 103.58 297.442 103.58L302.782 101.851C303.41 105.746 303.706 109.688 303.665 113.633C303.665 115.191 303.622 116.787 303.534 118.364C303.094 125.506 303.389 131.863 303.677 136.268Z" fill="#DE7F33"/>
<path d="M293.876 81.7094C293.876 81.7094 291.372 86.2665 286.604 87.5402C286.468 86.5306 286.388 85.5141 286.364 84.4956L290.186 81.4944L293.876 81.7094Z" fill="#ED985F"/>
<path d="M284.621 84.3642C284.621 84.3642 294.072 85.9082 294.958 80.1072C295.845 74.3062 297.662 70.5987 291.668 69.3683C285.674 68.1379 284.158 70.1761 283.383 72.0426C282.608 73.909 282.185 83.8132 284.621 84.3642Z" fill="#FFB27D"/>
<path d="M298.395 68.6769C298.48 68.5799 298.678 68.5007 299.119 68.4769C298.868 68.3336 298.585 68.2542 298.296 68.2454C298.204 67.6332 297.879 66.5507 296.825 66.2879C296.996 66.3883 297.143 66.5259 297.253 66.6906C297.364 66.8552 297.437 67.0427 297.465 67.239C296.245 65.9877 293.629 65.0769 286.386 65.6473C276.84 66.3939 279.987 72.5024 281.222 73.2296C282.457 73.9568 285.568 71.9619 287.871 72.1456C290.174 72.3292 290.611 75.6486 291.392 76.1055C292.172 76.5624 291.866 75.7546 292.923 75.2783C293.98 74.8019 294.081 76.549 293.775 77.6867C293.47 78.8245 294.921 80.3222 294.921 80.3222L296.39 78.7439C297.857 77.1671 299.24 70.4837 298.572 69.0592L298.395 68.6769Z" fill="#2C3A64"/>
<path d="M296.675 88.3644C296.675 88.3644 302.657 91.191 305.523 95.5316C309.971 102.273 315.124 126.843 315.22 129.119C315.316 131.395 311.457 147.457 311.457 147.457C311.457 147.457 307.545 147.2 306.535 145.227C306.535 145.227 307.317 128.723 306.822 127.663C306.327 126.603 290.511 105.524 292.289 101.027C294.067 96.5291 296.675 88.3644 296.675 88.3644Z" fill="#F99746"/>
<path d="M242.896 93.9429C242.896 93.9429 241.272 91.3358 241.453 90.8237C241.634 90.3115 243.651 92.5125 244.167 92.3826C244.683 92.2526 242.896 93.9429 242.896 93.9429Z" fill="#FFB27D"/>
<path d="M223.061 21.7839H140.831C132.708 21.7839 126.124 28.3581 126.124 36.4678V216.932C126.124 225.042 132.708 231.616 140.831 231.616H223.061C231.183 231.616 237.768 225.042 237.768 216.932V36.4678C237.768 28.3581 231.183 21.7839 223.061 21.7839Z" fill="#2B478B"/>
<path d="M232.236 37.8579V214.14C232.236 220.122 227.369 225.013 221.426 225.013H142.462C136.518 225.013 131.654 220.122 131.654 214.14V37.8579C131.654 31.8778 136.518 26.9846 142.462 26.9846H221.426C227.369 26.9846 232.236 31.8778 232.236 37.8579Z" fill="#D5E8FA"/>
<path d="M198.447 23.0143H165.447C162.748 23.0143 160.56 25.199 160.56 27.894V28.6615C160.56 31.3564 162.748 33.5411 165.447 33.5411H198.447C201.147 33.5411 203.335 31.3564 203.335 28.6615V27.894C203.335 25.199 201.147 23.0143 198.447 23.0143Z" fill="#2B478B"/>
<path d="M203.295 131.373C216.363 118.326 216.363 97.1722 203.295 84.1249C190.227 71.0776 169.04 71.0776 155.972 84.1249C142.904 97.1722 142.904 118.326 155.972 131.373C169.04 144.421 190.227 144.421 203.295 131.373Z" fill="#B0D4FF"/>
<mask id="mask0_2891_2673" style="mask-type:luminance" maskUnits="userSpaceOnUse" x="146" y="74" width="68" height="68">
<path d="M203.295 131.373C216.363 118.326 216.363 97.1722 203.295 84.1249C190.227 71.0776 169.04 71.0776 155.972 84.1249C142.904 97.1722 142.904 118.326 155.972 131.373C169.04 144.421 190.227 144.421 203.295 131.373Z" fill="white"/>
</mask>
<g mask="url(#mask0_2891_2673)">
<path d="M196.858 112.006V141.154H198.434V112.006C198.434 111.796 198.351 111.595 198.202 111.447C198.054 111.299 197.853 111.216 197.643 111.216C197.434 111.218 197.234 111.301 197.087 111.449C196.94 111.597 196.858 111.797 196.858 112.006Z" fill="#2C3A64"/>
<path d="M165.476 110.407V141.154H167.052V110.407C167.052 110.197 166.968 109.996 166.82 109.848C166.672 109.7 166.47 109.617 166.261 109.617C166.052 109.618 165.852 109.702 165.705 109.85C165.558 109.998 165.476 110.198 165.476 110.407Z" fill="#2C3A64"/>
<path d="M188.025 102.599C187.868 102.676 187.739 102.802 187.659 102.958C187.578 103.113 187.549 103.29 187.576 103.463C187.676 103.974 187.727 104.493 187.726 105.013V141.148H189.302V105.013C189.303 104.391 189.243 103.771 189.123 103.16C189.107 103.042 189.063 102.928 188.995 102.83C188.926 102.732 188.835 102.652 188.729 102.596C188.623 102.54 188.505 102.511 188.385 102.511C188.265 102.51 188.147 102.538 188.04 102.593L188.025 102.599Z" fill="#2C3A64"/>
<path d="M180.425 117.32V105.939C180.428 105.728 180.349 105.523 180.205 105.369C180.06 105.214 179.862 105.122 179.65 105.11C179.545 105.108 179.439 105.126 179.341 105.164C179.243 105.203 179.153 105.261 179.077 105.334C179.001 105.408 178.941 105.496 178.9 105.593C178.859 105.69 178.838 105.795 178.838 105.9V117.319C178.838 117.422 178.858 117.525 178.898 117.621C178.938 117.717 178.996 117.805 179.069 117.878C179.143 117.952 179.23 118.01 179.326 118.05C179.422 118.089 179.525 118.11 179.629 118.11C179.733 118.11 179.837 118.09 179.933 118.051C180.03 118.011 180.117 117.953 180.191 117.88C180.265 117.806 180.324 117.719 180.364 117.623C180.404 117.527 180.425 117.424 180.425 117.32Z" fill="#2C3A64"/>
<path d="M178.841 128.562V141.154H180.417V128.562C180.417 128.458 180.397 128.355 180.357 128.259C180.317 128.164 180.259 128.076 180.185 128.003C180.111 127.93 180.024 127.872 179.928 127.832C179.832 127.792 179.729 127.772 179.625 127.772C179.416 127.774 179.217 127.858 179.07 128.006C178.923 128.154 178.841 128.354 178.841 128.562Z" fill="#2C3A64"/>
<path d="M183.262 139.102V141.154H184.838V139.102C184.838 138.999 184.818 138.896 184.778 138.8C184.738 138.704 184.68 138.617 184.606 138.543C184.532 138.47 184.445 138.412 184.349 138.372C184.253 138.333 184.15 138.312 184.045 138.313C183.837 138.314 183.638 138.399 183.491 138.546C183.344 138.694 183.262 138.894 183.262 139.102Z" fill="#2C3A64"/>
<path d="M179.632 87.1221C179.632 87.3245 179.709 87.5193 179.848 87.6665C179.987 87.8136 180.178 87.902 180.38 87.9135C184.421 88.0952 188.27 89.689 191.254 92.4164C194.238 95.1439 196.167 98.8315 196.704 102.835C196.728 103.026 196.821 103.201 196.966 103.328C197.11 103.455 197.296 103.526 197.489 103.526C197.602 103.526 197.713 103.502 197.816 103.455C197.919 103.409 198.01 103.341 198.085 103.256C198.159 103.171 198.214 103.071 198.247 102.963C198.28 102.856 198.289 102.742 198.274 102.63C197.687 98.2581 195.58 94.2309 192.321 91.2524C189.062 88.2739 184.858 86.5335 180.444 86.3352C180.339 86.3318 180.234 86.3497 180.135 86.3877C180.037 86.4257 179.947 86.4832 179.871 86.5566C179.795 86.63 179.735 86.718 179.694 86.8151C179.653 86.9123 179.632 87.0167 179.632 87.1221Z" fill="#2C3A64"/>
<path d="M169.202 90.4041C169.072 90.2411 168.882 90.1362 168.674 90.1122C168.466 90.0881 168.257 90.1469 168.093 90.2757C165.83 92.0292 163.998 94.2761 162.739 96.8447C161.479 99.4132 160.824 102.235 160.824 105.095V117.716C160.824 117.925 160.908 118.126 161.056 118.274C161.205 118.422 161.406 118.506 161.616 118.506C161.825 118.506 162.027 118.422 162.175 118.274C162.323 118.126 162.407 117.925 162.407 117.716V105.095C162.406 102.476 163.005 99.8913 164.158 97.5387C165.312 95.1862 166.989 93.1283 169.062 91.5225C169.145 91.4585 169.215 91.3786 169.268 91.2873C169.32 91.1961 169.354 91.0955 169.367 90.9911C169.38 90.8868 169.372 90.781 169.344 90.6797C169.316 90.5784 169.268 90.4837 169.202 90.4011V90.4041Z" fill="#2C3A64"/>
<path d="M160.824 127.956V141.161H162.401V127.956C162.401 127.852 162.381 127.749 162.341 127.653C162.301 127.557 162.243 127.47 162.17 127.396C162.096 127.323 162.009 127.265 161.913 127.225C161.817 127.185 161.714 127.164 161.61 127.164C161.401 127.166 161.201 127.25 161.054 127.398C160.906 127.547 160.824 127.747 160.824 127.956Z" fill="#2C3A64"/>
<path d="M192.999 116.175C193.103 116.175 193.206 116.154 193.302 116.114C193.398 116.075 193.486 116.016 193.559 115.943C193.633 115.869 193.691 115.782 193.731 115.686C193.77 115.59 193.791 115.487 193.79 115.383V105.487C193.79 97.8461 187.781 91.4643 180.135 91.1985C177.101 91.0949 174.114 91.9661 171.613 93.6839C169.112 95.4017 167.229 97.8755 166.241 100.741C166.205 100.849 166.192 100.963 166.204 101.076C166.215 101.189 166.252 101.299 166.31 101.396C166.368 101.494 166.446 101.578 166.54 101.643C166.634 101.707 166.741 101.751 166.853 101.77C167.04 101.802 167.233 101.767 167.395 101.669C167.558 101.572 167.681 101.42 167.741 101.24C168.591 98.7872 170.179 96.6567 172.289 95.1407C174.399 93.6247 176.927 92.7974 179.526 92.7723C186.501 92.7141 192.207 98.5135 192.207 105.478V115.383C192.207 115.487 192.227 115.59 192.267 115.686C192.307 115.782 192.365 115.869 192.439 115.943C192.512 116.016 192.6 116.075 192.696 116.115C192.792 116.154 192.895 116.175 192.999 116.175Z" fill="#2C3A64"/>
<path d="M192.213 126.077V141.159H193.789V126.077C193.789 125.974 193.769 125.871 193.729 125.775C193.689 125.679 193.631 125.591 193.558 125.518C193.484 125.444 193.397 125.386 193.301 125.346C193.205 125.307 193.102 125.286 192.998 125.286C192.789 125.288 192.589 125.372 192.442 125.521C192.295 125.669 192.213 125.869 192.213 126.077Z" fill="#2C3A64"/>
<path d="M183.262 116.266V134.078C183.262 134.287 183.345 134.488 183.494 134.636C183.642 134.785 183.843 134.868 184.053 134.868C184.157 134.868 184.26 134.848 184.356 134.808C184.452 134.768 184.54 134.71 184.613 134.637C184.687 134.564 184.745 134.476 184.785 134.381C184.825 134.285 184.846 134.182 184.846 134.078V116.266C184.846 116.162 184.825 116.059 184.785 115.963C184.745 115.867 184.687 115.78 184.613 115.707C184.54 115.633 184.452 115.575 184.356 115.536C184.26 115.496 184.157 115.476 184.053 115.476C183.843 115.476 183.642 115.559 183.494 115.707C183.345 115.855 183.262 116.056 183.262 116.266Z" fill="#2C3A64"/>
<path d="M179.62 99.8425C178.849 99.8439 178.088 100.017 177.393 100.348C176.697 100.679 176.084 101.161 175.597 101.758C175.527 101.843 175.475 101.942 175.445 102.048C175.416 102.154 175.409 102.265 175.425 102.374C175.442 102.483 175.481 102.587 175.54 102.68C175.6 102.773 175.678 102.852 175.771 102.912L175.789 102.924C175.954 103.031 176.152 103.072 176.346 103.039C176.54 103.007 176.714 102.904 176.836 102.75C177.413 102.046 178.234 101.585 179.136 101.458C181.331 101.159 183.269 102.924 183.269 105.137V107.307C183.269 107.411 183.289 107.514 183.329 107.61C183.369 107.706 183.427 107.793 183.501 107.866C183.574 107.94 183.661 107.998 183.757 108.038C183.853 108.078 183.956 108.098 184.06 108.098C184.271 108.098 184.472 108.015 184.621 107.866C184.77 107.718 184.853 107.517 184.853 107.307V105.142C184.846 102.248 182.52 99.835 179.62 99.8425Z" fill="#2C3A64"/>
<path d="M174.416 110.195V141.154H175.991V110.195C175.991 109.988 175.908 109.79 175.762 109.643C175.616 109.497 175.417 109.415 175.21 109.415H175.188C174.982 109.418 174.786 109.501 174.641 109.647C174.497 109.793 174.416 109.989 174.416 110.195Z" fill="#2C3A64"/>
<path d="M169.967 130.92V141.154H171.543V130.92C171.543 130.816 171.523 130.713 171.483 130.617C171.443 130.521 171.385 130.434 171.312 130.36C171.238 130.287 171.151 130.228 171.055 130.189C170.959 130.149 170.856 130.128 170.752 130.128C170.543 130.13 170.343 130.215 170.196 130.363C170.049 130.511 169.967 130.711 169.967 130.92Z" fill="#2C3A64"/>
<path d="M179.632 95.3629C177.07 95.3661 174.613 96.3838 172.801 98.1929C170.989 100.002 169.97 102.455 169.967 105.013V123.871C169.967 123.974 169.987 124.077 170.027 124.173C170.067 124.269 170.125 124.356 170.199 124.43C170.272 124.503 170.36 124.561 170.456 124.601C170.552 124.64 170.655 124.661 170.759 124.66C170.969 124.66 171.17 124.577 171.319 124.429C171.467 124.281 171.55 124.08 171.55 123.871V105.013C171.553 102.875 172.404 100.825 173.918 99.3118C175.432 97.799 177.484 96.947 179.626 96.9427H179.635C179.737 96.9439 179.839 96.9249 179.933 96.8868C180.028 96.8488 180.114 96.7924 180.187 96.7209C180.26 96.6495 180.318 96.5643 180.358 96.4704C180.398 96.3765 180.418 96.2757 180.419 96.1737V96.1319C180.42 95.9298 180.34 95.7355 180.198 95.5915C180.056 95.4474 179.863 95.3653 179.661 95.3629H179.632Z" fill="#2C3A64"/>
</g>
<path d="M144.872 183.045L148.489 171.067H151.308L154.919 183.045H152.662L151.914 180.423H147.771L147.007 183.045H144.872ZM148.311 178.516H151.365L149.835 173.159L148.311 178.516Z" fill="#F99746"/>
<path d="M162.661 179.47L164.74 180.041C164.441 181.077 163.914 181.869 163.16 182.418C162.407 182.966 161.459 183.242 160.319 183.244C158.761 183.244 157.584 182.726 156.789 181.691C155.995 180.655 155.596 179.129 155.593 177.113C155.593 175.135 156.015 173.608 156.858 172.532C157.702 171.455 158.898 170.918 160.447 170.919C161.527 170.919 162.414 171.187 163.107 171.724C163.799 172.26 164.262 173.035 164.493 174.049L162.414 174.555C162.307 174.053 162.045 173.598 161.666 173.251C161.287 172.944 160.809 172.785 160.32 172.803C159.945 172.789 159.573 172.883 159.249 173.073C158.924 173.263 158.662 173.542 158.491 173.877C158.093 174.594 157.893 175.676 157.893 177.123C157.893 178.529 158.093 179.566 158.491 180.236C158.89 180.906 159.516 181.242 160.368 181.243C160.89 181.253 161.4 181.084 161.811 180.763C162.227 180.435 162.525 179.982 162.661 179.47Z" fill="#F99746"/>
<path d="M168.671 183.045V173.041H165.522V171.062H174.103V173.05H170.952V183.054L168.671 183.045Z" fill="#F99746"/>
<path d="M176.004 183.045V171.067H178.276V183.045H176.004Z" fill="#F99746"/>
<path d="M183.53 183.045L179.94 171.067H182.203L184.943 180.841L187.65 171.067H189.923L186.346 183.045H183.53Z" fill="#F99746"/>
<path d="M189.806 183.045L193.424 171.067H196.251L199.859 183.045H197.596L196.849 180.423H192.708L191.942 183.045H189.806ZM193.255 178.516H196.309L194.777 173.159L193.255 178.516Z" fill="#F99746"/>
<path d="M202.351 183.045V173.041H199.201V171.062H207.783V173.05H204.625V183.054L202.351 183.045Z" fill="#F99746"/>
<path d="M209.514 183.045V171.067H217.306V173.008H211.762V175.845H215.8V177.759H211.762V181.002H217.547V183.045H209.514Z" fill="#F99746"/>
<path d="M144.872 199.715L148.489 187.736H151.308L154.919 199.715H152.662L151.914 197.093H147.771L147.007 199.715H144.872ZM148.311 195.186H151.365L149.835 189.828L148.311 195.186Z" fill="#F99746"/>
<path d="M162.661 196.143L164.74 196.715C164.441 197.75 163.914 198.543 163.16 199.092C162.407 199.642 161.459 199.916 160.319 199.916C158.761 199.916 157.584 199.399 156.789 198.363C155.995 197.328 155.596 195.803 155.593 193.787C155.593 191.807 156.015 190.279 156.858 189.204C157.702 188.129 158.898 187.592 160.447 187.592C161.527 187.592 162.414 187.86 163.107 188.396C163.799 188.933 164.262 189.708 164.493 190.721L162.414 191.227C162.307 190.726 162.046 190.271 161.666 189.925C161.287 189.618 160.809 189.458 160.32 189.477C159.944 189.463 159.572 189.557 159.248 189.748C158.924 189.938 158.661 190.217 158.491 190.553C158.093 191.267 157.893 192.349 157.893 193.797C157.893 195.204 158.093 196.242 158.491 196.911C158.89 197.579 159.516 197.915 160.368 197.917C160.89 197.927 161.4 197.758 161.811 197.438C162.228 197.109 162.526 196.655 162.661 196.143Z" fill="#F99746"/>
<path d="M172.862 196.143L174.941 196.715C174.642 197.75 174.115 198.543 173.361 199.092C172.608 199.642 171.661 199.916 170.52 199.916C168.962 199.916 167.785 199.399 166.99 198.363C166.196 197.328 165.797 195.803 165.794 193.787C165.794 191.807 166.216 190.279 167.059 189.204C167.903 188.129 169.099 187.592 170.649 187.592C171.728 187.592 172.615 187.86 173.308 188.396C174.001 188.933 174.462 189.708 174.692 190.721L172.614 191.227C172.508 190.726 172.246 190.27 171.866 189.925C171.487 189.618 171.008 189.458 170.52 189.477C170.144 189.463 169.772 189.557 169.448 189.748C169.124 189.938 168.861 190.217 168.691 190.553C168.292 191.267 168.093 192.349 168.093 193.797C168.093 195.204 168.292 196.242 168.691 196.911C169.09 197.579 169.715 197.915 170.568 197.917C171.089 197.927 171.598 197.758 172.009 197.438C172.427 197.11 172.726 196.656 172.862 196.143Z" fill="#F99746"/>
<path d="M176.004 193.754C176.004 191.819 176.445 190.308 177.326 189.221C178.207 188.134 179.427 187.591 180.984 187.592C182.54 187.592 183.761 188.135 184.645 189.221C185.53 190.307 185.971 191.818 185.97 193.754C185.97 195.68 185.528 197.189 184.642 198.28C183.757 199.371 182.538 199.918 180.984 199.922C179.436 199.922 178.219 199.375 177.334 198.28C176.448 197.185 176.005 195.676 176.004 193.754ZM178.292 193.754C178.292 195.111 178.521 196.139 178.977 196.839C179.434 197.539 180.103 197.887 180.984 197.884C181.865 197.884 182.533 197.536 182.99 196.839C183.446 196.142 183.675 195.114 183.675 193.754C183.675 192.386 183.446 191.348 182.99 190.641C182.533 189.933 181.865 189.579 180.984 189.579C180.102 189.579 179.433 189.933 178.977 190.641C178.522 191.348 178.293 192.386 178.292 193.754Z" fill="#F99746"/>
<path d="M187.92 195.314V187.736H190.177V195.411C190.177 196.301 190.357 196.945 190.717 197.342C191.077 197.739 191.657 197.938 192.458 197.939C193.305 197.939 193.911 197.747 194.273 197.363C194.636 196.979 194.818 196.329 194.818 195.413V187.738H197.01V195.679C197.01 197.04 196.616 198.086 195.829 198.814C195.041 199.543 193.917 199.909 192.458 199.912C190.93 199.912 189.793 199.533 189.045 198.774C188.297 198.015 187.922 196.862 187.92 195.314Z" fill="#F99746"/>
<path d="M199.653 199.715V187.736H202.062L205.509 193.754C205.773 194.221 206.017 194.693 206.244 195.169C206.47 195.646 206.676 196.129 206.863 196.618C206.804 196.264 206.761 195.885 206.734 195.48C206.707 195.075 206.694 194.642 206.694 194.181V187.736H208.788V199.715H206.694L202.955 193.537C202.756 193.188 202.539 192.769 202.306 192.282C202.073 191.794 201.838 191.252 201.602 190.657C201.659 191.014 201.698 191.374 201.718 191.735C201.742 192.126 201.754 192.58 201.754 193.094V199.715H199.653Z" fill="#F99746"/>
<path d="M213.599 199.715V189.71H210.449V187.73H219.029V189.71H215.872V199.715H213.599Z" fill="#F99746"/>
<path d="M179.632 144.829C159.152 144.829 142.491 128.193 142.491 107.746C142.491 87.2983 159.152 70.6614 179.632 70.6614C200.112 70.6614 216.775 87.2968 216.775 107.746C216.775 128.195 200.113 144.829 179.632 144.829ZM179.632 72.5592C160.199 72.5592 144.389 88.345 144.389 107.749C144.389 127.153 160.199 142.937 179.632 142.937C199.065 142.937 214.877 127.151 214.877 107.749C214.877 88.3465 199.067 72.5592 179.632 72.5592Z" fill="#F99746"/>
<path d="M84.5673 140.548C84.5673 140.548 88.6621 142.871 89.8017 142.871C90.9413 142.871 95.4458 142.004 96.7006 142.643C97.9553 143.282 100.224 145.856 100.65 146.698C101.416 148.209 97.5665 147.542 95.7479 146.25C95.6177 146.158 95.4695 146.093 95.313 146.061C95.1564 146.029 94.9949 146.03 94.8386 146.064C93.8965 146.268 91.9388 146.623 90.9936 146.274C89.7224 145.805 83.0284 145.283 83.0284 145.283L84.5673 140.548Z" fill="#ED975D"/>
<path d="M53.4274 108.891C53.4274 108.891 57.6702 139.007 64.6977 141.705C68.1659 143.035 83.4906 146.053 88.028 146.356C88.028 146.356 89.1392 145.46 88.8685 141.796C88.8685 141.796 72.8125 135.91 70.5318 132.71C67.1369 127.947 72.639 113.25 68.3797 108.776C64.1205 104.303 56.9329 102.379 53.4274 108.891Z" fill="#233862"/>
<path d="M89.196 224.495C89.196 224.495 89.6447 231.594 91.0116 231.695C91.1956 231.709 97.9883 231.709 97.9883 231.709L106.662 231.658C106.662 231.658 106.606 229.568 104.071 229.132C101.536 228.696 97.2928 226.911 95.7569 223.567C94.1403 220.047 89.196 224.495 89.196 224.495Z" fill="#163560"/>
<path d="M54.8497 172.34C56.0946 174.406 57.4797 176.385 58.9953 178.262C63.5567 184.012 68.5218 188.752 69.3877 193.233C69.5832 194.208 69.8511 195.166 70.1893 196.101C70.5498 197.127 70.9969 198.207 71.5114 199.323C73.4556 203.521 76.3419 208.224 79.2328 212.501C84.2279 219.892 88.9268 226.059 88.9268 226.059C92.6911 225.791 95.5071 225.312 97.1074 224.546C96.7619 223.685 93.4388 214.625 88.4124 202.149C86.371 197.085 84.2009 191.696 82.1057 186.506C81.8275 185.812 81.5479 185.122 81.2727 184.437L79.3868 179.769L70.9072 158.732C70.9072 158.732 52.0411 151.597 50.0819 156.22C48.4668 160.028 49.7828 163.762 54.8497 172.34Z" fill="#599DAD"/>
<path d="M79.7981 204.911C79.7981 204.911 73.8055 208.756 74.3873 210.004C74.4651 210.171 77.7762 216.093 77.7762 216.093L82.0474 223.628C82.0474 223.628 83.842 222.562 82.9941 220.137C82.1461 217.712 81.6317 213.146 83.8076 210.177C86.0988 207.054 79.7981 204.911 79.7981 204.911Z" fill="#163560"/>
<path d="M84.3086 212.012C84.3086 212.012 79.2328 212.501 77.7552 206.323C77.7552 206.323 83.2049 186.796 86.5519 182.658C86.7015 182.469 86.6656 182.26 86.4637 182.031C83.9362 179.187 55.8577 173.402 52.1877 167.697C51.0936 166.024 50.2916 164.179 49.8157 162.239C48.9842 158.76 49.6423 156.357 49.6423 156.357L77.6849 155.548C77.6849 155.548 100.967 170.081 103.677 179.96C105.289 185.845 84.3086 212.012 84.3086 212.012Z" fill="#6BB7BF"/>
<path d="M86.4637 182.031C83.9363 179.187 55.8577 173.402 52.1877 167.697C51.0937 166.024 50.2917 164.179 49.8158 162.239V158.7L61.7352 156.828C61.7352 156.828 65.1151 167.211 75.1246 171.106C84.5001 174.753 86.2768 181.225 86.4637 182.031Z" fill="#5AA9AD"/>
<path d="M70.0114 106.993C64.3374 108.457 54.9335 103.21 54.9335 103.21C54.9335 103.21 58.5855 100.759 59.939 95.3763C60.0078 95.1046 60.0696 94.8264 60.1245 94.5417L63.0377 93.925L67.3748 97.8072C67.3748 97.8072 67.2761 99.4169 66.7347 102.182C66.641 102.665 66.5323 103.183 66.4087 103.735C67.799 104.592 69.0201 105.696 70.0114 106.993Z" fill="#FFB27D"/>
<path d="M48.9274 130.47C49.7395 141.382 48.6702 157.978 49.5914 160.852C50.3885 163.332 59.4529 161.858 63.0706 161.03C64.4091 160.731 66.0318 160.283 67.7068 159.768C72.3803 158.324 77.4726 156.26 78.0184 154.73C78.0389 154.672 78.0559 154.613 78.0693 154.554C78.1153 154.342 78.1117 154.122 78.0588 153.912C77.8764 153.131 77.175 152.286 77.0927 150.353C77 148.196 77.0134 145.654 76.9327 142.92C76.9327 142.613 76.9237 142.278 76.8908 141.971V141.859V141.684C76.8131 138.636 76.653 135.434 76.4676 132.256C76.3509 130.26 76.2148 128.283 76.0578 126.39C75.6495 121.502 75.1007 117.156 74.3738 114.407C73.1864 109.927 70.5662 107.005 68.1823 104.864L66.458 103.387C64.5333 103.807 62.2586 103.529 60.2007 102.556C57.9739 101.5 57.2096 100.743 56.8163 101.028C51.6672 104.989 47.9673 117.132 48.9274 130.47Z" fill="#2A4E96"/>
<path d="M67.7068 159.768C72.3803 158.324 77.4726 156.26 78.0184 154.73C78.0389 154.672 78.0559 154.613 78.0693 154.554C78.0693 154.339 78.0693 154.125 78.0588 153.912C77.8764 153.131 77.1749 152.286 77.0927 150.353C77 148.196 77.0134 145.654 76.9327 142.92C76.9327 142.613 76.9237 142.278 76.8908 141.971V141.859V141.684L57.9933 117.653C57.9933 117.653 45.2948 144.057 67.7068 159.768Z" fill="#233862"/>
<path d="M67.3702 97.8013C67.3702 97.8013 67.2715 99.4109 66.7302 102.176C62.4978 100.811 60.5791 96.9949 59.939 95.3763C60.0078 95.1046 60.0696 94.8264 60.1244 94.5417L63.0377 93.925L67.3702 97.8013Z" fill="#ED975D"/>
<path d="M67.9341 100.24C67.9341 100.24 58.7067 98.7031 59.7536 92.9798C60.8004 87.2565 60.3159 83.204 66.2516 83.9446C72.1874 84.6852 72.9292 87.0803 73.0443 89.0707C73.1595 91.0611 70.3673 100.492 67.9341 100.24Z" fill="#FFB27D"/>
<path d="M81.6003 147.564L104.631 148.055L111.049 128.337C111.084 128.229 111.161 128.139 111.262 128.088C111.363 128.036 111.481 128.027 111.589 128.062C111.696 128.097 111.786 128.174 111.837 128.275C111.888 128.376 111.897 128.493 111.862 128.601L105.194 149.093C105.158 149.202 105.089 149.296 104.996 149.362C104.902 149.428 104.791 149.463 104.676 149.461L81.5659 148.968L81.6003 147.564Z" fill="#4A75CB"/>
<path d="M82.0414 150.088C82.0414 150.088 89.5939 152.077 92.4264 151.868C95.2589 151.658 97.6144 150.315 97.9703 149.611C98.3263 148.908 99.0755 147.67 97.1478 147.894C95.22 148.118 92.5864 148.533 92.5042 148.163C92.4219 147.793 94.076 147.828 94.076 147.828C94.076 147.828 94.577 147.103 93.9473 147.082C93.3177 147.061 91.4827 146.558 90.8067 146.898C90.1308 147.239 89.4952 148.496 88.9972 148.444C88.4991 148.391 82.677 145.825 82.677 145.825L82.0414 150.088Z" fill="#FFB27D"/>
<path d="M55.2924 110.127C55.2924 110.127 56.1897 140.527 62.8717 143.981C66.1708 145.686 81.0693 150.371 85.5409 151.172C85.5409 151.172 86.7374 150.4 86.8794 146.731C86.8794 146.731 71.5712 139.116 69.6584 135.682C66.8169 130.573 73.9012 116.569 70.1624 111.656C66.4236 106.744 59.5038 104.041 55.2924 110.127Z" fill="#2A4E96"/>
<path d="M59.939 95.3764C59.939 95.3764 59.8328 93.4129 61.0457 92.2885C61.0457 92.2885 60.6239 90.319 61.4031 89.995C62.1823 89.671 62.3468 91.3254 62.7042 91.0656C63.0617 90.8058 64.6484 89.5724 65.3364 87.7552C66.0243 85.938 72.2651 88.139 72.9935 88.4675C73.7218 88.796 76.0608 87.594 76.5169 86.6204C76.5169 86.6204 75.2158 85.5752 74.6311 84.8032C74.0463 84.0313 69.9516 78.7678 64.2312 80.2595C58.5108 81.7512 57.7316 84.4777 58.0561 86.8145C58.3807 89.1513 57.5955 94.5925 59.939 95.3764Z" fill="#AA413E"/>
<path d="M73.2043 181.6H29.7727C29.3522 181.6 28.949 181.433 28.6517 181.136C28.3544 180.839 28.1874 180.437 28.1874 180.017V171.013C28.1874 170.593 28.3544 170.191 28.6517 169.894C28.949 169.597 29.3522 169.43 29.7727 169.43H73.2043C73.6252 169.43 74.0288 169.597 74.3263 169.894C74.6239 170.191 74.7911 170.594 74.7911 171.014V180.018C74.7903 180.438 74.6228 180.84 74.3253 181.137C74.0278 181.433 73.6246 181.6 73.2043 181.6Z" fill="#F99746"/>
<path d="M66.0841 181.6L66.7676 184.82L76.6545 231.433C76.6814 231.595 76.9043 231.719 77.1705 231.719C77.6789 231.719 78.0678 231.448 78.0199 231.137L70.1774 183.403L69.8783 181.6H66.0841Z" fill="#EFCBAB"/>
<path d="M66.0841 181.6L66.7676 184.82C67.2372 183.538 70.1789 183.403 70.1789 183.403L69.8798 181.6H66.0841Z" fill="#CCA07F"/>
<path d="M25.3728 231.721C25.639 231.721 25.8619 231.597 25.8888 231.434L35.7802 184.82L36.2064 182.811L36.4637 181.6H32.665L32.3659 183.403L32.1341 184.817L24.5234 231.134C24.4695 231.449 24.8629 231.721 25.3728 231.721Z" fill="#EFCBAB"/>
<path d="M32.1326 184.817C33.0987 183.284 36.2005 182.812 36.2005 182.812L36.4577 181.601H32.6591L32.36 183.405L32.1326 184.817Z" fill="#CCA07F"/>
<path d="M340.684 232.885H5.08749C4.98465 232.886 4.88278 232.866 4.78771 232.826C4.69264 232.787 4.60624 232.73 4.53345 232.657C4.46066 232.585 4.40292 232.499 4.36352 232.404C4.32412 232.309 4.30383 232.207 4.30383 232.105C4.30364 232.002 4.32377 231.9 4.36308 231.805C4.4024 231.71 4.46012 231.624 4.53292 231.551C4.60573 231.478 4.6922 231.421 4.78737 231.381C4.88253 231.342 4.98452 231.322 5.08749 231.322H340.684C340.787 231.322 340.889 231.342 340.984 231.381C341.08 231.421 341.166 231.478 341.239 231.551C341.312 231.624 341.369 231.71 341.409 231.805C341.448 231.9 341.468 232.002 341.468 232.105C341.468 232.207 341.448 232.309 341.408 232.404C341.369 232.499 341.311 232.585 341.238 232.657C341.165 232.73 341.079 232.787 340.984 232.826C340.889 232.866 340.787 232.886 340.684 232.885Z" fill="#2E3552"/>
</svg>
