<svg width="16" height="18" viewBox="0 0 16 18" fill="none" xmlns="http://www.w3.org/2000/svg">
<path d="M7.58803 8.67066C8.77919 8.67066 9.81067 8.24341 10.6535 7.40047C11.4963 6.5577 11.9235 5.52651 11.9235 4.33521C11.9235 3.14426 11.4963 2.11295 10.6533 1.26987C9.81039 0.427217 8.77905 0 7.58803 0C6.3967 0 5.36546 0.427217 4.5227 1.27001C3.67994 2.11281 3.25255 3.14415 3.25255 4.33521C3.25255 5.52651 3.6799 6.55785 4.52284 7.40064C5.36578 8.2433 6.39712 8.67066 7.58803 8.67066ZM15.1739 13.8411C15.1496 13.4903 15.1004 13.1077 15.0281 12.7037C14.955 12.2967 14.861 11.9119 14.7483 11.5602C14.632 11.1967 14.4738 10.8377 14.2783 10.4937C14.0753 10.1366 13.8369 9.82571 13.5694 9.56988C13.2896 9.30224 12.9471 9.08705 12.5511 8.93004C12.1564 8.77395 11.719 8.69485 11.2511 8.69485C11.0674 8.69485 10.8897 8.77022 10.5465 8.99367C10.3025 9.15253 10.0579 9.31026 9.81247 9.46687C9.57667 9.61713 9.25725 9.7579 8.86269 9.88534C8.47776 10.0099 8.08693 10.0731 7.70117 10.0731C7.31543 10.0731 6.92471 10.0099 6.53936 9.88534C6.14526 9.758 5.82583 9.61727 5.59029 9.46701C5.31712 9.29246 5.06998 9.13317 4.85559 8.9935C4.51282 8.77008 4.33497 8.69467 4.15124 8.69467C3.68321 8.69467 3.24597 8.77391 2.85141 8.93021C2.45563 9.08691 2.113 9.3021 1.83298 9.57002C1.56562 9.82599 1.32708 10.1367 1.12437 10.4937C0.928973 10.8377 0.770771 11.1965 0.654298 11.5603C0.541799 11.912 0.447756 12.2967 0.374702 12.7037C0.302315 13.1072 0.253167 13.4899 0.228839 13.8415C0.204638 14.1953 0.192643 14.5498 0.192874 14.9044C0.192874 15.844 0.491561 16.6047 1.08057 17.1656C1.66229 17.7192 2.432 18.0001 3.36803 18.0001H12.0351C12.9712 18.0001 13.7406 17.7194 14.3225 17.1657C14.9116 16.6051 15.2103 15.8443 15.2103 14.9043C15.2102 14.5416 15.198 14.1838 15.1739 13.8411Z" fill="#1D1D1D"/>
</svg>
